<svg width="352" height="265" viewBox="0 0 352 265" fill="none" xmlns="http://www.w3.org/2000/svg">
<path d="M41.1775 248.989C41.8471 246.814 40.0999 244.64 38.1449 243.072C36.1899 241.504 33.85 240.107 32.8263 238.015C31.1638 234.645 33.3343 230.258 30.5172 227.458C28.8624 225.808 25.899 225.265 24.4366 223.501C23.7562 222.524 23.3021 221.453 23.0973 220.34C21.5031 214.741 18.1056 209.598 13.2606 205.447C12.9728 210.447 14.3259 215.418 17.1784 219.841C18.3252 221.611 19.7261 223.33 20.1186 225.302C20.7498 228.514 18.5792 231.826 19.5721 234.974C20.6959 238.577 25.645 240.967 25.9067 244.678C26.1222 247.838 22.8279 250.582 23.0819 253.717C23.2863 255.057 23.8774 256.338 24.8061 257.453C27.7925 261.473 32.149 264.23 38.7222 264.109L46.7809 264.305L41.1775 248.989Z" fill="#F5F5F5"/>
<path d="M48.4138 264.445C49.1506 264.535 49.9011 264.518 50.6306 264.394C51.5227 264.282 52.3993 264.097 53.2475 263.844C54.4142 263.503 55.504 263.005 56.4726 262.371C57.0489 261.979 57.5006 261.478 57.7888 260.911C58.0284 260.27 58.1504 259.603 58.1505 258.932C58.1612 258.216 58.2203 257.5 58.3275 256.789C58.4802 256.034 58.8096 255.311 59.2974 254.659C60.2364 253.281 61.8066 251.979 62.2992 250.114C62.7918 248.249 62.43 246.321 62.0452 244.317C61.6603 242.313 61.2755 240.177 62.1914 238.103C63.1074 236.03 64.793 234.152 65.6551 231.814C66.5171 229.475 66.0938 226.927 66.2631 224.424C66.3114 223.155 66.6591 221.905 67.2868 220.745C67.9334 219.569 68.8262 218.463 69.5266 217.23C70.9352 214.702 71.1661 211.901 71.5432 209.132C71.7228 207.738 71.905 206.328 72.0897 204.903C72.201 203.471 72.4925 202.051 72.9595 200.668C73.4907 199.271 74.123 197.901 74.8529 196.566C75.2329 195.874 75.5419 195.157 75.7766 194.423C75.9072 193.668 75.9894 192.908 76.0229 192.147C76.0984 190.616 76.016 189.083 75.7766 187.564C75.5457 186.04 75.1993 184.53 75.0069 183C75.0069 182.905 75.0069 182.817 75.0069 182.734L74.9607 182.431L74.6297 182.57C72.9268 183.291 71.4493 184.325 70.3117 185.592C69.2083 186.832 68.3222 188.194 67.6794 189.637C66.3555 192.488 65.886 195.466 65.2317 198.317C64.5775 201.167 63.6923 203.962 61.9759 206.332C61.0984 207.514 60.044 208.595 59.1126 209.746C58.121 210.874 57.4479 212.17 57.1422 213.538C56.6804 216.339 58.5815 218.792 58.2044 221.269C58.0256 222.487 57.5323 223.66 56.7574 224.708C56.0338 225.77 55.218 226.756 54.3713 227.743C53.5453 228.709 52.829 229.735 52.2315 230.808C51.671 231.859 51.3426 232.982 51.2617 234.127C51.0847 236.359 51.4849 238.476 51.3002 240.449C51.0884 242.352 50.4242 244.204 49.3452 245.898C48.3831 247.529 47.3132 249.001 46.4126 250.436C45.9658 251.123 45.5624 251.827 45.2042 252.548C44.8871 253.226 44.655 253.929 44.5115 254.646C44.2904 255.904 44.2904 257.181 44.5115 258.439C44.7282 260.185 45.5272 261.847 46.8206 263.243C47.0153 263.452 47.2344 263.645 47.4748 263.819C47.6345 263.957 47.8126 264.08 48.0059 264.185C48.3061 264.369 48.4677 264.451 48.4677 264.451C47.9029 264.074 47.387 263.65 46.9283 263.187C45.6786 261.789 44.9127 260.14 44.7116 258.414C44.5197 257.176 44.5457 255.922 44.7886 254.691C44.9296 253.989 45.1645 253.302 45.489 252.643C45.8473 251.93 46.2507 251.234 46.6974 250.556C47.6057 249.14 48.6909 247.668 49.6762 246.024C50.7873 244.304 51.4727 242.419 51.6928 240.48C51.8929 238.438 51.5003 236.321 51.6928 234.159C51.7421 233.04 52.034 231.938 52.5548 230.903C53.1505 229.853 53.8588 228.848 54.6715 227.901C55.4797 226.921 56.3417 225.935 57.0883 224.847C57.9069 223.759 58.4318 222.539 58.6277 221.269C58.9972 218.627 57.0883 216.162 57.5809 213.557C57.8812 212.25 58.5334 211.015 59.4898 209.942C60.398 208.81 61.4679 207.729 62.3684 206.515C64.1772 204.075 65.047 201.224 65.6935 198.367C66.3401 195.51 66.825 192.551 68.1258 189.764C68.7524 188.358 69.6179 187.032 70.6966 185.825C71.7809 184.608 73.1961 183.614 74.8298 182.924L74.4604 182.753C74.4604 182.842 74.4604 182.93 74.4604 183.025C74.6682 184.568 75.0146 186.085 75.2301 187.589C75.4692 189.085 75.5516 190.595 75.4764 192.103C75.4302 192.836 75.3763 193.613 75.2455 194.309C75.0157 195.016 74.7171 195.708 74.3526 196.376C73.6166 197.727 72.9767 199.111 72.4361 200.523C71.9653 201.929 71.6713 203.372 71.5586 204.828C71.3816 206.256 71.1969 207.666 71.0198 209.063C70.6504 211.844 70.4195 214.626 69.0571 217.04C68.3875 218.242 67.5177 219.354 66.8327 220.562C66.1873 221.758 65.8293 223.046 65.7782 224.354C65.6166 226.883 66.0399 229.411 65.2163 231.668C64.3928 233.925 62.6532 235.809 61.7758 237.945C60.8983 240.082 61.2524 242.339 61.6526 244.317C62.0529 246.296 62.4608 248.243 61.9528 250.007C61.4448 251.77 59.9747 253.079 59.0126 254.488C58.5124 255.185 58.1879 255.956 58.0581 256.758C57.953 257.477 57.899 258.201 57.8965 258.926C57.9005 259.568 57.7916 260.206 57.5732 260.822C57.3055 261.366 56.8769 261.846 56.3263 262.219C55.3846 262.85 54.3239 263.349 53.186 263.699C52.3503 263.959 51.4872 264.156 50.6075 264.287C50.0664 264.368 49.518 264.412 48.968 264.419L48.4138 264.445Z" fill="#E0E0E0"/>
<path d="M73.3282 186.388C73.2882 186.449 73.2621 186.515 73.2512 186.584C73.205 186.742 73.1511 186.938 73.0742 187.184C72.9202 187.703 72.7355 188.493 72.443 189.473C72.1505 190.453 71.4116 191.571 70.7959 192.937C70.1801 194.302 69.5028 195.87 68.9101 197.64C68.3174 199.41 67.7787 201.37 67.2245 203.468C66.7464 205.711 65.8943 207.89 64.6922 209.941C64.0379 211.022 63.299 212.116 62.7217 213.304C62.1509 214.525 61.7682 215.799 61.5826 217.097C61.1959 219.789 60.6358 222.463 59.9047 225.106L55.4558 240.417C54.055 245.107 52.785 249.336 51.7228 252.902C50.6606 256.467 49.8447 259.349 49.252 261.341C48.975 262.314 48.7594 263.079 48.6055 263.635C48.5439 263.882 48.49 264.078 48.4516 264.267C48.4432 264.337 48.4432 264.407 48.4516 264.476C48.4907 264.414 48.5192 264.348 48.5362 264.28L48.7441 263.686C48.9211 263.136 49.1751 262.377 49.5137 261.41C50.1449 259.394 51.0531 256.536 52.1461 253.015C53.2391 249.494 54.5476 245.24 55.9946 240.556C57.4416 235.872 58.8271 230.644 60.4127 225.214C61.1439 222.56 61.704 219.876 62.0906 217.173C62.2598 215.903 62.6244 214.657 63.1759 213.462C63.7377 212.299 64.4613 211.212 65.1155 210.125C66.3285 208.042 67.1784 205.828 67.6401 203.551C68.1789 201.445 68.6869 199.486 69.2642 197.729C69.8414 195.971 70.4495 194.391 71.0653 193.032C71.681 191.673 72.3507 190.541 72.6047 189.523C72.8587 188.506 73.028 187.734 73.1511 187.203C73.1973 186.963 73.2358 186.761 73.2743 186.603C73.3032 186.533 73.3213 186.461 73.3282 186.388Z" fill="#E0E0E0"/>
<path d="M49.8375 264.457C55.0792 261.865 56.5339 254.058 54.3095 249.381C52.085 244.703 48.2135 240.423 47.5823 235.423C47.0974 231.58 48.606 227.629 47.49 223.874C45.9506 218.817 39.9238 214.904 39.9623 209.689C39.9623 206.762 41.9866 203.999 41.8019 201.079C41.5787 197.495 38.2074 194.663 36.1138 191.515C32.9042 186.698 32.6579 180.964 31.5341 175.566C30.4104 170.167 27.855 164.352 21.9822 161.716C21.1509 166.324 19.6731 169.485 20.2042 175.717C20.3889 177.955 23.5832 182.228 24.0527 187.134C24.3298 190.061 24.5299 193 24.7685 195.933C25.0071 198.866 25.238 201.698 26.5003 204.353C27.4702 206.395 29.0172 208.247 29.7408 210.359C31.1031 214.328 29.379 218.646 30.5105 222.673C31.4495 226.08 34.3589 228.994 34.9593 232.465C35.8214 237.326 32.0191 242.395 34.0126 247.004C35.0055 249.298 37.3223 251.138 37.9919 253.508C38.5153 255.354 37.9919 257.301 38.446 259.16C39.2157 262.143 46.143 264.425 49.8606 264.217" fill="#E0E0E0"/>
<path d="M23.4647 166.28C23.4545 166.366 23.4545 166.453 23.4647 166.539C23.4647 166.735 23.534 166.981 23.5879 167.297C23.711 167.961 23.8573 168.935 24.1343 170.192C24.4114 171.45 25.2427 172.885 25.897 174.617C26.5512 176.35 27.2593 178.315 27.8674 180.528C28.4754 182.74 28.9988 185.193 29.5453 187.835C30.0918 190.478 30.6845 193.348 32.3008 196.091C33.0705 197.469 33.8864 198.847 34.5176 200.314C35.1412 201.825 35.5316 203.394 35.6798 204.985C35.9921 208.353 36.5239 211.703 37.2731 215.024C38.9279 221.838 40.5135 228.299 41.9451 234.234C43.3768 240.17 44.8469 245.442 45.9937 249.867C47.1406 254.292 48.095 257.889 48.7493 260.405L49.5189 263.269C49.6113 263.572 49.6806 263.819 49.7345 264.008C49.7543 264.093 49.7852 264.176 49.8268 264.255C49.8354 264.168 49.8354 264.082 49.8268 263.996C49.7806 263.806 49.7268 263.559 49.6575 263.25C49.4959 262.561 49.2726 261.6 48.9802 260.373C48.3644 257.845 47.4408 254.248 46.3863 249.804C45.3318 245.36 43.9386 240.037 42.4685 234.146C40.9984 228.254 39.4821 221.756 37.8503 214.948C37.097 211.632 36.5574 208.285 36.234 204.922C36.0853 203.301 35.6871 201.701 35.0486 200.162C34.4021 198.658 33.5554 197.273 32.8011 195.908C31.2002 193.209 30.6229 190.383 30.0379 187.753C29.453 185.124 28.9296 182.658 28.2907 180.439C27.7269 178.442 27.041 176.47 26.2356 174.529C25.5583 172.803 24.6962 171.368 24.4037 170.155C24.1113 168.941 23.9188 167.929 23.7572 167.272C23.6879 166.962 23.6264 166.716 23.5879 166.526C23.5553 166.441 23.5141 166.359 23.4647 166.28Z" fill="#EBEBEB"/>
<path d="M143.731 2.21445C148.226 -2.09041 159.895 0.615139 167.915 4.11087C167.915 4.11087 173.426 6.24749 175.474 7.35374H175.543L194.262 5.45732C195.783 5.2967 197.329 5.51702 198.695 6.08946L200.235 6.7216C200.408 6.79505 200.553 6.90741 200.652 7.04564C200.75 7.18387 200.799 7.34228 200.793 7.50248C200.786 7.66267 200.725 7.81808 200.615 7.95064C200.505 8.08321 200.352 8.18749 200.173 8.25137L186.388 13.0872V13.2263L199.996 20.5718L200.204 20.6792C202.77 22.0307 205.863 22.5364 208.863 22.0952L216.152 21.0206C216.52 20.9629 216.901 20.9891 217.253 21.0964C217.548 21.1949 217.806 21.3543 218.004 21.5591C218.202 21.764 218.332 22.0073 218.381 22.2655C218.431 22.5236 218.398 22.788 218.287 23.0328C218.175 23.2777 217.989 23.4947 217.745 23.6629L209.279 29.4533C208.632 29.8991 207.844 30.1845 207.007 30.2763C206.171 30.3681 205.319 30.2624 204.553 29.9717L200.596 28.4798L180.584 20.6603L182.893 30.0096C182.909 30.0997 182.901 30.1915 182.869 30.2787C182.837 30.366 182.783 30.4465 182.71 30.515C182.637 30.5834 182.547 30.638 182.445 30.6752C182.344 30.7123 182.235 30.7311 182.124 30.7302H181.185C180.555 30.7082 179.941 30.5552 179.403 30.2854C178.864 30.0156 178.418 29.6379 178.106 29.1878L170.047 16.545L146.433 7.32213C143.285 6.13371 142.161 3.9149 143.731 2.21445Z" fill="#E0E0E0"/>
<path d="M12.6445 43.6069L71.9958 42.5259C71.9958 42.5259 66.5233 34.7569 51.2833 36.2045C36.7206 37.5636 35.8432 32.6266 28.4002 32.1588C20.9573 31.6911 14.9074 36.4511 12.6445 43.6069Z" fill="#F5F5F5"/>
<path d="M290.182 69.9734H346.1C346.1 69.9734 341.159 62.5774 326.765 63.652C313.011 64.6761 312.318 60.0109 305.322 59.4419C298.325 58.873 292.506 63.2727 290.182 69.9734Z" fill="#F5F5F5"/>
<path d="M46.4414 19.415H89.098C89.098 19.415 85.3265 13.7764 74.3429 14.5981C63.8596 15.382 63.3285 11.8231 57.9945 11.3806C52.6606 10.9381 48.2194 14.301 46.4414 19.415Z" fill="#F5F5F5"/>
<path d="M290.234 93.1476H318.136C318.136 93.1476 315.673 89.4559 308.492 89.9869C301.626 90.4989 301.28 88.1727 297.793 87.8882C294.306 87.6037 291.397 89.8036 290.234 93.1476Z" fill="#F5F5F5"/>
<path d="M276.281 29.7062H304.19C304.19 29.7062 301.72 26.0145 294.538 26.5455C287.673 27.0575 287.326 24.7313 283.84 24.4468C280.353 24.1623 277.42 26.3622 276.281 29.7062Z" fill="#FAFAFA"/>
<path d="M347.025 264.495C347.025 264.583 269.34 264.659 173.52 264.659C77.7009 264.659 0 264.583 0 264.495C0 264.406 77.6701 264.331 173.52 264.331C269.371 264.331 347.025 264.406 347.025 264.495Z" fill="#263238"/>
<path d="M293.853 153.024C293.798 152.582 293.544 152.172 293.142 151.876C292.739 151.579 292.216 151.416 291.675 151.418H275.242C274.922 151.419 274.605 151.477 274.316 151.59C274.026 151.703 273.771 151.867 273.567 152.071C273.364 152.275 273.219 152.513 273.141 152.768C273.063 153.024 273.055 153.29 273.118 153.548C273.214 153.961 273.487 154.332 273.886 154.595C274.285 154.858 274.785 154.995 275.296 154.983H291.683C291.986 154.983 292.286 154.93 292.564 154.829C292.841 154.728 293.09 154.58 293.294 154.396C293.498 154.212 293.653 153.994 293.749 153.758C293.846 153.522 293.881 153.272 293.853 153.024Z" fill="#263238"/>
<path d="M329.698 260.07C329.548 260.913 329.705 261.773 330.15 262.542C330.594 263.312 331.307 263.955 332.198 264.392C333.088 264.828 334.116 265.038 335.151 264.995C336.187 264.951 337.184 264.656 338.015 264.148C338.847 263.639 339.476 262.939 339.823 262.137C340.17 261.334 340.22 260.465 339.966 259.64C339.712 258.814 339.165 258.069 338.395 257.499C337.625 256.928 336.666 256.558 335.64 256.435C334.265 256.271 332.867 256.561 331.753 257.243C330.639 257.924 329.9 258.941 329.698 260.07Z" fill="#263238"/>
<path d="M333.792 260.721L330.598 255.297L332.276 254.419L335.37 260.083L333.792 260.721Z" fill="#455A64"/>
<path d="M304.19 193.948L284.34 151.412L280.568 152.967L299.803 195.118L304.19 193.948Z" fill="#263238"/>
<path d="M350.026 250.134L320.699 259.704C320.175 259.875 319.59 259.868 319.073 259.685C318.555 259.502 318.148 259.157 317.94 258.727L288.771 198.436C287.668 196.158 287.713 193.614 288.895 191.363C290.077 189.113 292.299 187.34 295.073 186.435L307.433 182.401C310.207 181.496 313.305 181.533 316.045 182.503C318.785 183.474 320.944 185.299 322.046 187.577L351.216 247.868C351.424 248.298 351.415 248.779 351.192 249.204C350.969 249.628 350.549 249.963 350.026 250.134Z" fill="#699FC9"/>
<path d="M317.906 259.002C317.906 259.002 317.86 258.875 317.752 258.635L317.267 257.567L315.359 253.464L308.254 238.413C305.229 232.06 301.643 224.506 297.656 216.105L291.383 202.937C290.844 201.8 290.29 200.649 289.743 199.486C289.164 198.348 288.951 197.107 289.127 195.883C289.317 194.635 289.912 193.452 290.852 192.459C291.791 191.465 293.039 190.699 294.465 190.239C295.89 189.78 297.44 189.645 298.951 189.848C300.462 190.051 301.879 190.586 303.051 191.395C304.189 192.197 305.06 193.224 305.583 194.378L307.231 197.836C309.417 202.4 311.526 206.8 313.527 210.997L324.218 233.274C327.297 239.595 329.737 244.722 331.461 248.281L333.446 252.358C333.677 252.807 333.847 253.161 333.978 253.414C334.108 253.667 334.17 253.768 334.17 253.768C334.17 253.768 334.124 253.641 334.016 253.395L333.531 252.326C333.092 251.378 332.446 250 331.622 248.23L324.518 233.179L313.919 210.871C311.926 206.673 309.824 202.267 307.646 197.703C307.107 196.559 306.553 195.409 305.999 194.246C305.461 193.021 304.546 191.933 303.344 191.085C302.109 190.232 300.616 189.668 299.024 189.454C297.432 189.239 295.798 189.381 294.296 189.865C292.794 190.35 291.479 191.158 290.489 192.205C289.499 193.251 288.872 194.498 288.673 195.813C288.487 197.102 288.71 198.409 289.32 199.606L290.967 203.089C293.153 207.647 295.262 212.053 297.263 216.244C301.281 224.614 304.906 232.168 307.946 238.489L315.189 253.502L317.183 257.573C317.406 258.028 317.583 258.376 317.714 258.629C317.769 258.756 317.833 258.881 317.906 259.002Z" fill="#263238"/>
<path d="M316.014 216.155C316.076 216.32 319.909 215.074 324.581 213.387C329.253 211.699 332.986 210.188 332.925 210.03C332.863 209.872 329.022 211.105 324.358 212.799C319.694 214.493 315.953 215.991 316.014 216.155Z" fill="#263238"/>
<path d="M290.075 151.412L286.65 145.849C286.266 145.228 285.624 144.739 284.841 144.471L279.453 142.625L264.936 126.455L263.566 138.839L272.803 146.671C272.803 146.671 278.599 156.697 283.332 156.185C283.215 155.281 282.891 154.404 282.378 153.599C280.838 151.412 282.478 151.412 282.693 151.425H286.657L290.075 151.412Z" fill="#FFBE9D"/>
<path d="M266.375 142.859C266.814 143.396 270.401 147.391 270.401 147.391L280.568 141.317L276.874 138.352L266.375 142.859Z" fill="#699FC9"/>
<path d="M282.409 153.599C282.409 153.599 285.057 154.863 285.388 155.887V156.519L282.217 156.14L282.409 153.599Z" fill="#FFBE9D"/>
<path d="M285.956 154.787C285.486 154.486 285.12 154.089 284.894 153.637C284.791 153.409 284.796 153.157 284.907 152.932C285.018 152.706 285.227 152.523 285.494 152.417C286.04 152.265 286.602 152.587 287.033 152.91C287.574 153.308 288.088 153.73 288.573 154.174C288.802 154.336 288.982 154.54 289.097 154.77C289.212 154.999 289.259 155.248 289.235 155.495C289.163 155.687 289.022 155.857 288.829 155.98C288.636 156.103 288.401 156.175 288.157 156.184C287.911 156.189 287.667 156.152 287.439 156.076C287.212 155.999 287.005 155.886 286.833 155.742C286.49 155.458 286.216 155.123 286.025 154.756" fill="#FFBE9D"/>
<path d="M288.643 154.598C288.174 154.296 287.808 153.9 287.581 153.447C287.479 153.219 287.484 152.968 287.595 152.742C287.706 152.517 287.915 152.333 288.181 152.227C288.728 152.076 289.29 152.398 289.721 152.72C290.262 153.118 290.776 153.54 291.26 153.985C291.49 154.146 291.669 154.35 291.784 154.58C291.899 154.81 291.946 155.058 291.922 155.306C291.851 155.498 291.709 155.667 291.516 155.791C291.323 155.914 291.089 155.985 290.845 155.995C290.599 155.999 290.355 155.962 290.127 155.886C289.9 155.81 289.693 155.696 289.521 155.552C289.178 155.269 288.904 154.934 288.712 154.566" fill="#FFBE9D"/>
<path d="M280.568 145.103C280.568 145.027 281.253 145.052 282.046 145.615C282.415 145.985 282.723 146.393 282.962 146.829C283.321 147.358 283.501 147.955 283.486 148.561C283.375 149.156 283.09 149.72 282.654 150.204C282.36 150.594 282.146 151.021 282.023 151.469C281.911 151.883 281.875 152.309 281.915 152.733C281.782 152.535 281.698 152.317 281.669 152.093C281.64 151.868 281.666 151.641 281.746 151.424C281.839 150.945 282.04 150.484 282.339 150.065C282.73 149.613 282.993 149.095 283.108 148.548C283.117 147.999 282.961 147.456 282.654 146.968C282.452 146.548 282.194 146.147 281.885 145.773C281.62 145.558 281.319 145.375 280.992 145.229C280.854 145.181 280.712 145.139 280.568 145.103Z" fill="#EB996E"/>
<path d="M171.033 88.0461L160.242 116.379L191.984 143.605L221.071 137.397L171.033 88.0461Z" fill="#F5F5F5"/>
<path d="M171.025 88.04L171.271 88.2739L172.002 88.9819L174.835 91.7507L185.387 102.086L221.232 137.296L221.432 137.492L221.132 137.555L204.738 141.058L192.045 143.763H191.93L191.853 143.694L160.126 116.486L160.064 116.429V116.36C163.405 107.681 166.145 100.594 168.046 95.6636C168.985 93.2236 169.724 91.3208 170.232 90.0186L170.802 88.5521C170.933 88.2297 170.994 88.0653 170.994 88.0653C170.625 89.0578 166.83 99.191 160.365 116.436L160.326 116.309L192.092 143.491L191.899 143.447L204.591 140.735L220.986 137.233L220.886 137.499L185.364 102.301L174.85 91.8708L172.018 89.0451L171.248 88.3119L171.025 88.04Z" fill="#263238"/>
<path d="M172.018 106.732C172.421 106.218 172.946 105.775 173.562 105.432C174.178 105.088 174.873 104.85 175.604 104.732C176.335 104.614 177.087 104.618 177.816 104.744C178.545 104.871 179.235 105.117 179.845 105.468C181.831 106.732 182.747 109.115 185.133 109.747C186.857 110.203 188.758 109.539 190.521 109.798C192.607 110.108 194.162 111.694 194.762 113.338C195.362 114.982 195.201 116.796 195.032 118.534L184.71 118.648L172.018 106.732Z" fill="#E0E0E0"/>
<path d="M152.93 90.6316L219.816 147.24L192.561 144.97L154.438 111.916L152.93 90.6316Z" fill="#F5F5F5"/>
<path d="M152.938 90.6316C152.999 91.4597 153.553 98.7419 154.569 111.909V111.84C164.321 120.273 177.66 131.796 192.739 144.863L192.615 144.812L213.528 146.544L219.87 147.075L219.709 147.353C182.517 115.746 154.446 91.8895 152.976 90.6316L219.993 147.126L220.378 147.448L219.832 147.404L213.482 146.873L192.577 145.128H192.508L192.454 145.09C177.398 131.999 164.098 120.437 154.377 111.998V111.96C153.453 98.7482 152.984 91.4597 152.938 90.6316Z" fill="#263238"/>
<path d="M179.107 113.129C177.044 115.083 177.344 118.187 179.107 120.342C180.869 122.498 183.779 123.8 186.719 124.729C189.097 125.481 192.03 125.955 194 124.628" fill="#E0E0E0"/>
<path d="M175.628 110.051C175.751 110.525 175.028 110.879 174.443 110.835C173.858 110.791 173.319 110.519 172.726 110.494C171.118 110.418 170.24 111.985 168.932 112.75C168.143 113.174 167.184 113.328 166.258 113.181C165.333 113.033 164.514 112.595 163.975 111.96C163.097 110.841 163.12 109.185 161.735 108.496C160.919 108.169 159.985 108.099 159.11 108.3C158.244 108.498 157.344 108.575 156.447 108.528C156 108.494 155.581 108.334 155.26 108.077C154.939 107.819 154.736 107.478 154.685 107.112L154.2 106.479L153.061 90.853L175.628 110.051Z" fill="#E0E0E0"/>
<path d="M208.225 146.096C208.568 146.167 208.926 146.18 209.275 146.134C209.625 146.088 209.959 145.983 210.258 145.827C210.556 145.671 210.813 145.466 211.011 145.225C211.21 144.984 211.346 144.713 211.412 144.427C211.497 143.8 211.288 143.169 210.825 142.665C210.363 142.161 209.683 141.821 208.926 141.715C207.563 141.57 206.155 142.221 204.846 141.886C203.353 141.5 202.737 140.078 202.36 138.832C201.983 137.587 201.452 136.165 200.005 135.672C197.611 134.875 195.087 137.397 192.585 136.841C190.73 136.43 190.014 134.597 188.559 133.567C187.971 133.157 187.264 132.878 186.507 132.756C185.75 132.635 184.967 132.674 184.234 132.871C183.568 133.005 182.964 133.295 182.495 133.706C182.026 134.117 181.713 134.63 181.594 135.185L192.639 144.749L208.225 146.096Z" fill="#E0E0E0"/>
<path d="M189.937 241.763L187.19 254.773C187.19 254.773 170.164 256.846 169.371 259.198L199.897 264.482L205.193 244.355L189.937 241.763Z" fill="#699FC9"/>
<g opacity="0.6">
<path d="M196.91 255.323C197.185 255.446 197.394 255.649 197.498 255.892C197.602 256.134 197.593 256.4 197.472 256.638C197.331 256.867 197.088 257.044 196.793 257.131C196.498 257.218 196.174 257.209 195.887 257.105C195.595 256.974 195.374 256.758 195.266 256.499C195.158 256.241 195.171 255.959 195.302 255.708C195.479 255.481 195.757 255.319 196.078 255.256C196.398 255.194 196.735 255.236 197.018 255.373" fill="white"/>
</g>
<path opacity="0.6" d="M199.897 264.495L200.452 262.51L170.926 258.174C170.926 258.174 169.448 258.426 169.387 259.236L199.897 264.495Z" fill="white"/>
<path d="M186.727 254.558C186.727 254.684 187.435 254.868 188.066 255.386C188.697 255.904 188.959 256.492 189.105 256.467C189.251 256.442 189.213 255.696 188.435 255.076C187.658 254.457 186.727 254.444 186.727 254.558Z" fill="#263238"/>
<path d="M183.249 255.095C183.187 255.209 183.78 255.525 184.149 256.132C184.519 256.739 184.526 257.308 184.68 257.333C184.834 257.358 185.104 256.701 184.619 255.93C184.134 255.158 183.279 254.975 183.249 255.095Z" fill="#263238"/>
<path d="M180.623 257.927C180.754 257.978 181.116 257.402 180.908 256.663C180.7 255.923 180.069 255.538 179.977 255.632C179.884 255.727 180.223 256.157 180.392 256.764C180.562 257.371 180.477 257.889 180.623 257.927Z" fill="#263238"/>
<path d="M187.758 251.65C187.758 251.777 188.528 251.726 189.352 251.916C190.175 252.105 190.776 252.44 190.891 252.352C191.006 252.263 190.475 251.72 189.498 251.498C188.52 251.277 187.705 251.543 187.758 251.65Z" fill="#263238"/>
<path opacity="0.3" d="M189.399 244.343L188.906 246.656L203.938 249.14L204.493 247.073L189.399 244.343Z" fill="black"/>
<path d="M188.365 249.033C188.841 249.23 189.373 249.32 189.905 249.292C190.478 249.311 191.053 249.268 191.613 249.166C191.942 249.106 192.266 249.03 192.583 248.938C192.775 248.89 192.957 248.818 193.122 248.723C193.24 248.653 193.327 248.554 193.37 248.44C193.413 248.326 193.41 248.203 193.361 248.091C193.306 247.993 193.225 247.907 193.124 247.839C193.022 247.771 192.903 247.723 192.776 247.699C192.584 247.665 192.386 247.654 192.191 247.667C191.264 247.689 190.36 247.907 189.566 248.3C188.719 248.717 188.358 249.128 188.404 249.166C188.45 249.204 188.904 248.894 189.735 248.571C190.508 248.278 191.347 248.119 192.198 248.104C192.537 248.104 192.814 248.135 192.868 248.268C192.922 248.401 192.868 248.338 192.799 248.407C192.676 248.472 192.544 248.525 192.406 248.565C192.108 248.656 191.805 248.734 191.498 248.799C190.974 248.912 190.438 248.984 189.897 249.014C189.386 248.992 188.875 248.998 188.365 249.033Z" fill="#263238"/>
<path d="M188.519 249.235C188.566 249.267 188.974 248.881 189.235 248.097C189.376 247.637 189.423 247.161 189.374 246.688C189.349 246.404 189.285 246.124 189.181 245.853C189.141 245.674 189.046 245.506 188.905 245.365C188.763 245.225 188.58 245.117 188.373 245.05C188.236 245.033 188.096 245.046 187.967 245.088C187.839 245.13 187.726 245.2 187.642 245.291C187.526 245.425 187.433 245.572 187.365 245.727C187.24 245.996 187.167 246.28 187.149 246.568C187.113 247.054 187.222 247.54 187.465 247.984C187.896 248.736 188.481 248.989 188.504 248.951C188.527 248.913 188.112 248.571 187.819 247.863C187.645 247.458 187.582 247.027 187.634 246.599C187.667 246.352 187.739 246.11 187.85 245.879C187.965 245.626 188.142 245.43 188.258 245.48C188.373 245.531 188.62 245.746 188.689 245.98C188.787 246.216 188.859 246.46 188.904 246.707C188.979 247.141 188.979 247.581 188.904 248.015C188.72 248.78 188.442 249.235 188.519 249.235Z" fill="#263238"/>
<path d="M290.242 242.554L283.646 235.474L283.3 235.107L272.031 241.978L282.445 251.372L282.068 260.886C276.265 262.112 275.395 264.495 275.395 264.495H287.448L298.401 247.174L290.242 242.554Z" fill="#699FC9"/>
<path opacity="0.6" d="M298.426 247.162L287.473 264.483L275.42 264.495L276.775 263.003L286.581 262.555L296.687 246.182L298.426 247.162Z" fill="white"/>
<path d="M282.16 256.524C282.253 256.625 282.93 256.303 283.877 256.322C284.823 256.341 285.493 256.663 285.585 256.562C285.678 256.461 285.024 255.93 283.884 255.885C282.745 255.841 282.037 256.448 282.16 256.524Z" fill="#263238"/>
<path d="M282.354 254.166C282.477 254.235 283.008 253.654 283.97 253.496C284.932 253.338 285.702 253.704 285.779 253.603C285.856 253.502 285.686 253.388 285.348 253.237C284.89 253.051 284.372 252.995 283.872 253.078C283.372 253.16 282.919 253.376 282.584 253.692C282.346 253.945 282.292 254.141 282.354 254.166Z" fill="#263238"/>
<path d="M282.278 251.132C282.409 251.189 282.817 250.613 283.656 250.373C284.495 250.133 285.249 250.373 285.311 250.247C285.372 250.12 285.195 250.063 284.857 249.962C284.411 249.831 283.924 249.831 283.479 249.962C283.037 250.094 282.66 250.343 282.409 250.67C282.224 250.929 282.209 251.132 282.278 251.132Z" fill="#263238"/>
<path d="M279.046 248.793C279.192 248.831 279.531 248.268 280.277 247.87C281.024 247.471 281.771 247.415 281.817 247.288C281.863 247.162 280.916 247.004 280.016 247.509C279.115 248.015 278.9 248.78 279.046 248.793Z" fill="#263238"/>
<path d="M277.473 246.757C277.535 246.789 277.927 246.391 278.52 245.721L279.544 244.532C279.774 244.288 279.961 244.017 280.098 243.729C280.139 243.626 280.154 243.516 280.143 243.408C280.131 243.299 280.092 243.193 280.029 243.097C279.955 242.994 279.847 242.91 279.718 242.855C279.588 242.801 279.442 242.777 279.297 242.788C278.874 242.854 278.483 243.021 278.174 243.268C277.877 243.463 277.618 243.693 277.404 243.951C277.061 244.383 276.845 244.874 276.773 245.386C276.647 245.846 276.743 246.329 277.042 246.732C277.045 246.297 277.079 245.862 277.142 245.43C277.257 244.976 277.482 244.546 277.804 244.166C277.994 243.947 278.216 243.75 278.466 243.578C278.703 243.4 278.988 243.272 279.297 243.205C279.343 243.2 279.389 243.206 279.43 243.223C279.472 243.24 279.506 243.267 279.528 243.3C279.568 243.389 279.568 243.488 279.528 243.578C279.404 243.821 279.246 244.052 279.059 244.267C278.751 244.69 278.443 245.101 278.135 245.531C277.836 245.908 277.613 246.322 277.473 246.757Z" fill="#263238"/>
<path d="M277.043 247.054C277.097 247.054 277.043 246.53 276.397 245.935C275.952 245.541 275.363 245.275 274.719 245.18C274.075 245.084 273.41 245.163 272.825 245.404C272.764 245.448 272.715 245.503 272.682 245.564C272.648 245.625 272.632 245.691 272.633 245.758C272.641 245.874 272.692 245.984 272.779 246.074C272.904 246.194 273.049 246.298 273.21 246.384C273.478 246.541 273.764 246.674 274.065 246.782C274.567 246.972 275.102 247.096 275.65 247.149C276.15 247.237 276.671 247.197 277.143 247.035C277.143 246.966 276.574 246.997 275.712 246.846C275.214 246.756 274.733 246.613 274.28 246.422C274.011 246.311 273.753 246.182 273.51 246.037C273.393 245.976 273.287 245.901 273.195 245.815C273.141 245.727 273.195 245.752 273.195 245.727C273.303 245.672 273.423 245.636 273.549 245.619C273.696 245.594 273.845 245.575 273.995 245.562C274.281 245.547 274.569 245.564 274.85 245.613C275.331 245.703 275.779 245.889 276.15 246.157C276.782 246.624 276.959 247.08 277.043 247.054Z" fill="#263238"/>
<path opacity="0.6" d="M288.803 246.865C288.803 247.097 288.887 247.325 289.044 247.518C289.201 247.711 289.425 247.862 289.686 247.951C289.948 248.04 290.236 248.063 290.514 248.018C290.791 247.973 291.046 247.861 291.247 247.696C291.447 247.532 291.583 247.322 291.639 247.094C291.694 246.866 291.665 246.63 291.557 246.415C291.449 246.2 291.265 246.016 291.03 245.887C290.794 245.758 290.518 245.689 290.234 245.689C289.855 245.689 289.491 245.813 289.222 246.033C288.954 246.254 288.803 246.553 288.803 246.865Z" fill="white"/>
<path opacity="0.3" d="M273.104 242.92L275.42 245.013L285.157 237.092L283.802 235.644L273.104 242.92Z" fill="black"/>
<path d="M243.129 78.0585C249.571 76.2203 256.524 75.9611 263.142 77.3126C266.074 77.9131 269.053 78.9119 270.931 80.8589C273.155 83.1598 273.432 86.2952 273.779 89.2221C274.474 95.1753 275.809 101.067 277.766 106.827C279.398 111.619 281.46 116.309 282.345 121.259C283.231 126.208 282.823 131.449 279.767 135.747C275.056 142.372 265.043 145.299 255.706 145.432C250.796 145.495 245.762 144.907 241.405 143.036C237.049 141.165 233.424 137.897 232.361 133.959" fill="#699FC9"/>
<g opacity="0.5">
<path d="M243.129 78.0585C249.571 76.2203 256.524 75.9611 263.142 77.3126C266.074 77.9131 269.053 78.9119 270.931 80.8589C273.155 83.1598 273.432 86.2952 273.779 89.2221C274.474 95.1753 275.809 101.067 277.766 106.827C279.398 111.619 281.46 116.309 282.345 121.259C283.231 126.208 282.823 131.449 279.767 135.747C275.056 142.372 265.043 145.299 255.706 145.432C250.796 145.495 245.762 144.907 241.405 143.036C237.049 141.165 233.424 137.897 232.361 133.959" fill="black"/>
</g>
<path d="M255.971 84.127C256.982 84.8523 257.879 85.6784 258.642 86.586C259.434 87.5932 260.129 88.65 260.72 89.7467C261.443 91.1085 262.274 92.4303 263.206 93.7039C264.164 94.9942 265.483 96.0779 267.054 96.8646C268.368 97.5092 269.914 97.7574 271.426 97.5662C272.439 97.4471 273.388 97.0892 274.159 96.5358C274.363 96.3842 274.544 96.2122 274.697 96.0238C274.805 95.8974 274.851 95.8278 274.836 95.8215C274.821 95.8152 274.574 96.0617 274.066 96.4094C273.293 96.8914 272.375 97.1927 271.411 97.2818C269.982 97.4212 268.539 97.1582 267.316 96.5358C265.82 95.7608 264.563 94.7113 263.645 93.47C262.725 92.2102 261.895 90.9079 261.158 89.5697C260.537 88.4645 259.798 87.4068 258.949 86.409C258.373 85.733 257.686 85.1248 256.91 84.6011C256.632 84.3999 256.315 84.2396 255.971 84.127Z" fill="#E0E0E0"/>
<path d="M269.491 143.339C269.511 143.173 269.511 143.006 269.491 142.84C269.491 142.473 269.491 142.006 269.491 141.424C269.491 140.198 269.384 138.415 269.268 136.222C269.03 131.797 268.614 125.753 267.967 119.065C267.321 112.377 266.59 106.321 265.989 101.953C265.681 99.7661 265.42 97.9961 265.22 96.7824C265.127 96.2072 265.042 95.7394 264.981 95.3791C264.962 95.2141 264.923 95.0511 264.865 94.8923C264.842 95.0561 264.842 95.2216 264.865 95.3854C264.904 95.752 264.958 96.2198 265.012 96.7951C265.166 98.0594 265.373 99.8293 265.62 101.979C266.135 106.359 266.82 112.409 267.459 119.097C268.098 125.785 268.575 131.847 268.899 136.234C269.06 138.39 269.191 140.153 269.284 141.43L269.407 142.846C269.417 143.012 269.446 143.177 269.491 143.339Z" fill="#E0E0E0"/>
<path d="M267.576 116.486C267.576 116.594 270.524 116.568 274.126 116.195C277.728 115.822 280.592 115.266 280.569 115.165C280.546 115.064 277.652 115.43 274.065 115.797C270.478 116.164 267.568 116.347 267.576 116.486Z" fill="#E0E0E0"/>
<path d="M269.955 116.404C269.721 116.759 269.584 117.151 269.555 117.554C269.466 117.983 269.412 118.416 269.393 118.85C269.366 119.133 269.425 119.418 269.562 119.678C269.648 119.837 269.787 119.972 269.963 120.068C270.139 120.164 270.344 120.218 270.555 120.222C270.675 120.226 270.795 120.207 270.905 120.167C271.014 120.126 271.111 120.065 271.186 119.988C271.32 119.851 271.398 119.683 271.41 119.508C271.42 119.233 271.373 118.96 271.271 118.698C271.142 118.265 270.967 117.842 270.748 117.434C270.37 116.758 270.016 116.397 269.978 116.423C270.087 116.807 270.241 117.182 270.44 117.542C270.602 117.94 270.738 118.345 270.848 118.755C270.919 118.98 270.95 119.212 270.94 119.444C270.94 119.659 270.786 119.792 270.571 119.792C270.055 119.792 269.847 119.28 269.87 118.825C269.893 118.37 269.87 117.921 269.916 117.561C269.988 117.178 270.001 116.789 269.955 116.404Z" fill="#E0E0E0"/>
<path d="M236.781 80.3466L267.706 77.3811C271.755 76.9928 274.654 73.9821 274.181 70.6567L273.511 65.9413C273.038 62.6159 269.372 60.2348 265.323 60.6231L234.399 63.5887C230.35 63.977 227.451 66.9876 227.923 70.313L228.594 75.0284C229.067 78.3538 232.732 80.7349 236.781 80.3466Z" fill="#455A64"/>
<path d="M264.806 61.0287C264.806 61.0287 264.713 60.9781 264.513 60.9275C264.217 60.8582 263.912 60.8199 263.605 60.8137C262.455 60.8176 261.339 61.1356 260.434 61.7177C259.047 62.519 257.947 63.6103 257.247 64.8784C256.465 66.4464 256.163 68.1483 256.37 69.8343C256.481 71.5354 257.208 73.1705 258.456 74.5311C259.481 75.6423 260.888 76.4748 262.497 76.9206C263.566 77.2233 264.705 77.327 265.829 77.224C266.135 77.1964 266.436 77.1456 266.73 77.0723C266.93 77.0218 267.03 76.9902 267.022 76.9775C267.015 76.9649 266.591 77.0281 265.814 77.066C264.723 77.1049 263.634 76.963 262.612 76.6488C261.095 76.1887 259.776 75.3733 258.817 74.3036C257.651 72.99 256.974 71.4263 256.87 69.8027C256.658 68.1842 256.922 66.5476 257.64 65.0301C258.297 63.8156 259.322 62.7599 260.618 61.9642C261.456 61.3951 262.49 61.0548 263.574 60.9907C264.375 60.9465 264.798 61.0666 264.806 61.0287Z" fill="#263238"/>
<path d="M247.132 62.3119L251.904 61.9263C250.628 62.2467 249.536 62.9332 248.825 63.8606C248.134 64.7826 247.688 65.8146 247.517 66.8886C246.663 71.3957 249.58 76.2379 254.267 78.6779L250.419 79.0952C250.419 79.0952 239.412 71.0227 247.101 62.3119" fill="#263238"/>
<path d="M241.73 70.6056C242.96 70.8852 244.253 70.9244 245.504 70.7202C246.756 70.5159 247.932 70.0738 248.938 69.4293C249.944 68.7847 250.753 67.9557 251.299 67.0085C251.845 66.0613 252.113 65.0222 252.083 63.9745C252.029 62.0338 250.951 60.0489 251.69 58.1968C252.198 56.9325 253.491 55.9337 253.93 54.6505C254.577 52.7224 253.16 50.7818 251.814 49.1256C251.011 48.0251 250.013 47.03 248.85 46.1735C248.265 45.7468 247.573 45.4311 246.823 45.2486C246.073 45.0662 245.283 45.0215 244.509 45.1178" fill="#263238"/>
<path d="M219.869 45.2886C220 46.7551 218.822 48.07 217.629 49.1699C216.436 50.2698 215.12 51.4266 214.858 52.8806C214.404 55.466 217.483 57.8618 216.852 60.422C216.506 61.7937 215.143 62.8936 214.897 64.278C214.651 65.6624 215.536 66.933 216.621 67.9507C217.706 68.9685 219.022 69.8472 219.985 70.9218C220.898 72.1367 221.671 73.4193 222.294 74.7525C222.915 76.0957 224.046 77.2392 225.519 78.0144C227.828 79.0384 231.03 78.558 232.785 80.1447C234.54 81.7314 236.572 81.9147 238.665 83.0715" fill="#263238"/>
<path d="M247.403 47.5326C247.449 46.2051 245.948 45.1747 244.44 44.6879C242.931 44.2012 241.246 44.0115 239.899 43.2656C238.706 42.6335 237.905 41.5841 236.897 40.7371C235.65 39.7044 234.092 38.9619 232.381 38.5856C230.671 38.2092 228.869 38.2124 227.161 38.5949C225.452 38.9773 223.898 39.7253 222.656 40.7625C221.415 41.7996 220.531 43.0888 220.094 44.4983C219.517 46.3947 219.91 48.6388 221.734 49.9031C223.85 51.3633 226.983 51.0409 229.692 50.5858C232.402 50.1307 235.465 49.6818 237.728 50.9904C239.09 51.7742 239.868 53.0574 240.707 54.2459C241.546 55.4343 242.585 56.6417 244.163 57.0842C245.741 57.5267 247.88 56.7618 247.942 55.3964" fill="#263238"/>
<path d="M240.974 47.8106C241.649 47.8692 242.273 48.1347 242.721 48.554C243.169 48.9734 243.408 49.516 243.391 50.0737L241.774 80.1887C241.705 83.7477 235.378 85.7452 230.737 85.6567C226.057 85.5682 225.903 83.6781 225.849 80.2962C225.749 74.6449 225.757 72.5209 225.757 72.5525C225.757 72.5841 219.838 71.737 218.629 65.3967C218.029 62.236 218.237 57.0714 218.576 52.8487C218.876 49.0559 221.955 44.3844 226.573 44.789L240.974 47.8106Z" fill="#FFBE9D"/>
<path d="M220.037 56.4708C220.033 56.6833 220.131 56.8886 220.309 57.0423C220.488 57.1961 220.733 57.286 220.992 57.2926C221.117 57.2994 221.242 57.2858 221.361 57.2526C221.479 57.2193 221.588 57.1671 221.682 57.0989C221.776 57.0307 221.852 56.9479 221.907 56.8553C221.961 56.7626 221.993 56.662 222 56.5593C222.004 56.3479 221.907 56.1435 221.731 55.9899C221.554 55.8364 221.31 55.7458 221.053 55.7375C220.928 55.7298 220.801 55.7427 220.682 55.7756C220.563 55.8084 220.452 55.8605 220.358 55.9288C220.263 55.9971 220.186 56.0802 220.131 56.1733C220.076 56.2664 220.044 56.3675 220.037 56.4708Z" fill="#263238"/>
<path d="M219.932 55.5353C220.055 55.6428 220.809 55.1876 221.871 55.1939C222.934 55.2003 223.719 55.6364 223.834 55.529C223.95 55.4215 223.765 55.2888 223.426 55.0865C222.973 54.8305 222.437 54.6918 221.887 54.6882C221.335 54.6872 220.796 54.8287 220.347 55.0928C219.986 55.3014 219.87 55.4911 219.932 55.5353Z" fill="#263238"/>
<path d="M230.647 56.6922C230.642 56.9047 230.74 57.11 230.919 57.2638C231.097 57.4175 231.342 57.5074 231.601 57.514C231.726 57.5226 231.852 57.5105 231.972 57.4784C232.091 57.4463 232.201 57.3948 232.296 57.327C232.391 57.2592 232.468 57.1765 232.523 57.0837C232.578 56.991 232.61 56.8901 232.617 56.7871C232.621 56.575 232.525 56.37 232.348 56.2154C232.171 56.0608 231.928 55.9688 231.67 55.959C231.544 55.9512 231.418 55.9641 231.298 55.9969C231.178 56.0297 231.067 56.0817 230.972 56.1499C230.877 56.2181 230.799 56.3012 230.743 56.3943C230.687 56.4874 230.654 56.5887 230.647 56.6922Z" fill="#263238"/>
<path d="M230.406 55.7188C230.529 55.8263 231.276 55.3711 232.345 55.3774C233.415 55.3838 234.185 55.8199 234.301 55.7125C234.416 55.605 234.239 55.4723 233.893 55.27C233.442 55.0097 232.904 54.8705 232.353 54.8717C231.8 54.8663 231.26 55.0082 230.814 55.2763C230.467 55.4786 230.344 55.6745 230.406 55.7188Z" fill="#263238"/>
<path d="M226.52 62.2045C225.959 62.057 225.377 61.9678 224.788 61.939C224.519 61.939 224.265 61.8758 224.219 61.724C224.191 61.493 224.253 61.2607 224.396 61.0603L225.212 59.3598C225.958 57.9262 226.565 56.4467 227.028 54.9349C226.905 54.8969 225.897 56.8313 224.781 59.2461C224.504 59.8782 224.25 60.4155 224.011 60.9592C223.837 61.2261 223.785 61.5357 223.865 61.8315C223.905 61.9103 223.965 61.9807 224.043 62.0376C224.12 62.0945 224.212 62.1364 224.311 62.1602C224.462 62.1949 224.617 62.2141 224.773 62.2171C225.354 62.2699 225.941 62.2657 226.52 62.2045Z" fill="#263238"/>
<path d="M225.76 72.5526C229.391 72.614 232.971 71.8482 236.104 70.3401C236.104 70.3401 233.549 74.6576 225.852 74.0507L225.76 72.5526Z" fill="#EB996E"/>
<path d="M226.966 64.3095C227.171 64.1014 227.436 63.9391 227.738 63.8375C228.039 63.7358 228.367 63.6981 228.69 63.7279C228.925 63.7471 229.153 63.8046 229.36 63.8968C229.568 63.9891 229.751 64.1143 229.899 64.2652C230.04 64.4116 230.124 64.5902 230.138 64.7768C230.151 64.9634 230.095 65.1489 229.976 65.3083C229.804 65.4641 229.58 65.5744 229.332 65.6251C229.084 65.6758 228.823 65.6645 228.582 65.5927C228.078 65.4465 227.615 65.2186 227.22 64.9226C227.099 64.8542 226.997 64.766 226.92 64.6635C226.878 64.6168 226.855 64.5603 226.855 64.5023C226.855 64.4443 226.878 64.3878 226.92 64.3411" fill="#EB996E"/>
<path d="M229.652 62.8112C229.483 62.8112 229.475 63.753 228.482 64.4231C227.489 65.0932 226.258 64.992 226.25 65.1248C226.242 65.2575 226.527 65.3081 227.02 65.3207C227.698 65.3321 228.359 65.1438 228.883 64.7898C229.39 64.4544 229.716 63.9684 229.791 63.437C229.86 63.0451 229.698 62.8048 229.652 62.8112Z" fill="#263238"/>
<path d="M229.932 54.1889C230.032 54.4228 231.102 54.3153 232.348 54.4417C233.595 54.5682 234.611 54.8463 234.773 54.6377C234.85 54.5302 234.673 54.309 234.265 54.0751C233.725 53.7887 233.111 53.6111 232.472 53.5567C231.832 53.4936 231.184 53.5542 230.578 53.7337C230.116 53.9044 229.885 54.0751 229.932 54.1889Z" fill="#263238"/>
<path d="M220.331 53.0069C220.515 53.2029 221.254 53.0069 222.132 53.0069C223.009 53.0069 223.763 53.1396 223.933 52.931C224.01 52.8362 223.894 52.6339 223.571 52.4443C223.133 52.2172 222.622 52.1025 222.103 52.1149C221.585 52.1273 221.083 52.2662 220.662 52.5138C220.354 52.7035 220.246 52.9121 220.331 53.0069Z" fill="#263238"/>
<path d="M246.362 68.6649C245.296 68.8414 244.193 68.8069 243.146 68.5643C242.098 68.3216 241.136 67.8778 240.339 67.2695C239.542 66.6611 238.933 65.9057 238.561 65.0656C238.19 64.2255 238.067 63.325 238.204 62.4383C238.45 60.8832 239.466 59.2776 238.812 57.8237C237.942 55.8767 234.617 55.2951 233.732 53.3355C233.224 52.204 233.685 50.8828 233.101 49.7765C232.516 48.6703 231.222 48.133 229.922 47.7474C228.584 47.464 227.308 47.0096 226.142 46.4009C225.049 45.7056 224.372 44.3907 225.073 43.4172C230.84 43.9814 236.504 45.1104 241.944 46.7802C243.199 47.1658 244.523 47.6336 245.269 48.5502C246.016 49.4668 246.039 50.7817 245.954 51.9511L244.985 69.0188" fill="#263238"/>
<path d="M250.52 73.9368C250.516 73.3933 250.38 72.856 250.119 72.3565C249.8 71.7782 249.354 71.2532 248.803 70.8077C248.063 70.227 247.223 69.7392 246.309 69.3601C245.301 68.9113 244.139 68.5004 242.953 67.9441C241.647 67.3739 240.546 66.5326 239.759 65.5041C239.346 64.9289 239.124 64.2752 239.113 63.6077C239.146 62.9298 239.262 62.2564 239.459 61.5975C239.673 60.9491 239.728 60.2722 239.621 59.6062C239.537 59.2786 239.366 58.9704 239.12 58.7037C238.873 58.437 238.558 58.2184 238.197 58.0638C237.427 57.7098 236.657 57.4886 235.849 57.1851C235.022 56.9099 234.324 56.4249 233.856 55.8007C233.466 55.1814 233.266 54.4938 233.271 53.7969C233.271 53.1331 233.271 52.4947 233.271 51.9005C233.289 51.3067 233.185 50.7147 232.963 50.1494C232.738 49.6315 232.331 49.1803 231.793 48.8535C230.751 48.3039 229.587 47.928 228.368 47.7473C227.336 47.5786 226.35 47.2573 225.458 46.7991C224.785 46.4233 224.293 45.8667 224.065 45.2251C223.908 44.8265 223.908 44.3973 224.065 43.9987C224.125 43.8647 224.214 43.7405 224.327 43.6321C224.327 43.6321 224.242 43.7648 224.142 44.024C224.012 44.4086 224.028 44.8166 224.188 45.1935C224.43 45.7905 224.91 46.3029 225.551 46.6474C226.433 47.0743 227.399 47.3717 228.406 47.5261C229.669 47.6991 230.877 48.075 231.962 48.6323C232.557 48.9884 233.009 49.4811 233.263 50.0483C233.501 50.6437 233.618 51.2674 233.609 51.8941C233.609 52.5263 233.609 53.1584 233.609 53.7906C233.607 54.4363 233.792 55.0732 234.148 55.649C234.578 56.2186 235.216 56.6613 235.972 56.9133C236.742 57.2104 237.566 57.4253 238.358 57.8046C238.756 57.9974 239.111 58.2455 239.405 58.5379C239.687 58.8385 239.88 59.1892 239.967 59.562C240.083 60.2722 240.026 60.9943 239.798 61.686C239.603 62.3216 239.487 62.9718 239.451 63.6266C239.455 64.2445 239.656 64.8507 240.036 65.384C240.785 66.3724 241.832 67.1847 243.077 67.7418C244.231 68.2981 245.386 68.7217 246.402 69.1894C247.33 69.5888 248.179 70.1025 248.919 70.7129C249.476 71.1802 249.918 71.732 250.219 72.3375C250.409 72.7192 250.51 73.1264 250.52 73.5386C250.529 73.6459 250.529 73.7536 250.52 73.861C250.535 73.8989 250.527 73.9368 250.52 73.9368Z" fill="#263238"/>
<path d="M228.022 78.2859C227.903 78.3343 227.776 78.3663 227.645 78.3807C227.488 78.4121 227.328 78.4332 227.168 78.444C226.951 78.4708 226.732 78.4834 226.513 78.4819C225.093 78.483 223.706 78.1255 222.542 77.4578C221.728 77.0057 221.045 76.4122 220.54 75.7194C220.003 74.9113 219.653 74.0282 219.509 73.115C219.37 72.1419 219.032 71.1951 218.508 70.3147C217.908 69.436 216.792 68.8544 215.784 68.1022C214.753 67.3686 214.081 66.3538 213.89 65.2449C213.711 64.2145 213.963 63.1646 214.606 62.2675C215.233 61.5367 215.772 60.7576 216.215 59.9413C216.516 59.212 216.629 58.439 216.546 57.6719C216.393 56.5483 216.064 55.4456 215.568 54.3911C215.375 54.005 215.208 53.6103 215.068 53.209C215.148 53.2959 215.213 53.3917 215.26 53.4935C215.368 53.6894 215.53 53.9739 215.714 54.3468C216.275 55.3998 216.651 56.513 216.831 57.6529C216.935 58.4558 216.833 59.2677 216.53 60.0361C216.095 60.8723 215.558 61.6707 214.929 62.4192C214.333 63.2586 214.105 64.2401 214.283 65.2007C214.46 66.2347 215.09 67.1806 216.053 67.862C217.015 68.5826 218.185 69.1894 218.847 70.1503C219.392 71.0631 219.739 72.0472 219.871 73.0581C219.998 73.9418 220.322 74.7988 220.825 75.5867C221.295 76.2543 221.936 76.8301 222.703 77.2745C223.815 77.937 225.141 78.3133 226.513 78.3555C227.483 78.3744 228.014 78.248 228.022 78.2859Z" fill="#263238"/>
<path d="M250.481 48.0698C250.556 48.1431 250.602 48.2336 250.612 48.3289C250.628 48.4656 250.61 48.6035 250.559 48.7341C250.507 48.8647 250.423 48.985 250.312 49.0875C250.141 49.256 249.93 49.394 249.691 49.4929C249.453 49.5919 249.193 49.6496 248.926 49.6628C248.238 49.6283 247.569 49.4639 246.971 49.1823C246.281 48.8656 245.513 48.6798 244.724 48.6387C243.806 48.6188 242.889 48.6867 241.991 48.841C240.978 49.0212 239.948 49.129 238.912 49.1634C237.747 49.2013 236.611 48.8606 235.749 48.2152C234.976 47.5421 234.36 46.7578 233.932 45.9015C233.539 45.1342 233.043 44.4049 232.455 43.727C231.952 43.1723 231.264 42.7501 230.474 42.5121C229.683 42.274 228.826 42.2305 228.006 42.3868C226.889 42.6308 225.928 43.2166 225.32 44.0241C225.106 44.3258 224.916 44.6383 224.75 44.9596C224.75 44.9596 224.75 44.8648 224.812 44.6878C224.896 44.4314 225.02 44.185 225.181 43.9545C225.671 43.2099 226.461 42.6282 227.416 42.3088C228.371 41.9894 229.431 41.9522 230.415 42.2035C231.335 42.4393 232.143 42.9057 232.724 43.5373C233.336 44.2299 233.852 44.9762 234.263 45.7625C234.676 46.5801 235.265 47.3296 236.003 47.9749C236.787 48.5663 237.825 48.8778 238.889 48.841C239.904 48.8088 240.913 48.7073 241.907 48.5375C242.834 48.3866 243.779 48.3272 244.724 48.3605C245.553 48.4279 246.354 48.6436 247.071 48.9927C247.629 49.2704 248.254 49.4431 248.903 49.4984C249.142 49.4924 249.378 49.4473 249.596 49.3659C249.814 49.2846 250.01 49.1684 250.173 49.0243C250.28 48.9364 250.364 48.8319 250.421 48.7168C250.478 48.6017 250.506 48.4784 250.504 48.3542C250.481 48.1583 250.419 48.0761 250.481 48.0698Z" fill="#455A64"/>
<path d="M246.118 46.2429C244.845 46.0029 243.712 45.4088 242.911 44.5612C242.11 43.7137 241.69 42.6648 241.722 41.5923C241.755 40.5197 242.238 39.4893 243.09 38.6757C243.941 37.862 245.109 37.3151 246.395 37.1275C247.003 37.005 247.64 37.0215 248.237 37.1753C248.834 37.3291 249.368 37.6143 249.782 37.9999C250.49 38.79 250.444 39.9721 251.321 40.6169C252.199 41.2617 253.769 41.0088 255.016 41.2491C255.971 41.4729 256.799 41.9682 257.352 42.6466C257.904 43.325 258.146 44.1425 258.033 44.9534C257.876 45.7595 257.464 46.5176 256.839 47.1521C256.214 47.7866 255.397 48.2753 254.469 48.5692C252.591 49.1321 250.537 49.1633 248.635 48.6577C246.749 48.1554 244.956 47.4406 243.309 46.5337" fill="#263238"/>
<path d="M255.391 41.6598C255.318 42.0784 255.125 42.4769 254.829 42.8229C254.188 43.7004 253.302 44.4394 252.243 44.9785C251.184 45.5211 249.984 45.8504 248.741 45.9393C248.225 46.0048 247.699 45.9724 247.201 45.8445C247.201 45.7876 247.786 45.8445 248.687 45.7055C249.864 45.5586 250.993 45.2166 252.004 44.7004C253.013 44.1795 253.884 43.4982 254.567 42.6965C255.098 42.0833 255.329 41.6408 255.391 41.6598Z" fill="#455A64"/>
<path d="M251.311 48.6704C250.319 47.597 249.075 46.6982 247.653 46.0271C246.23 45.356 244.658 44.9264 243.029 44.7638C243.515 44.6862 244.014 44.6862 244.499 44.7638C246.883 45.0508 249.045 46.0696 250.549 47.6147C250.89 47.9193 251.149 48.2788 251.311 48.6704Z" fill="#699FC9"/>
<path d="M195.225 117.516L182.748 115.531L184.996 118.155L179.669 120.342L175.213 118.629C175.559 119.377 175.995 120.095 176.514 120.772C177.491 122.106 178.823 123.18 179.639 123.231C179.912 124.154 180.481 125.001 181.286 125.684C182.01 126.277 182.909 126.705 183.896 126.926C184.882 127.148 185.921 127.155 186.912 126.948L195.294 124.457L195.225 117.516Z" fill="#FFBE9D"/>
<path d="M182.64 122.656C182.433 122.868 182.172 123.04 181.876 123.159C181.579 123.278 181.253 123.341 180.923 123.345C180.599 123.4 180.265 123.398 179.942 123.338C179.619 123.278 179.316 123.162 179.053 122.997C179.099 122.902 179.892 123.117 180.877 122.997C181.862 122.877 182.578 122.574 182.64 122.656Z" fill="#EB996E"/>
<path d="M184.286 124.837C184.363 124.9 183.825 125.393 182.901 125.589C182.633 125.674 182.346 125.709 182.06 125.692C181.773 125.674 181.495 125.605 181.246 125.488C181.246 125.393 182.016 125.45 182.785 125.273C183.555 125.096 184.194 124.767 184.286 124.837Z" fill="#EB996E"/>
<path d="M187.421 117.118C187.079 117.32 186.716 117.496 186.335 117.643C185.666 117.953 184.796 118.471 183.818 119.027C182.981 119.526 182.051 119.908 181.063 120.159C180.655 120.285 180.214 120.318 179.785 120.254C179.785 120.203 180.262 120.159 180.978 119.938C181.902 119.626 182.78 119.23 183.595 118.755C184.423 118.261 185.295 117.819 186.204 117.434C186.575 117.254 186.991 117.146 187.421 117.118Z" fill="#EB996E"/>
<path d="M263.105 134.527C263.105 134.527 263.528 134.749 264.59 136.297C267.846 141.07 269.162 152.505 256.893 162.714C241.022 175.901 222.434 197.482 222.434 197.482L207.81 248.154L185.766 244.229L197.126 191.565L228.276 144.104L263.105 134.527Z" fill="#263238"/>
<path d="M287.419 232.597L253.459 189.915L243.161 153.074L216.93 163.663L230.084 201.054L272.055 243.988L287.419 232.597Z" fill="#263238"/>
<path d="M207.822 248.154C207.827 248.068 207.846 247.983 207.876 247.901C207.922 247.724 207.984 247.484 208.061 247.174C208.246 246.542 208.5 245.588 208.831 244.387L211.717 234.159C214.188 225.511 217.597 213.595 221.369 200.434C221.661 199.41 221.954 198.392 222.231 197.444V197.4C231.852 187.286 240.619 178.341 247.069 171.988C250.302 168.827 252.942 166.299 254.812 164.566C255.728 163.7 256.483 163.056 256.983 162.613L257.552 162.114C257.683 162 257.752 161.943 257.76 161.949C257.708 162.014 257.648 162.076 257.583 162.133L257.037 162.651C256.559 163.113 255.828 163.77 254.92 164.649C253.088 166.387 250.487 168.941 247.285 172.133C240.888 178.524 232.16 187.494 222.547 197.602V197.539C222.277 198.487 221.985 199.505 221.685 200.529L211.994 234.216C210.724 238.508 209.685 241.991 208.985 244.418C208.623 245.607 208.346 246.542 208.146 247.187C208.053 247.497 207.976 247.731 207.922 247.908C207.898 247.992 207.865 248.075 207.822 248.154Z" fill="#455A64"/>
<path d="M247.647 147.998C247.49 148.105 247.31 148.187 247.116 148.238C246.607 148.419 246.079 148.561 245.538 148.662C243.738 148.999 241.863 148.954 240.091 148.53C238.319 148.107 236.707 147.319 235.409 146.241C235.018 145.917 234.663 145.566 234.347 145.191C234.131 144.92 234.031 144.762 234.054 144.749C234.077 144.736 234.593 145.305 235.593 146.07C236.901 147.069 238.475 147.803 240.19 148.213C241.904 148.624 243.712 148.699 245.469 148.434C246.831 148.232 247.624 147.948 247.647 147.998Z" fill="#455A64"/>
<path d="M266.376 136.714C253.091 142.461 231.532 145.893 224.636 143.561L224.397 122.542C224.397 122.542 214.953 109.754 214.914 104.918C214.86 97.9644 225.428 82.0535 225.428 82.0535L241.292 78.5578C244.486 78.5018 247.646 79.1061 250.482 80.3151C253.449 81.6653 255.863 83.7063 257.42 86.181C258.977 88.6557 259.608 91.4535 259.233 94.2221L255.239 115.133L266.376 136.714Z" fill="#699FC9"/>
<g opacity="0.3">
<path d="M249.351 80.2962C250.274 80.1824 250.613 81.4151 249.959 81.9587C249.305 82.5024 248.266 82.5277 247.35 82.6414C243.216 83.1724 240.022 86.0803 238.521 89.2852C237.02 92.4902 236.874 95.9922 236.628 99.3994C236.381 102.807 235.974 106.353 234.011 109.394C232.178 106.725 231.092 103.756 230.831 100.7C230.57 97.6438 231.141 94.5785 232.502 91.7264C233.864 88.8743 235.981 86.307 238.701 84.2107C241.421 82.1144 244.675 80.5419 248.227 79.6072" fill="black"/>
</g>
<path d="M250.48 80.3152C250.48 80.3152 248.171 77.224 240.536 78.5641C235.425 79.4618 224.249 88.2801 227.366 102.446C230.483 116.613 238.842 121.632 238.842 121.632C238.842 121.632 231.145 99.9431 235.425 90.48C236.545 87.8083 238.545 85.4441 241.203 83.6497C243.861 81.8553 247.072 80.7011 250.48 80.3152Z" fill="#263238"/>
<g opacity="0.3">
<path d="M224.686 127.005C227.849 127.839 230.882 128.901 234.176 129.243C237.472 129.687 240.853 129.397 243.966 128.402C248.192 126.923 251.332 123.762 252.949 120.229C254.565 116.695 254.788 112.826 254.357 109.065C251.471 111.998 251.817 116.341 249.362 119.533C247.823 121.524 245.321 122.883 242.75 123.958C237.125 126.179 230.922 127.232 224.686 127.024" fill="black"/>
</g>
<path d="M234.201 105.531C234.201 105.531 233.169 121.486 256.868 118.313L259.254 122.928C259.254 122.928 234.339 127.252 230.775 110.285L234.201 105.531Z" fill="#263238"/>
<path d="M255.801 85.7011C256.798 86.9182 257.47 88.295 257.773 89.7409C258.075 91.1868 258.001 92.6688 257.556 94.0896L251.652 115.791C249.12 121.897 241.892 125.608 237.397 126.101L195.303 129.761V116.859L234.38 112.093L236.212 94.5194C236.374 92.1552 237.79 87.9072 239.622 86.074C241.669 84.0322 244.817 81.2508 249.959 81.9588C253.107 82.3887 254.446 84.1144 255.801 85.7011Z" fill="#699FC9"/>
<path d="M257.017 94.9365C257.023 95.0994 257.01 95.2624 256.978 95.4233C256.932 95.7457 256.863 96.2134 256.763 96.8203C256.563 98.034 256.255 99.7787 255.785 101.928C255.316 104.077 254.716 106.637 253.923 109.45C253.53 110.854 253.107 112.333 252.591 113.875C252.087 115.455 251.396 116.99 250.528 118.458C249.651 119.936 248.445 121.265 246.972 122.378C245.599 123.409 244.042 124.262 242.354 124.906C239.492 125.96 236.435 126.611 233.31 126.834C230.655 127.055 228.5 127.068 227.014 127.081H225.298C225.101 127.096 224.902 127.096 224.705 127.081C224.901 127.052 225.099 127.039 225.298 127.043L227.006 126.986C228.492 126.935 230.647 126.885 233.279 126.632C236.362 126.382 239.374 125.716 242.193 124.66C243.847 124.031 245.376 123.2 246.726 122.194C248.157 121.1 249.331 119.8 250.19 118.357C251.043 116.907 251.726 115.394 252.229 113.837C252.745 112.333 253.176 110.86 253.584 109.457C254.354 106.65 255.031 104.109 255.524 101.966C256.016 99.823 256.378 98.0846 256.624 96.9088C256.748 96.3335 256.84 95.8721 256.909 95.5244C256.927 95.3265 256.963 95.13 257.017 94.9365Z" fill="#263238"/>
<path d="M235.512 115.791C235.074 115.205 234.754 114.564 234.566 113.894C234.246 113.265 234.053 112.596 233.996 111.916C234.756 113.123 235.276 114.423 235.535 115.765L235.512 115.791Z" fill="#263238"/>
<path d="M237.906 115.298C237.074 114.978 236.34 114.509 235.758 113.926C235.082 113.419 234.555 112.792 234.219 112.093C234.876 112.597 235.493 113.135 236.066 113.705C236.723 114.2 237.338 114.733 237.906 115.298Z" fill="#263238"/>
<path d="M198.963 116.417L199.14 116.379L199.663 116.296L201.68 116.025L209.169 115.057L234.315 111.935L234.146 112.08C234.284 110.879 234.431 109.615 234.584 108.325C235.085 103.767 235.616 99.4246 235.878 95.4611C236.06 93.5767 236.499 91.715 237.186 89.911C237.738 88.3139 238.675 86.8242 239.942 85.5302C242.435 83.2988 245.229 82.1167 247.284 81.9018C248.069 81.81 248.867 81.8228 249.647 81.9397C249.909 81.9839 250.109 82.0345 250.24 82.0661L250.44 82.123C249.413 81.9293 248.35 81.8971 247.308 82.0282C245.306 82.2747 242.582 83.4695 240.157 85.6883C238.93 86.9621 238.03 88.4263 237.509 89.9931C236.838 91.7794 236.415 93.6221 236.247 95.4864C236.008 99.4499 235.477 103.799 234.977 108.357C234.831 109.621 234.685 110.885 234.538 112.112V112.238H234.384L209.184 115.26L201.68 116.119L199.648 116.341L199.125 116.391L198.963 116.417Z" fill="#263238"/>
<path d="M223.056 126.929C222.949 126.929 222.502 124.015 222.064 120.405C221.625 116.796 221.355 113.85 221.463 113.837C221.934 115.998 222.268 118.178 222.464 120.367C222.798 122.545 222.996 124.735 223.056 126.929Z" fill="#FAFAFA"/>
<path d="M253.876 107.339C252.986 107.402 252.091 107.413 251.198 107.371C249.543 107.371 247.265 107.295 244.74 107.219C242.216 107.143 239.937 107.055 238.29 106.972C237.398 106.961 236.508 106.895 235.627 106.777C236.517 106.705 237.413 106.692 238.305 106.739C239.953 106.739 242.239 106.814 244.756 106.89C247.272 106.966 249.551 107.055 251.206 107.137C252.101 107.146 252.994 107.213 253.876 107.339Z" fill="#FAFAFA"/>
<path d="M227.153 103.211C226.582 103.332 225.995 103.395 225.406 103.401C224.328 103.464 222.827 103.508 221.172 103.483C219.517 103.458 218.016 103.363 216.939 103.262C216.351 103.24 215.769 103.157 215.207 103.015C215.791 102.968 216.378 102.968 216.962 103.015C218.04 103.06 219.533 103.11 221.18 103.135C222.827 103.161 224.32 103.135 225.398 103.135C225.984 103.107 226.573 103.133 227.153 103.211Z" fill="#FAFAFA"/>
<path d="M230.632 88.2169C230.57 88.2991 228.954 87.5848 226.86 86.9526C224.767 86.3205 223.012 85.9349 223.012 85.8401C225.748 86.1145 228.363 86.9301 230.632 88.2169Z" fill="#FAFAFA"/>
<path d="M261.201 127.656C261.095 127.718 260.978 127.767 260.855 127.801L259.839 128.143C258.961 128.44 257.668 128.832 256.06 129.293C251.862 130.48 247.589 131.481 243.26 132.29C238.93 133.117 234.549 133.751 230.136 134.186C228.443 134.344 227.057 134.451 226.118 134.502L225.025 134.553C224.898 134.569 224.768 134.569 224.641 134.553C224.762 134.518 224.889 134.497 225.018 134.489L226.103 134.376C227.05 134.287 228.412 134.148 230.105 133.958C233.469 133.579 238.11 132.953 243.19 132.005C248.27 131.057 252.758 129.957 255.99 129.091C257.607 128.661 258.915 128.301 259.839 128.042L260.878 127.757C260.982 127.715 261.09 127.682 261.201 127.656Z" fill="#FAFAFA"/>
<path d="M258.694 89.8541C258.694 89.9425 254.153 89.8983 248.557 89.7466C242.961 89.5949 238.436 89.4052 238.436 89.3167C238.436 89.2282 242.977 89.2725 248.572 89.4179C254.168 89.5633 258.694 89.7592 258.694 89.8541Z" fill="#FAFAFA"/>
<path d="M204.453 128.807C204.157 126.708 203.992 124.598 203.96 122.485C203.793 120.381 203.762 118.271 203.868 116.164C204.164 118.263 204.329 120.373 204.361 122.485C204.528 124.589 204.559 126.7 204.453 128.807Z" fill="#FAFAFA"/>
<path d="M118.35 64.1576C125.203 63.1128 132.277 63.7233 138.716 65.9149C141.572 66.8947 144.404 68.2791 145.944 70.4853C147.775 73.0897 147.483 76.3009 147.275 79.3036C146.873 85.421 147.13 91.5556 148.045 97.6356C148.814 102.693 150.023 107.75 150 112.807C149.977 117.864 148.591 123.187 144.704 127.157C138.708 133.269 128.033 134.989 118.535 133.946C113.547 133.402 108.567 132.176 104.495 129.736C100.424 127.296 97.3757 123.534 97.0293 119.413" fill="#455A64"/>
<path d="M130.221 71.9077C131.109 72.7701 131.863 73.7192 132.468 74.7334C133.093 75.8504 133.608 77.0067 134.008 78.1912C134.488 79.6598 135.082 81.1019 135.786 82.5087C136.519 83.9398 137.659 85.2057 139.111 86.2004C140.321 87.0175 141.839 87.4643 143.406 87.4646C144.446 87.473 145.467 87.2337 146.346 86.7756C146.581 86.6484 146.795 86.4977 146.985 86.3268C147.116 86.213 147.177 86.1435 147.162 86.1372C147.146 86.1308 146.854 86.3458 146.238 86.6365C145.367 87.0277 144.382 87.2157 143.39 87.1802C141.918 87.1429 140.505 86.6973 139.38 85.9159C138.011 84.9459 136.936 83.7274 136.24 82.357C135.54 80.9664 134.939 79.5439 134.439 78.0964C134.014 76.9002 133.463 75.7369 132.791 74.6196C132.33 73.8658 131.748 73.1663 131.06 72.5399C130.826 72.2914 130.542 72.0776 130.221 71.9077Z" fill="#263238"/>
<path d="M132.936 133.554C132.995 133.393 133.034 133.228 133.051 133.061C133.113 132.69 133.19 132.209 133.282 131.619C133.475 130.355 133.729 128.56 134.052 126.322C134.629 121.84 135.322 115.645 135.922 108.793C136.523 101.941 136.884 95.7203 137.085 91.2131C137.185 88.9627 137.246 87.1422 137.269 85.8842C137.269 85.29 137.269 84.8096 137.269 84.4366C137.293 84.2686 137.293 84.0989 137.269 83.9309C137.226 84.0951 137.203 84.2624 137.2 84.4303C137.2 84.8096 137.131 85.2837 137.085 85.8779C137 87.1864 136.884 88.9943 136.738 91.2005C136.446 95.7013 136.015 101.909 135.43 108.761C134.845 115.614 134.191 121.809 133.706 126.291C133.467 128.497 133.275 130.298 133.136 131.6C133.074 132.195 133.028 132.675 132.998 133.048C132.953 133.214 132.932 133.384 132.936 133.554Z" fill="#263238"/>
<path d="M135.977 106.1C135.977 106.208 138.948 106.549 142.665 106.625C146.383 106.701 149.385 106.498 149.377 106.385C149.369 106.271 146.375 106.29 142.681 106.208C138.986 106.125 135.992 105.98 135.977 106.1Z" fill="#263238"/>
<path d="M138.392 106.372C138.092 106.702 137.881 107.081 137.776 107.484C137.609 107.898 137.476 108.321 137.376 108.749C137.291 109.031 137.291 109.326 137.376 109.608C137.434 109.781 137.55 109.936 137.711 110.057C137.871 110.177 138.07 110.259 138.284 110.291C138.405 110.306 138.528 110.299 138.645 110.271C138.762 110.243 138.87 110.193 138.961 110.127C139.126 110.006 139.237 109.844 139.277 109.665C139.33 109.389 139.33 109.107 139.277 108.831C139.223 108.386 139.12 107.946 138.969 107.516C138.879 107.108 138.673 106.722 138.369 106.391C138.399 106.796 138.484 107.196 138.623 107.586C138.715 108.004 138.777 108.426 138.807 108.85C138.85 109.084 138.85 109.323 138.807 109.558C138.746 109.773 138.584 109.893 138.376 109.868C137.845 109.792 137.73 109.235 137.838 108.799C137.945 108.363 138.03 107.883 138.122 107.535C138.272 107.158 138.362 106.767 138.392 106.372Z" fill="#263238"/>
<path d="M111.313 65.6923L143.523 66.5652C147.597 66.6756 151.009 64.0525 151.144 60.7062L151.35 55.5634C151.485 52.2172 148.291 49.415 144.217 49.3046L112.007 48.4316C107.932 48.3212 104.52 50.9444 104.386 54.2906L104.179 59.4334C104.045 62.7797 107.239 65.5819 111.313 65.6923Z" fill="#263238"/>
<path d="M143.453 49.6312C143.453 49.6312 143.368 49.5679 143.176 49.4921C142.89 49.3822 142.587 49.3056 142.275 49.2645C141.113 49.1214 139.925 49.304 138.904 49.7829C137.354 50.4139 136.039 51.3743 135.094 52.5643C134.008 54.0521 133.387 55.7372 133.285 57.4697C133.082 59.2067 133.514 60.954 134.524 62.4889C135.356 63.7429 136.627 64.7627 138.173 65.4157C139.2 65.8542 140.333 66.1003 141.49 66.1363C141.804 66.147 142.118 66.1343 142.429 66.0984C142.539 66.096 142.646 66.0744 142.745 66.0352C142.745 65.9972 142.298 66.0351 141.506 65.9719C140.394 65.8785 139.317 65.5988 138.342 65.1502C136.891 64.496 135.706 63.507 134.932 62.3055C133.993 60.8289 133.597 59.1596 133.793 57.5013C133.892 55.835 134.472 54.2119 135.487 52.7666C136.378 51.621 137.613 50.6828 139.073 50.042C140.026 49.5631 141.138 49.342 142.252 49.4099C143.037 49.4794 143.438 49.6691 143.453 49.6312Z" fill="#455A64"/>
<path d="M125.322 48.7209L130.217 48.9232C128.872 49.0924 127.645 49.6533 126.761 50.5036C125.889 51.3498 125.246 52.3389 124.876 53.4051C123.175 57.8301 125.23 63.1274 129.494 66.1806L125.53 66.13C125.53 66.13 115.886 56.5721 125.291 48.7209" fill="#455A64"/>
<path d="M101.401 41.1478C99.3998 37.1716 99.292 30.2687 102.348 26.6086C105.403 22.9485 111.13 20.578 116.387 19.6551C117.252 19.4366 118.177 19.4366 119.042 19.6551C119.464 19.7853 119.81 20.0409 120.013 20.3711C120.215 20.7014 120.259 21.0821 120.135 21.4377C121.157 20.8617 122.289 20.4301 123.484 20.1608C124.084 20.0214 124.718 20.0062 125.327 20.1165C125.937 20.2268 126.504 20.4591 126.978 20.7929C127.206 20.9646 127.39 21.1722 127.519 21.4035C127.648 21.6347 127.719 21.8849 127.727 22.1391C127.736 22.3933 127.682 22.6463 127.569 22.8831C127.456 23.1198 127.287 23.3356 127.07 23.5174C127.811 23.2918 128.616 23.2502 129.386 23.3978C130.155 23.5454 130.854 23.8756 131.397 24.3474C131.939 24.8191 132.301 25.4116 132.436 26.0508C132.571 26.6901 132.475 27.3479 132.158 27.9424C131.438 29.1598 130.44 30.2521 129.218 31.16C128.117 31.9944 127.932 32.8541 128.117 34.0741" fill="#263238"/>
<path d="M102.655 33.8592L101.27 58.1839C101.213 59.1643 101.399 60.1441 101.817 61.0636C102.235 61.9831 102.876 62.8232 103.702 63.5328C104.528 64.2423 105.521 64.8065 106.62 65.191C107.72 65.5756 108.903 65.7724 110.098 65.7695C112.361 65.7601 114.532 65.0371 116.164 63.75C117.795 62.4629 118.763 60.7101 118.865 58.8539C118.965 57.0207 119.058 55.491 119.081 55.3076C119.081 55.3076 126.655 55.0169 127.547 48.9104C127.978 45.9583 128.271 39.8202 128.448 34.2638C128.541 31.3858 127.312 28.5845 125.004 26.4174C122.696 24.2503 119.48 22.8764 115.994 22.5692L115.278 22.506C107.504 22.1899 102.825 27.4493 102.655 33.8592Z" fill="#FFBE9D"/>
<path d="M119.128 55.2192C115.685 54.9693 112.41 53.8821 109.723 52.0964C109.723 52.0964 111.208 55.9209 118.705 56.0283L119.128 55.2192Z" fill="#699FC9"/>
<path d="M125.792 38.1642C125.765 38.393 125.629 38.6038 125.415 38.7515C125.201 38.8992 124.924 38.972 124.645 38.9544C124.509 38.9512 124.375 38.9256 124.251 38.879C124.127 38.8325 124.016 38.7659 123.924 38.6834C123.832 38.6008 123.762 38.5039 123.716 38.3984C123.671 38.293 123.652 38.1811 123.66 38.0694C123.687 37.8419 123.822 37.632 124.034 37.4845C124.247 37.337 124.522 37.2633 124.799 37.2792C124.935 37.2833 125.069 37.3095 125.193 37.3562C125.317 37.403 125.428 37.4695 125.52 37.5518C125.613 37.634 125.684 37.7305 125.731 37.8357C125.778 37.9408 125.798 38.0525 125.792 38.1642Z" fill="#263238"/>
<path d="M126.477 37.121C126.331 37.2222 125.592 36.6659 124.445 36.5648C123.298 36.4636 122.406 36.8619 122.298 36.7354C122.19 36.609 122.398 36.4826 122.798 36.2993C123.33 36.0626 123.937 35.9655 124.538 36.0211C125.134 36.0726 125.694 36.2785 126.139 36.609C126.462 36.8366 126.562 37.0768 126.477 37.121Z" fill="#263238"/>
<path d="M114.502 37.4689C114.475 37.6964 114.341 37.9062 114.128 38.0538C113.915 38.2013 113.641 38.2749 113.363 38.259C113.227 38.255 113.093 38.2288 112.969 38.182C112.846 38.1353 112.734 38.0688 112.642 37.9865C112.55 37.9042 112.478 37.8077 112.432 37.7026C112.385 37.5975 112.364 37.4858 112.37 37.374C112.396 37.1459 112.529 36.9351 112.743 36.7872C112.956 36.6393 113.231 36.5663 113.509 36.5839C113.646 36.5862 113.781 36.6112 113.906 36.6574C114.03 36.7036 114.143 36.77 114.235 36.8527C114.328 36.9353 114.399 37.0325 114.445 37.1384C114.491 37.2443 114.511 37.3567 114.502 37.4689Z" fill="#263238"/>
<path d="M115.211 36.2992C115.065 36.4003 114.326 35.844 113.179 35.7429C112.032 35.6418 111.132 36.04 111.024 35.9136C110.916 35.7872 111.132 35.6671 111.524 35.4774C112.059 35.2414 112.668 35.1444 113.271 35.1993C113.866 35.2537 114.426 35.4592 114.872 35.7872C115.188 36.04 115.28 36.2549 115.211 36.2992Z" fill="#263238"/>
<path d="M118.451 43.6384C119.074 43.5325 119.71 43.4943 120.345 43.5247C120.637 43.5247 120.922 43.5247 120.991 43.3477C121.051 43.1027 121.016 42.8485 120.891 42.6207L120.268 40.7243C119.406 38.0187 118.821 35.7999 118.951 35.7746C119.082 35.7493 119.89 37.9176 120.753 40.6295C120.953 41.2616 121.153 41.9317 121.338 42.5259C121.473 42.8343 121.473 43.172 121.338 43.4804C121.286 43.5621 121.212 43.6326 121.121 43.6864C121.03 43.7402 120.925 43.7758 120.814 43.7902C120.648 43.8086 120.48 43.8086 120.314 43.7902C119.688 43.8065 119.061 43.7555 118.451 43.6384Z" fill="#263238"/>
<path d="M115.018 43.9924C115.202 43.9924 115.072 45.0165 116.041 45.8383C117.011 46.66 118.35 46.66 118.35 46.8054C118.35 46.9508 118.035 46.9761 117.473 46.9382C116.743 46.8836 116.061 46.6168 115.549 46.1859C115.058 45.7762 114.781 45.2248 114.779 44.6498C114.741 44.22 114.91 43.9798 115.018 43.9924Z" fill="#263238"/>
<path d="M115.988 32.6456C115.842 32.8921 114.718 32.6456 113.356 32.6835C111.993 32.7215 110.869 32.8985 110.723 32.6835C110.662 32.5634 110.877 32.3422 111.347 32.1336C111.969 31.875 112.658 31.7428 113.356 31.748C114.051 31.7425 114.739 31.8702 115.364 32.1209C115.834 32.3043 116.057 32.5255 115.988 32.6456Z" fill="#263238"/>
<path d="M126.417 34.365C126.186 34.561 125.432 34.2702 124.485 34.1754C123.539 34.0806 122.715 34.1754 122.561 33.9225C122.492 33.8087 122.646 33.6064 123.023 33.4358C123.522 33.2418 124.08 33.172 124.627 33.2349C125.174 33.2978 125.686 33.4906 126.102 33.7898C126.44 34.0363 126.517 34.2702 126.417 34.365Z" fill="#263238"/>
<path d="M102.703 38.4423C102.579 38.3854 97.7535 36.7481 97.3609 40.9392C96.9684 45.1303 102.187 44.593 102.202 44.4729C102.218 44.3528 102.703 38.4423 102.703 38.4423Z" fill="#FFBE9D"/>
<path d="M100.763 42.785C100.763 42.785 100.671 42.8292 100.509 42.8798C100.296 42.9475 100.06 42.9475 99.8469 42.8798C99.5326 42.6872 99.2863 42.4293 99.1335 42.1327C98.9806 41.8361 98.9267 41.5114 98.9772 41.192C98.9987 40.8317 99.117 40.4799 99.3235 40.1616C99.3837 40.0345 99.4802 39.9211 99.6047 39.8309C99.7292 39.7407 99.8783 39.6764 100.039 39.6432C100.144 39.6271 100.252 39.6417 100.345 39.6845C100.438 39.7272 100.509 39.7954 100.547 39.8771C100.609 39.9972 100.547 40.0794 100.594 40.0857C100.64 40.092 100.709 40.0225 100.686 39.8518C100.665 39.7459 100.603 39.6484 100.509 39.5737C100.376 39.4768 100.202 39.4269 100.024 39.4346C99.8115 39.4559 99.6092 39.5217 99.4366 39.6258C99.2641 39.7298 99.127 39.8687 99.0388 40.0288C98.7855 40.3778 98.6426 40.7733 98.6231 41.1793C98.5608 41.5513 98.6343 41.9301 98.8344 42.2677C99.0344 42.6053 99.352 42.8865 99.7469 43.0757C99.8819 43.1176 100.027 43.1343 100.17 43.1244C100.314 43.1146 100.453 43.0785 100.578 43.0188C100.74 42.8861 100.778 42.7913 100.763 42.785Z" fill="#699FC9"/>
<path d="M132.466 26.5518C132.559 32.0261 124.192 33.7835 120.921 30.5216C119.381 29.0108 118.111 27.1586 115.918 26.3874C115.167 26.1479 114.366 26.034 113.561 26.0525C112.756 26.0709 111.963 26.2213 111.23 26.4949H111.184C108.998 27.2598 107.567 29.1815 107.059 31.0905C106.358 33.7518 106.658 36.1476 105.581 38.5687C105.47 38.9317 105.215 39.2541 104.857 39.4853C104.211 39.8077 103.318 39.4348 102.879 38.9354C102.206 38.0875 101.85 37.0964 101.855 36.0844C101.618 33.7968 101.937 31.4932 102.794 29.3079C103.664 27.1168 105.296 25.1828 107.49 23.7451C110.317 22.0315 113.843 21.2859 117.326 21.6654C120.798 22.0637 124.029 23.3485 126.563 25.3381C127.787 26.2135 128.726 27.3259 129.295 28.5746" fill="#263238"/>
<path d="M127.333 23.2203C127.572 23.1941 127.816 23.218 128.041 23.2898C128.667 23.4621 129.222 23.7753 129.642 24.1938C130.291 24.8024 130.671 25.5731 130.719 26.381C130.728 27.3777 130.287 28.3417 129.48 29.0865C128.705 29.8311 127.692 30.3829 126.555 30.6795C125.641 30.9202 124.683 31.0334 123.723 31.0146C123.082 31.005 122.443 30.95 121.814 30.8502C121.578 30.8316 121.348 30.7758 121.137 30.6859C121.137 30.629 122.13 30.8123 123.715 30.787C124.642 30.7723 125.561 30.6423 126.44 30.4014C127.502 30.1028 128.448 29.5769 129.18 28.8779C129.923 28.1932 130.339 27.3107 130.35 26.3936C130.326 25.645 130.005 24.9234 129.434 24.3392C129.053 23.9391 128.552 23.6275 127.979 23.4352C127.587 23.2709 127.333 23.2519 127.333 23.2203Z" fill="#455A64"/>
<path d="M124.099 21.0836C124.099 21.0836 124.292 21.0457 124.584 21.1847C124.78 21.2903 124.945 21.4301 125.067 21.594C125.189 21.7578 125.266 21.9419 125.292 22.1329C125.342 22.6952 125.152 23.2541 124.754 23.7133C124.333 24.2777 123.814 24.7888 123.214 25.2304C122.12 26.0406 120.797 26.6142 119.366 26.8993C118.786 27.0472 118.175 27.0945 117.572 27.0383C117.572 26.9751 118.25 26.9498 119.289 26.678C120.637 26.3397 121.88 25.7637 122.929 24.9902C123.506 24.5686 124.016 24.0886 124.446 23.5616C124.816 23.1595 125.016 22.6688 125.015 22.1645C125.002 21.998 124.95 21.8351 124.86 21.6854C124.77 21.5357 124.645 21.402 124.492 21.2922C124.253 21.1405 124.092 21.1089 124.099 21.0836Z" fill="#455A64"/>
<path d="M102.456 80.8145L104.85 66.4397L70.452 72.1289L39.1484 63.1968L30.6895 70.3399L64.0019 84.4303C66.9731 85.5957 70.3209 85.948 73.5539 85.4354L102.456 80.8145Z" fill="#FFBE9D"/>
<path d="M39.1487 63.1969C39.1487 63.1969 27.1799 58.4938 26.4102 58.3294C25.8175 58.203 16.7813 57.8111 12.6634 57.6341C12.3407 57.6318 12.0286 57.7288 11.7884 57.9059C11.5483 58.083 11.3975 58.3275 11.3657 58.5913C11.3339 58.8551 11.4233 59.1191 11.6164 59.3315C11.8096 59.5439 12.0924 59.6893 12.4094 59.7391H12.5634C14.8725 59.8971 19.9217 60.8453 19.9217 60.8453L17.6126 65.2703C17.5007 65.4895 17.4816 65.7333 17.5583 65.9625C17.6351 66.1917 17.8032 66.3932 18.0359 66.5346L25.0017 70.7636C25.9137 71.1042 26.919 71.2414 27.9162 71.1615C28.9133 71.0816 29.8673 70.7874 30.682 70.3085L33.7608 70.8268L39.1487 63.1969Z" fill="#FFBE9D"/>
<path d="M17.5898 65.5486C17.8054 66.3767 20.2068 68.0771 22.031 68.0771C22.4333 68.0826 22.8244 67.968 23.1317 67.7547C23.2775 67.6426 23.3795 67.4974 23.4247 67.3376C23.47 67.1778 23.4564 67.0105 23.3857 66.8571C23.2572 66.6682 23.075 66.5077 22.8546 66.3893L18.806 63.7786" fill="#FFBE9D"/>
<path d="M18.8059 63.7786C19.4092 64.0435 19.979 64.3569 20.507 64.7141L22.285 65.8077C22.6236 66.0227 22.9623 66.206 23.3318 66.4841C23.438 66.5651 23.5233 66.6628 23.5828 66.7714C23.6423 66.88 23.6747 66.9972 23.6781 67.1163C23.679 67.3461 23.5839 67.5692 23.4087 67.7484C23.2318 67.9121 23.0113 68.04 22.7643 68.1222C22.5173 68.2045 22.2505 68.2388 21.9848 68.2225C21.5246 68.2033 21.0729 68.1132 20.6532 67.957C19.9563 67.7105 19.3139 67.3708 18.7521 66.9519C18.3688 66.6742 18.0392 66.3502 17.7745 65.991C17.5975 65.7256 17.5898 65.5486 17.6129 65.5486C17.636 65.5486 17.6976 65.6939 17.9054 65.9215C18.2062 66.239 18.5525 66.5255 18.9368 66.7749C19.4979 67.1492 20.1229 67.4538 20.7918 67.6789C21.1754 67.811 21.5846 67.8859 22.0002 67.9001C22.2031 67.9127 22.4068 67.8874 22.5961 67.8261C22.7854 67.7648 22.9554 67.6691 23.0931 67.5461C23.2165 67.4308 23.2846 67.2825 23.2846 67.1289C23.2846 66.9753 23.2165 66.827 23.0931 66.7117C22.8007 66.4841 22.4081 66.2629 22.1002 66.0795L20.3453 64.8975C19.7848 64.5709 19.2687 64.1958 18.8059 63.7786Z" fill="#699FC9"/>
<path d="M27.2723 68.1024C27.2723 68.1024 27.0029 67.9886 26.7566 67.6725C26.4349 67.253 26.2543 66.771 26.2332 66.2755C26.2021 65.7837 26.3268 65.2937 26.5949 64.8532C26.8104 64.5182 27.0259 64.3601 27.0644 64.3854C26.8045 64.996 26.6592 65.6354 26.6334 66.2818C26.7311 66.9121 26.9466 67.5262 27.2723 68.1024Z" fill="#699FC9"/>
<path d="M22.4704 65.8329C22.6365 66.0899 22.9054 66.292 23.2319 66.4051C23.5583 66.5182 23.9223 66.5353 24.2623 66.4536C24.6024 66.3719 24.8977 66.1964 25.0985 65.9566C25.2993 65.7169 25.3932 65.4276 25.3644 65.1375C25.2959 64.7852 25.1403 64.4482 24.9074 64.1471C24.6744 63.846 24.3689 63.5871 24.0097 63.3865L21.0156 61.1614" fill="#FFBE9D"/>
<path d="M21.0156 61.136C21.4696 61.3537 21.8907 61.6147 22.2702 61.9135L23.5556 62.8175C24.1162 63.1818 24.6318 63.5904 25.095 64.0375C25.3333 64.293 25.4919 64.5925 25.5568 64.9099C25.6175 65.217 25.5468 65.532 25.3567 65.8012C25.209 66.0292 24.9865 66.2187 24.7144 66.3482C24.4424 66.4778 24.1317 66.5423 23.8173 66.5344C23.4053 66.5182 23.0155 66.3762 22.7244 66.1362C22.5242 65.9655 22.4781 65.8391 22.4934 65.8328C22.5088 65.8264 22.6166 65.9149 22.8244 66.0414C23.1154 66.2138 23.4662 66.3047 23.825 66.3006C24.0769 66.2936 24.3219 66.2313 24.5344 66.1201C24.747 66.0089 24.9193 65.8529 25.0334 65.6684C25.1634 65.4351 25.2079 65.1758 25.1614 64.9221C25.1149 64.6684 24.9795 64.4313 24.7717 64.2398C24.3292 63.8163 23.8481 63.4211 23.3324 63.0577L22.1009 62.0968C21.6877 61.8185 21.3225 61.4953 21.0156 61.136Z" fill="#699FC9"/>
<path d="M27.6022 60.7632C25.1872 61.237 22.8816 62.029 20.775 63.1084C20.6403 63.1624 20.5337 63.2544 20.4748 63.3676C20.4132 63.5319 20.5672 63.69 20.7288 63.7974C21.3921 64.1661 22.1995 64.3172 22.9917 64.221C23.7718 64.1189 24.5581 64.0514 25.347 64.0187C26.7171 64.0187 27.9794 64.5813 29.3032 64.8847C30.6271 65.1881 32.2281 65.1755 33.1517 64.3284" fill="#FFBE9D"/>
<path d="M33.1383 64.3284C33.1383 64.3284 33.1383 64.3917 33.0152 64.4802C32.8693 64.6096 32.7006 64.7204 32.5148 64.8089C31.8101 65.1239 30.9993 65.2416 30.2058 65.1439C29.0757 64.9839 27.9673 64.7341 26.8961 64.398C26.2762 64.2393 25.6285 64.1666 24.9795 64.183C24.3022 64.2147 23.6018 64.3537 22.8321 64.3917C22.0644 64.4655 21.2898 64.3131 20.6461 63.9618C20.4592 63.8639 20.3223 63.7133 20.2613 63.5383C20.231 63.4283 20.2531 63.313 20.3229 63.2159C20.3836 63.1406 20.4622 63.0762 20.5538 63.0262C20.8539 62.8682 21.131 62.7418 21.4158 62.609C22.4009 62.1464 23.4306 61.751 24.4946 61.4269C25.2162 61.2059 25.954 61.0222 26.7036 60.877C26.9758 60.8083 27.258 60.77 27.5426 60.7632C27.5426 60.8201 26.3804 61.0413 24.5947 61.6419C23.5517 61.9947 22.5385 62.4044 21.5621 62.8682C21.2927 63.0009 21.0002 63.1463 20.7385 63.2854C20.6153 63.3613 20.5769 63.4055 20.5999 63.4687C20.6449 63.5667 20.729 63.6491 20.8385 63.7026C21.4124 64.0027 22.0951 64.13 22.7705 64.0629C23.4863 64.025 24.2021 63.8923 24.9179 63.867C25.6121 63.8503 26.3046 63.9316 26.9653 64.1072C28.0136 64.4504 29.0949 64.7211 30.1981 64.9163C30.9342 65.0198 31.691 64.9451 32.3763 64.7014C32.6387 64.589 32.8931 64.4645 33.1383 64.3284Z" fill="#699FC9"/>
<path d="M70.9842 77.0849C70.3136 75.4513 70.252 73.6904 70.8071 72.0278C70.9226 72.0278 70.8071 73.1783 70.8071 74.5564C70.8071 75.9344 71.0996 77.066 70.9842 77.0849Z" fill="#699FC9"/>
<path d="M101.088 59.7707L91.328 68.8039C91.328 68.8039 86.1095 100 85.7401 102.453C85.3706 104.905 84.3777 112.731 84.3777 114.874C84.3777 117.017 82.2148 132.334 82.2148 132.334C82.2148 132.334 123.632 139.401 130.567 132.334L128.404 119.217L130.282 86.6808C130.282 86.6808 133.361 64.0945 118.891 58.8667C118.868 58.8541 109.724 63.3865 101.088 59.7707Z" fill="#699FC9"/>
<path d="M125.538 62.0527C125.538 62.0527 122.683 59.739 113.554 61.6797C103.94 63.7215 98.8681 71.1112 101.239 92.0224C103.209 109.28 111.514 111.758 111.514 111.758C111.514 111.758 106.965 85.7326 107.75 74.8472C108.736 61.0981 125.523 64.518 125.523 64.518C127.924 63.8985 125.538 62.0527 125.538 62.0527Z" fill="#263238"/>
<path d="M101.087 59.7708L92.6506 61.6798L73.6699 71.2251L79.0732 85.3218L90.2184 84.3167L101.087 59.7708Z" fill="#699FC9"/>
<path d="M90.104 69.5562C90.2195 69.5562 89.7346 74.6133 89.0341 80.8082C88.3337 87.0032 87.6718 92.0477 87.564 92.035C87.4563 92.0224 87.9335 86.9779 88.6339 80.7829C89.3343 74.588 89.9963 69.5498 90.104 69.5562Z" fill="#263238"/>
<path d="M128.743 113.369C128.743 113.369 126.049 120.481 116.528 108.736C107.006 96.9908 108.338 102.244 108.338 102.244L106.391 104.14C106.391 104.14 116.866 123.515 128.619 120.481L128.743 113.369Z" fill="#263238"/>
<path opacity="0.3" d="M89.7194 72.9443L82.2148 85.0371L88.4186 84.4809L89.7194 72.9443Z" fill="black"/>
<g opacity="0.3">
<path d="M86.2793 105.051C91.8025 109.988 98.3261 114.101 105.56 117.207C108.585 118.509 111.933 119.653 115.32 119.293C119.045 118.901 122.247 116.689 123.994 113.964C125.742 111.239 125.534 109.925 125.926 106.865C126.388 103.489 126.388 98.9823 126.604 95.9038C126.604 95.3602 126.65 94.728 126.65 94.1275C126.65 93.4772 126.905 92.8443 127.378 92.3227C127.851 91.8011 128.516 91.4187 129.275 91.2323C129.275 91.2323 126.965 90.3536 125.48 90.5306C123.994 90.7076 122.809 91.7507 122.016 92.8253C117.791 98.5462 119.63 106.935 111.572 110.525C108.908 111.643 105.87 112.01 102.928 111.568C96.3315 110.683 91.2823 107.143 86.4178 103.654" fill="black"/>
</g>
<path d="M95.3904 93.2109C97.4096 93.2109 99.0465 89.1694 99.0465 84.1839C99.0465 79.1985 97.4096 75.157 95.3904 75.157C93.3712 75.157 91.7344 79.1985 91.7344 84.1839C91.7344 89.1694 93.3712 93.2109 95.3904 93.2109Z" fill="#FAFAFA"/>
<path d="M97.3143 241.182L98.1532 256.043C98.1532 256.043 80.0423 261.733 79.8652 264.495L115.01 264.198L114.863 240.999L97.3143 241.182Z" fill="#699FC9"/>
<g opacity="0.6">
<path d="M109.036 254.703C109.374 254.786 109.663 254.967 109.849 255.213C110.035 255.459 110.105 255.752 110.045 256.037C109.957 256.319 109.741 256.562 109.442 256.717C109.143 256.872 108.783 256.927 108.436 256.872C108.079 256.781 107.774 256.586 107.579 256.325C107.383 256.063 107.31 255.752 107.374 255.449C107.504 255.164 107.763 254.931 108.097 254.798C108.431 254.665 108.814 254.643 109.167 254.735" fill="white"/>
</g>
<path opacity="0.6" d="M115.017 264.198V261.884L81.2581 263.022C81.2581 263.022 79.7187 263.591 79.888 264.495L115.017 264.198Z" fill="white"/>
<path d="M97.6065 255.904C97.6065 256.043 98.4763 256.1 99.3229 256.537C100.17 256.973 100.631 257.567 100.793 257.51C100.955 257.453 100.685 256.644 99.6385 256.119C98.5917 255.595 97.568 255.772 97.6065 255.904Z" fill="#263238"/>
<path d="M93.9448 257.187C93.9063 257.326 94.6529 257.56 95.2379 258.148C95.8229 258.736 96.0076 259.368 96.1769 259.362C96.3462 259.356 96.4463 258.553 95.6997 257.832C94.9531 257.112 93.9448 257.055 93.9448 257.187Z" fill="#263238"/>
<path d="M91.927 260.829C92.0809 260.829 92.3118 260.152 91.8577 259.381C91.4036 258.61 90.6031 258.313 90.5338 258.433C90.4646 258.553 90.9649 258.958 91.3035 259.596C91.6422 260.235 91.7192 260.816 91.927 260.829Z" fill="#263238"/>
<path d="M97.8753 252.497C97.9523 252.63 98.7374 252.427 99.7072 252.497C100.677 252.566 101.431 252.788 101.524 252.668C101.616 252.548 100.877 252.035 99.7303 252.004C98.5835 251.972 97.7907 252.396 97.8753 252.497Z" fill="#263238"/>
<path opacity="0.3" d="M97.5137 244.128L97.6599 246.776L114.932 246.498L114.924 244.109L97.5137 244.128Z" fill="black"/>
<path d="M97.7773 249.501C98.3541 249.631 98.9632 249.631 99.5399 249.501C100.171 249.4 100.786 249.239 101.372 249.02C101.72 248.889 102.056 248.739 102.38 248.571C102.572 248.477 102.748 248.362 102.904 248.23C103.012 248.127 103.077 247.999 103.09 247.863C103.102 247.728 103.061 247.593 102.973 247.478C102.885 247.378 102.769 247.297 102.635 247.242C102.501 247.187 102.353 247.16 102.203 247.162C101.979 247.16 101.755 247.188 101.541 247.244C101.167 247.319 100.804 247.424 100.456 247.56C99.8628 247.782 99.3171 248.081 98.8395 248.445C98.0313 249.077 97.7619 249.602 97.8235 249.633C97.8851 249.665 98.293 249.229 99.1166 248.71C99.5908 248.413 100.108 248.165 100.656 247.971C100.984 247.863 101.321 247.775 101.664 247.705C102.034 247.623 102.357 247.623 102.434 247.756C102.511 247.889 102.434 247.825 102.396 247.92C102.284 248.019 102.154 248.102 102.011 248.167C101.713 248.33 101.405 248.48 101.087 248.616C100.544 248.841 99.9774 249.025 99.3937 249.166C98.8461 249.246 98.306 249.358 97.7773 249.501Z" fill="#263238"/>
<path d="M98.0001 249.697C98.3323 249.284 98.4892 248.793 98.4465 248.3C98.4716 247.764 98.3831 247.23 98.1848 246.719C98.0711 246.416 97.9189 246.124 97.7307 245.847C97.6338 245.657 97.4787 245.491 97.2804 245.364C97.0822 245.238 96.8475 245.156 96.5993 245.126C96.4416 245.124 96.2869 245.162 96.1561 245.234C96.0253 245.306 95.9248 245.41 95.868 245.531C95.7779 245.7 95.7183 245.879 95.691 246.062C95.629 246.384 95.629 246.713 95.691 247.035C95.7945 247.577 96.0588 248.089 96.4607 248.527C97.1534 249.267 97.8769 249.431 97.8846 249.381C97.8923 249.33 97.3459 249.046 96.8071 248.331C96.4999 247.92 96.3055 247.458 96.2375 246.978C96.1919 246.699 96.1919 246.417 96.2375 246.138C96.2914 245.834 96.4299 245.581 96.5685 245.613C96.707 245.645 97.0457 245.841 97.1919 246.081C97.3689 246.331 97.5183 246.593 97.6383 246.865C97.8366 247.327 97.9557 247.81 97.9924 248.3C98.0848 249.147 97.9077 249.678 98.0001 249.697Z" fill="#263238"/>
<path d="M131.396 232.167L145.605 241.39C145.605 241.39 138.963 256.353 141.387 258.268L164.155 236.283L142.726 221.156L131.396 232.167Z" fill="#699FC9"/>
<g opacity="0.6">
<path d="M151.483 233.779C151.781 233.622 152.138 233.561 152.487 233.606C152.836 233.652 153.153 233.801 153.377 234.026C153.577 234.264 153.66 234.557 153.607 234.844C153.554 235.13 153.37 235.389 153.092 235.568C152.775 235.73 152.397 235.791 152.029 235.741C151.661 235.691 151.328 235.533 151.091 235.297C150.91 235.03 150.863 234.716 150.959 234.421C151.055 234.126 151.287 233.873 151.606 233.716" fill="white"/>
</g>
<path opacity="0.6" d="M164.155 236.276L162.023 234.765L140.926 256.448C140.926 256.448 140.433 257.788 141.388 258.262L164.155 236.276Z" fill="white"/>
<path d="M145.096 241.649C145.235 241.738 145.866 241.239 146.82 241.017C147.775 240.796 148.629 240.885 148.675 240.752C148.721 240.619 147.805 240.246 146.643 240.55C145.481 240.853 144.957 241.586 145.096 241.649Z" fill="#263238"/>
<path d="M143.873 244.766C143.973 244.88 144.643 244.57 145.613 244.589C146.582 244.608 147.237 244.918 147.337 244.804C147.437 244.69 146.775 244.109 145.62 244.102C144.466 244.096 143.75 244.678 143.873 244.766Z" fill="#263238"/>
<path d="M145.875 248.42C146.005 248.344 145.505 247.737 144.505 247.516C143.504 247.294 142.703 247.592 142.765 247.712C142.827 247.832 143.535 247.794 144.351 247.99C145.167 248.186 145.751 248.521 145.875 248.42Z" fill="#263238"/>
<path d="M142.148 239.247C142.31 239.285 142.641 238.672 143.318 238.097C143.996 237.522 144.719 237.218 144.665 237.079C144.611 236.94 143.672 237.079 142.887 237.762C142.102 238.445 141.956 239.228 142.148 239.247Z" fill="#263238"/>
<path opacity="0.3" d="M134.215 233.982L136.747 235.632L147.815 224.74L145.614 223.178L134.215 233.982Z" fill="black"/>
<path d="M139.324 237.345C139.37 237.383 139.894 237.016 140.456 236.239C140.783 235.781 141.041 235.293 141.225 234.785C141.331 234.484 141.413 234.177 141.472 233.868C141.504 233.686 141.504 233.5 141.472 233.318C141.449 233.183 141.373 233.058 141.257 232.961C141.14 232.865 140.989 232.801 140.825 232.781C140.681 232.773 140.537 232.792 140.404 232.837C140.27 232.882 140.151 232.951 140.055 233.04C139.909 233.179 139.787 233.334 139.694 233.501C139.524 233.787 139.383 234.083 139.27 234.386C139.09 234.902 139.01 235.437 139.032 235.973C138.992 236.465 139.137 236.955 139.447 237.376C139.547 237.376 139.394 236.826 139.447 235.973C139.507 235.187 139.769 234.419 140.217 233.723C140.386 233.438 140.587 233.242 140.771 233.267C140.956 233.293 140.864 233.267 140.902 233.394C140.924 233.53 140.924 233.668 140.902 233.805C140.853 234.094 140.786 234.381 140.702 234.665C140.554 235.151 140.351 235.625 140.094 236.08C139.796 236.484 139.539 236.907 139.324 237.345Z" fill="#263238"/>
<path d="M139.649 237.338C139.702 237.338 139.456 236.769 138.656 236.144C138.179 235.777 137.63 235.48 137.032 235.265C136.675 235.138 136.303 235.04 135.923 234.974C135.685 234.911 135.431 234.899 135.185 234.94C134.94 234.981 134.712 235.073 134.522 235.208C134.424 235.308 134.361 235.428 134.342 235.556C134.323 235.683 134.348 235.812 134.415 235.929C134.514 236.094 134.641 236.247 134.792 236.384C135.052 236.63 135.355 236.843 135.692 237.016C136.258 237.304 136.899 237.475 137.563 237.515C138.702 237.566 139.325 237.231 139.287 237.187C138.731 237.219 138.173 237.219 137.617 237.187C137.035 237.106 136.482 236.925 135.992 236.656C135.705 236.498 135.446 236.309 135.223 236.093C134.976 235.859 134.838 235.613 134.953 235.543C135.079 235.482 135.218 235.444 135.363 235.431C135.508 235.418 135.654 235.43 135.792 235.467C136.136 235.522 136.473 235.6 136.801 235.701C137.351 235.883 137.869 236.125 138.34 236.422C139.202 236.921 139.572 237.383 139.649 237.338Z" fill="#263238"/>
<path d="M91.9942 178.309C91.9942 178.309 92.9333 142.808 91.9942 142.808C91.0552 142.808 84.3896 139.686 84.3896 139.686L76.0615 192.437C76.0615 192.437 75.2918 198.361 84.2357 202.552C93.1796 206.743 133.058 235.859 133.058 235.859L146.573 222.338C146.573 222.338 120.319 199.865 109.628 192.437C101.161 186.653 91.9942 178.309 91.9942 178.309Z" fill="#263238"/>
<path d="M116.449 170.034L117.365 164.415C117.365 164.415 123.939 153.036 124.878 148.194C125.817 143.352 125.201 132.858 125.201 132.858H83.6758C83.6758 132.858 83.8528 171.362 88.8635 182.165C88.8635 182.165 91.4035 202.836 91.7807 204.568C92.5504 208.247 95.3444 245.885 95.3444 245.885L116.28 245.253C116.28 245.253 118.097 210.649 116.642 200.826C115.926 195.958 115.587 190.775 115.426 186.489C115.228 180.991 115.571 175.488 116.449 170.034Z" fill="#263238"/>
<path d="M84.8074 144.092C84.8153 144.146 84.8153 144.202 84.8074 144.256C84.8074 144.389 84.8074 144.553 84.8459 144.756C84.8459 145.217 84.9075 145.862 84.9537 146.652C85.0307 148.314 85.1846 150.723 85.3924 153.694C85.808 159.636 86.5854 167.835 87.7015 176.868C88.8176 185.901 90.0722 194.062 90.9573 199.973C91.3961 202.906 91.727 205.289 91.9964 206.971C92.1119 207.78 92.2042 208.412 92.2658 208.867C92.2658 209.069 92.312 209.234 92.3274 209.366C92.3428 209.499 92.3274 209.537 92.3274 209.537C92.3022 209.484 92.2841 209.429 92.2735 209.373L92.1811 208.88L91.8348 206.983C91.5577 205.308 91.1574 202.925 90.6648 199.998C89.7104 194.094 88.4404 185.933 87.2936 176.893C86.1467 167.854 85.4232 159.649 85.0768 153.7C84.8998 150.723 84.7997 148.314 84.769 146.652C84.769 145.836 84.769 145.198 84.7305 144.756V144.262C84.7489 144.204 84.7747 144.146 84.8074 144.092Z" fill="#455A64"/>
<path d="M115.386 189.662C115.446 189.845 115.487 190.031 115.51 190.219C115.571 190.611 115.663 191.148 115.779 191.824C115.987 193.228 116.248 195.257 116.487 197.766C116.98 202.792 117.349 209.777 117.488 217.439C117.626 225.1 117.488 232.098 117.118 237.13C116.964 239.658 116.764 241.681 116.603 243.084C116.51 243.761 116.433 244.298 116.379 244.696C116.363 244.886 116.33 245.074 116.279 245.259C116.259 245.07 116.259 244.879 116.279 244.69C116.318 244.292 116.364 243.754 116.425 243.072C116.541 241.668 116.695 239.633 116.818 237.117C117.072 232.091 117.18 225.106 117.064 217.445C116.949 209.783 116.603 202.804 116.179 197.785C115.979 195.257 115.764 193.24 115.602 191.837C115.517 191.161 115.448 190.623 115.402 190.225C115.378 190.038 115.373 189.85 115.386 189.662Z" fill="#455A64"/>
<path d="M123.554 61.2625C123.554 61.2625 130.35 62.748 131.797 71.0669C133.244 79.3859 130.566 81.7627 130.566 81.7627C130.566 81.7627 131.666 66.2753 123.223 64.164L123.554 61.5659" fill="#263238"/>
<path d="M77.2488 88.4317L42.166 87.8691L42.574 89.2662L77.0795 89.6834L77.2488 88.4317Z" fill="#263238"/>
<path d="M119.79 63.8732C118.474 63.6094 117.089 63.7094 115.849 64.1577C113.009 65.1375 107.806 67.9505 107.436 75.9407L106.836 88.8174L129.273 91.2322C129.273 91.2322 131.181 66.3638 119.79 63.8732Z" fill="#699FC9"/>
<path d="M78.4965 91.1564L106.975 98.1858L107.399 88.7795L124.44 90.815L123.485 106.113C123.388 108.296 122.421 110.392 120.731 112.079C119.041 113.766 116.723 114.951 114.133 115.449C111.156 116.021 108.025 115.649 105.367 114.406L75.1406 100.291L78.4965 91.1564Z" fill="#FFBE9D"/>
<path d="M129.272 91.2321C129.272 91.2321 129.272 91.15 129.272 91.0109C129.272 90.8718 129.272 90.6442 129.233 90.3788C129.233 89.8161 129.18 89.026 129.133 88.0146C129.056 85.9601 128.941 83.027 128.802 79.4048C128.733 77.5969 128.664 75.612 128.595 73.488C128.595 72.957 128.556 72.4134 128.533 71.8634C128.533 71.5979 128.471 71.3261 128.433 71.048C128.394 70.7698 128.317 70.5043 128.225 70.2325C127.658 68.4692 126.419 66.901 124.689 65.7569C122.96 64.6129 120.83 63.9528 118.612 63.8732C117.018 63.8606 115.454 64.2272 114.109 64.9289C112.719 65.6559 111.534 66.6169 110.63 67.7482C109.339 69.375 108.467 71.2014 108.067 73.115C107.673 74.9491 107.439 76.8039 107.366 78.6652C107.243 82.2937 107.128 85.7073 107.02 88.8111L106.874 88.6657L123.091 90.4862L127.648 91.0109L128.872 91.2005L127.694 91.0931L123.161 90.6379L106.804 88.9564H106.658V88.83C106.751 85.7199 106.82 82.3127 106.966 78.6779C107.028 76.7997 107.257 74.9278 107.651 73.0771C108.059 71.1197 108.952 69.252 110.276 67.5902C111.211 66.4195 112.439 65.4261 113.878 64.676C115.287 63.9399 116.927 63.5576 118.596 63.5761C120.16 63.6308 121.69 63.9658 123.08 64.5577C124.469 65.1495 125.684 65.9839 126.64 67.0023C127.533 67.9373 128.182 69.0131 128.548 70.163C128.633 70.4411 128.687 70.7256 128.756 71.01C128.825 71.2945 128.825 71.5726 128.856 71.8571C128.856 72.4071 128.856 72.957 128.902 73.4943C128.956 75.6436 129.002 77.6475 129.049 79.4744C129.126 83.1028 129.187 86.0423 129.233 88.0967C129.233 89.0892 129.233 89.873 129.272 90.423V91.0551C129.279 91.114 129.279 91.1733 129.272 91.2321Z" fill="#263238"/>
<path d="M79.0744 91.4344L72.2395 87.2813C70.9926 86.5227 69.0529 86.6492 67.5058 86.567C64.427 86.3394 59.4009 87.8313 59.2085 88.122L61.2713 89.4748L47.9863 89.1398C48.4422 89.8823 49.1345 90.5095 49.9897 90.9547C50.8448 91.4 51.8309 91.6466 52.8431 91.6683C52.8431 91.6683 53.2664 94.1337 57.1226 94.6015C57.1226 94.6015 58.1232 96.599 60.2707 97.1806C60.2707 97.1806 60.694 99.412 64.1192 99.2919L75.7647 100.36L79.0744 91.4344Z" fill="#FFBE9D"/>
<path d="M61.1377 92.054C59.7362 92.1542 58.326 92.1415 56.9275 92.0161C55.523 92.0081 54.1229 91.8853 52.748 91.6494C54.1474 91.5566 55.5541 91.5692 56.9506 91.6873C58.3571 91.7037 59.7587 91.8265 61.1377 92.054Z" fill="#699FC9"/>
<path d="M64.5106 94.6835C63.2949 94.8457 62.0615 94.9008 60.8315 94.8479C59.6015 94.9008 58.3681 94.8457 57.1523 94.6835C58.3676 94.5175 59.6015 94.4624 60.8315 94.5191C62.0615 94.4624 63.2954 94.5175 64.5106 94.6835Z" fill="#699FC9"/>
<path d="M68.1201 97.1615C66.9049 97.3274 65.671 97.3826 64.441 97.3258C63.2135 97.3828 61.9822 97.3276 60.7695 97.1615C61.9827 96.9991 63.2135 96.944 64.441 96.9971C65.671 96.9442 66.9044 96.9993 68.1201 97.1615Z" fill="#699FC9"/>
<path d="M108.86 102.958C108.298 102.251 107.873 101.477 107.598 100.664C107.185 99.8891 106.925 99.0654 106.828 98.2236C107.297 98.9674 107.671 99.7491 107.944 100.556C108.352 101.328 108.659 102.133 108.86 102.958Z" fill="#699FC9"/>
<path d="M110.883 102.048C110.093 101.446 109.373 100.784 108.736 100.069C107.995 99.4291 107.332 98.7304 106.758 97.9834C107.641 98.5145 108.42 99.1542 109.067 99.8798C109.798 100.526 110.41 101.256 110.883 102.048Z" fill="#699FC9"/>
</svg>
