<svg width="20" height="18" viewBox="0 0 20 18" fill="none" xmlns="http://www.w3.org/2000/svg">
<path opacity="0.5" d="M1.44621 8.33653C1.92039 6.31634 2.15748 5.30627 3.05759 4.70952C3.95771 4.11279 5.24421 4.11279 7.81725 4.11279H12.1828C14.7558 4.11279 16.0423 4.11279 16.9424 4.70952C17.8426 5.30627 18.0796 6.31634 18.5538 8.33653L19.364 11.7885C20.0308 14.6292 20.3642 16.0495 19.3922 16.9851C18.4202 17.9206 16.6112 17.9206 12.993 17.9206H7.00699C3.38885 17.9206 1.57979 17.9206 0.607779 16.9851C-0.364217 16.0495 -0.0308337 14.6292 0.635954 11.7885L1.44621 8.33653Z" fill="#699FC9"/>
<path d="M7.56867 3.23621C7.56867 2.16383 8.657 1.29449 9.99944 1.29449C11.3419 1.29449 12.4302 2.16383 12.4302 3.23621V4.0992C13.0417 4.09936 13.5774 4.1007 14.0506 4.11204C14.0507 4.10777 14.0507 4.10349 14.0507 4.0992V3.23621C14.0507 1.4489 12.2369 0 9.99944 0C7.76197 0 5.94815 1.4489 5.94815 3.23621V4.0992C5.94815 4.1035 5.9482 4.10779 5.94831 4.11207C6.42149 4.10071 6.95716 4.09938 7.56867 4.09922V3.23621Z" fill="#1C274C"/>
<path d="M7.70723 11.6641C8.04135 12.4192 8.94279 12.9586 9.99991 12.9586C11.057 12.9586 11.9585 12.4192 12.2926 11.6641C12.4417 11.3271 12.9046 11.1505 13.3265 11.2696C13.7485 11.3888 13.9696 11.7585 13.8204 12.0955C13.2647 13.3516 11.7651 14.2531 9.99991 14.2531C8.23473 14.2531 6.73512 13.3516 6.17935 12.0955C6.03023 11.7585 6.25136 11.3888 6.67328 11.2696C7.0952 11.1505 7.55811 11.3271 7.70723 11.6641Z" fill="#1C274C"/>
</svg>
