<svg width="24" height="24" viewBox="0 0 24 24" fill="none" xmlns="http://www.w3.org/2000/svg">
<path d="M3.77142 14.8702C3.77142 12.8407 3.77142 11.826 4.4173 11.1955C5.06317 10.5649 6.10268 10.5649 8.18171 10.5649H14.0621C16.1411 10.5649 17.1806 10.5649 17.8265 11.1955C18.4724 11.826 18.4724 12.8407 18.4724 14.8702C18.4724 16.8997 18.4724 17.9145 17.8265 18.545C17.1806 19.1755 16.1411 19.1755 14.0621 19.1755H8.18171C6.10268 19.1755 5.06317 19.1755 4.4173 18.545C3.77142 17.9145 3.77142 16.8997 3.77142 14.8702Z" stroke="#3C3C3C" stroke-width="2.81"/>
<path opacity="0.5" d="M11.1219 16.3052C11.9338 16.3052 12.592 15.6627 12.592 14.8702C12.592 14.0776 11.9338 13.4351 11.1219 13.4351C10.31 13.4351 9.65182 14.0776 9.65182 14.8702C9.65182 15.6627 10.31 16.3052 11.1219 16.3052Z" stroke="#3C3C3C" stroke-width="1.81"/>
<path opacity="0.5" d="M6.71161 10.5648V9.12975C6.71161 6.752 8.68616 4.82446 11.1219 4.82446C13.5576 4.82446 15.5322 6.752 15.5322 9.12975V10.5648" stroke="#3C3C3C" stroke-width="1.81" stroke-linecap="round"/>
</svg>
