<svg width="18" height="20" viewBox="0 0 18 20" fill="none" xmlns="http://www.w3.org/2000/svg">
<path d="M11.5865 7.53288C11.724 7.37919 11.9102 7.29287 12.1045 7.29287C12.2987 7.29287 12.485 7.37919 12.6224 7.53288C12.7602 7.68862 12.8376 7.89902 12.8376 8.11829C12.8376 8.33757 12.7602 8.54797 12.6224 8.70371L9.44646 12.26C9.30904 12.4137 9.12276 12.5 8.92854 12.5C8.73432 12.5 8.54804 12.4137 8.41062 12.26L5.2347 8.70371C5.09916 8.54662 5.02341 8.33673 5.02341 8.1183C5.02341 7.89987 5.09916 7.68997 5.2347 7.53288C5.37212 7.37919 5.5584 7.29287 5.75262 7.29287C5.94684 7.29287 6.13312 7.37919 6.27054 7.53288L8.92854 10.5092L11.5865 7.53288Z" fill="white"/>
</svg>
