<svg width="20" height="18" viewBox="0 0 20 18" fill="none" xmlns="http://www.w3.org/2000/svg">
<path d="M0.0014133 7.16649C0.00682426 7.0292 0.0112816 6.88602 0.0158972 6.73843C0.0615747 5.28265 0.124164 3.28893 1.17457 2.02594C2.27156 0.707025 3.56456 0.116218 4.91418 0.317188C6.08646 0.491847 7.23889 1.23794 8.34082 2.53475C10.5377 0.474577 13.4421 0.0311605 15.9444 1.20307C16.3289 1.38313 16.5498 1.72982 16.6203 2.12941C15.9726 1.83788 13.4492 4.02923 10.7982 7.21644C8.25945 10.2688 6.48066 13.1802 6.54762 14.1053C6.25477 13.9912 6.00553 13.7307 5.87073 13.3147C4.89616 10.3069 5.26441 6.81593 6.97695 4.17495C6.19879 3.26496 5.40531 2.72663 4.67704 2.61813C3.9179 2.50509 3.21836 2.84766 2.53812 3.66542C2.0226 4.28522 1.97653 5.75367 1.9429 6.82588C1.93833 6.97122 1.93387 7.11244 1.9287 7.24835V14.2317C1.9287 14.8719 1.49698 15.3909 0.964519 15.3909C0.432055 15.3909 0.000339496 14.8719 0.000339496 14.2317V7.22127L0.0014133 7.16649Z" fill="#30373B" stroke="black" stroke-width="0.000688406"/>
<path d="M10.7985 7.21797C8.01377 10.566 6.14299 13.745 6.6199 14.3184C7.09686 14.8918 9.74095 12.6425 12.5256 9.29451C15.3103 5.94647 17.1812 2.76754 16.7042 2.1941C16.2272 1.62065 13.5832 3.86993 10.7985 7.21797ZM4.87147 6.41438C4.94785 4.74389 5.53451 3.1661 6.51892 1.98365C7.50242 0.800078 8.81474 0.0947279 10.2042 0.0028925C10.7009 -0.0302119 11.1655 0.280835 11.4067 0.794575C10.0182 1.16896 8.69851 2.00547 7.61763 3.30501C6.53682 4.60445 5.84114 6.19092 5.52979 7.86016C5.10257 7.57011 4.8439 7.01174 4.87147 6.41438Z" fill="black" stroke="black" stroke-width="0.000688406"/>
<path d="M14.3105 17.7407L12.2145 15.2206C12.0155 14.9814 12.0155 14.5935 12.2145 14.3542C12.4135 14.1149 12.7361 14.1149 12.9351 14.3542L15.0311 16.8743C15.2301 17.1135 15.2301 17.5015 15.0311 17.7407C14.9317 17.8604 14.8012 17.9202 14.6708 17.9202C14.5404 17.9202 14.41 17.8604 14.3105 17.7407ZM15.3585 10.875L13.9202 9.14578C13.7212 8.90654 13.7212 8.51861 13.9202 8.27937C14.1192 8.04008 14.4419 8.04008 14.6408 8.27937L16.0792 10.0086C16.2781 10.2479 16.2781 10.6358 16.0792 10.875C15.9797 10.9947 15.8493 11.0545 15.7188 11.0545C15.5884 11.0545 15.458 10.9947 15.3585 10.875ZM18.1641 10.3068L14.3105 5.67364C14.1115 5.4344 14.1115 5.04648 14.3105 4.80724C14.5095 4.56795 14.8322 4.56795 15.0311 4.80724L18.8847 9.44037C19.0837 9.67961 19.0837 10.0675 18.8847 10.3068C18.7852 10.4264 18.6548 10.4862 18.5244 10.4862C18.394 10.4862 18.2636 10.4264 18.1641 10.3068ZM12.9647 11.6658L10.8687 9.14578C10.6697 8.90654 10.6697 8.51861 10.8687 8.27937C11.0677 8.04008 11.3903 8.04008 11.5893 8.27937L13.6853 10.7994C13.8843 11.0387 13.8843 11.4266 13.6853 11.6658C13.5859 11.7855 13.4554 11.8453 13.325 11.8453C13.1946 11.8453 13.0642 11.7855 12.9647 11.6658ZM19.1297 15.4458L17.0337 12.9258C16.8347 12.6866 16.8347 12.2986 17.0337 12.0594C17.2327 11.8201 17.5553 11.8201 17.7543 12.0594L19.8504 14.5794C20.0494 14.8187 20.0494 15.2066 19.8504 15.4458C19.7509 15.5655 19.6205 15.6253 19.4901 15.6253C19.3596 15.6253 19.2293 15.5655 19.1297 15.4458ZM17.6592 17.5175L14.3105 13.4913C14.1115 13.2521 14.1115 12.8642 14.3105 12.6249C14.5095 12.3857 14.8322 12.3857 15.0311 12.6249L18.3799 16.6511C18.5789 16.8904 18.5789 17.2783 18.3799 17.5175C18.2804 17.6372 18.15 17.697 18.0195 17.697C17.8891 17.697 17.7587 17.6372 17.6592 17.5175ZM11.6193 13.5745C11.7497 13.5745 11.8801 13.5147 11.9796 13.3951C12.1786 13.1559 12.1786 12.7679 11.9796 12.5287L10.5413 10.7994C10.3423 10.5601 10.0197 10.5601 9.8207 10.7994C9.62167 11.0387 9.62167 11.4266 9.8207 11.6658L11.259 13.3951C11.3063 13.4521 11.3624 13.4973 11.4243 13.5281C11.4861 13.5589 11.5524 13.5746 11.6193 13.5745Z" fill="#699FC9" stroke="black" stroke-width="0.000688406"/>
</svg>
