<svg width="16" height="324" viewBox="0 0 16 324" fill="none" xmlns="http://www.w3.org/2000/svg">
<path d="M8 128C3.58172 128 0 131.582 0 136C0 140.418 3.58172 144 8 144C12.4183 144 16 140.418 16 136C16 131.582 12.4183 128 8 128ZM6.5 8L6.5 136H9.5L9.5 8H6.5Z" fill="#699FC9"/>
<path d="M8 0C3.58172 0 0 3.58172 0 8C0 12.4183 3.58172 16 8 16C12.4183 16 16 12.4183 16 8C16 3.58172 12.4183 0 8 0ZM8 308C3.58172 308 0 311.582 0 316C0 320.418 3.58172 324 8 324C12.4183 324 16 320.418 16 316C16 311.582 12.4183 308 8 308ZM6.5 8L6.5 316H9.5L9.5 8H6.5Z" fill="#699FC9"/>
</svg>
