<svg width="18" height="17" viewBox="0 0 18 17" fill="none" xmlns="http://www.w3.org/2000/svg">
<path d="M14.2133 0.103466C14.3389 -0.0262647 14.5492 -0.0346345 14.685 0.0853317C14.8208 0.205298 14.8295 0.406171 14.7039 0.535902L11.9706 3.36208L11.9662 3.36766C11.6318 3.75406 11.4026 4.11117 11.3004 4.43759C11.2099 4.72635 11.223 4.9886 11.3573 5.21737C11.4289 5.34013 11.4055 5.49078 11.3106 5.58983L10.0125 6.93177C9.88552 6.79925 9.78477 6.69184 9.7176 6.62209C9.68694 6.58303 9.65189 6.54537 9.61539 6.5091L9.61247 6.51189C9.59495 6.49376 9.57597 6.47702 9.55698 6.46028L10.6667 5.31223C10.5367 4.98023 10.5382 4.62731 10.6579 4.25206C10.7864 3.84474 11.0595 3.41091 11.4522 2.95894C11.461 2.94778 11.4683 2.93662 11.4785 2.92686L14.2104 0.100676L14.2133 0.103466ZM8.34216 7.67389C8.21951 7.54276 8.23119 7.3405 8.36844 7.22332C8.50569 7.10614 8.71741 7.1173 8.84006 7.24843C10.214 8.71871 14.4616 13.0696 15.6384 14.6961C17.1905 16.7955 14.7872 17.4567 13.9899 16.6923C11.9983 14.8523 7.76979 10.1611 5.91104 8.17189C5.2423 8.44251 4.59255 8.48436 3.93987 8.30581C3.23755 8.1147 2.54983 7.66691 1.85189 6.9792L1.84312 6.97083C1.31164 6.43517 0.895501 5.90648 0.594714 5.38337C0.286627 4.84492 0.0982701 4.31205 0.0311042 3.78336C-0.0404421 3.21422 0.0150428 2.68413 0.175657 2.21403C0.364014 1.66163 0.698383 1.19432 1.13642 0.846977C1.57738 0.498239 2.11909 0.272256 2.72358 0.202508C3.22587 0.145315 3.77341 0.194138 4.33995 0.371298C5.12403 0.615415 6.03808 1.22222 6.79588 2.00061C7.35511 2.57393 7.83403 3.24491 8.11876 3.93541C8.41516 4.65521 8.50569 5.40011 8.26769 6.09759C8.12752 6.5105 7.87346 6.89829 7.47922 7.24843C7.34343 7.36839 7.13317 7.36002 7.0076 7.23169C6.88203 7.10196 6.89079 6.90108 7.02512 6.78112C7.33029 6.5091 7.52595 6.21198 7.63254 5.89811C7.81651 5.35826 7.73913 4.75983 7.49674 4.17116C7.24268 3.55459 6.81194 2.95197 6.30674 2.43444C5.6234 1.73417 4.81303 1.19153 4.12969 0.978103C3.66099 0.833028 3.21273 0.791179 2.80243 0.838608C2.32643 0.894406 1.90007 1.06878 1.55986 1.34079C1.21819 1.61281 0.956826 1.97968 0.806433 2.4163C0.676481 2.79713 0.631217 3.23514 0.691083 3.70803C0.748028 4.15442 0.910102 4.61057 1.17585 5.07648C1.45473 5.55495 1.83728 6.039 2.32935 6.53421L2.33227 6.5384C2.94844 7.1452 3.53979 7.53579 4.12531 7.69481C4.67869 7.84547 5.2423 7.78688 5.83074 7.5065C5.96507 7.43256 6.13882 7.45767 6.24541 7.57206C8.05889 9.51244 12.4699 14.3962 14.4236 16.2054C15.2719 16.536 15.7421 16.1287 15.3362 15.4103C14.7039 14.2888 9.27226 8.67268 8.34216 7.67389ZM6.58124 10.4791L2.32351 14.8802C2.31475 14.8886 2.30745 14.897 2.29722 14.9053C1.67521 15.547 2.77615 16.4816 3.45949 15.8567L7.59457 11.5812L8.03845 12.0624L3.93549 16.3045C3.92673 16.3142 3.91797 16.3226 3.90629 16.3324C3.66099 16.5291 3.41422 16.6574 3.16454 16.7104C2.90756 16.7662 2.65496 16.7411 2.41257 16.6323C2.37169 16.617 2.33373 16.5974 2.30014 16.5681L1.71171 16.0478C1.70295 16.0394 1.69419 16.0325 1.68543 16.0227C1.45765 15.7716 1.3496 15.5038 1.3788 15.2206C1.40655 14.9528 1.55548 14.6919 1.83728 14.4408L6.1359 9.99649L6.58124 10.4791ZM11.0434 8.01565L11.296 7.7548C11.4216 7.62507 11.6333 7.6167 11.7676 7.73666C11.902 7.85663 11.9122 8.0575 11.7866 8.18723L11.4946 8.48854L11.0434 8.01565ZM15.2515 1.03669C15.3771 0.906961 15.5873 0.898591 15.7231 1.01856C15.8589 1.13852 15.8677 1.3394 15.7421 1.46913L13.346 3.94796C13.2204 4.07769 13.0102 4.08606 12.8744 3.9661C12.7386 3.84613 12.7298 3.64526 12.8554 3.51553L15.2515 1.03669ZM16.2882 1.95318C16.4138 1.82345 16.624 1.81508 16.7598 1.93504C16.8956 2.05501 16.9044 2.25588 16.7788 2.38561L14.3842 4.86305C14.2586 4.99279 14.0483 5.00116 13.9126 4.88119C13.7768 4.76122 13.768 4.56035 13.8936 4.43062L16.2882 1.95318ZM17.3628 2.90593C17.4884 2.7762 17.6987 2.76783 17.8345 2.8878C17.9702 3.00776 17.979 3.21003 17.8534 3.33837L15.1201 6.16594C15.1099 6.17571 15.0996 6.18408 15.0894 6.19384C14.4674 6.76577 13.8731 7.09638 13.3051 7.18984C12.689 7.29167 12.1239 7.12428 11.6055 6.69184C11.4668 6.57606 11.4537 6.37379 11.5734 6.24267C11.6946 6.11014 11.9063 6.09759 12.0436 6.21198C12.4013 6.5105 12.7839 6.62767 13.1883 6.55932C13.6234 6.48818 14.1024 6.21337 14.6251 5.73211L14.628 5.72932L17.3599 2.90454L17.3628 2.90593Z" fill="black" stroke="black" stroke-width="0.000695629"/>
</svg>
