<svg width="19" height="19" viewBox="0 0 19 19" fill="none" xmlns="http://www.w3.org/2000/svg">
<path d="M15.9465 4.22551H14.7745M14.7745 4.22551H13.6024M14.7745 4.22551V3.05341M14.7745 4.22551V5.3976M9.50001 1.88131H1.88137C1.32885 1.88131 1.05257 1.88131 0.880931 2.05296C0.709277 2.22461 0.709277 2.50088 0.709277 3.05341V5.35637C0.709277 5.66344 0.709277 5.81697 0.778618 5.94654C0.847971 6.07611 0.975718 6.16127 1.23121 6.33161L4.77505 8.69413C5.79704 9.37547 6.30804 9.7162 6.58535 10.2345C6.86279 10.7527 6.86279 11.3669 6.86279 12.5951V18.2907L10.9651 16.2395V12.5951C10.9651 11.3669 10.9651 10.7527 11.2426 10.2345C11.3994 9.94124 11.6311 9.70483 11.9879 9.43138M18.2907 4.22551C18.2907 6.1675 16.7165 7.7418 14.7745 7.7418C12.8324 7.7418 11.2582 6.1675 11.2582 4.22551C11.2582 2.28352 12.8324 0.709213 14.7745 0.709213C16.7165 0.709213 18.2907 2.28352 18.2907 4.22551Z" stroke="#699FC9" stroke-width="1.35211" stroke-linecap="round" stroke-linejoin="round"/>
</svg>
