<svg width="22" height="22" viewBox="0 0 22 22" fill="none" xmlns="http://www.w3.org/2000/svg">
<path d="M3.37143 13.7124L5.13653 10.9965L3.37751 8.2387L4.72367 7.81548L6.90449 9.77039C7.14863 9.73858 7.68875 9.67245 7.98472 9.67245L11.753 9.67245L9.75089 3.81844L11.7398 3.81844L15.8462 9.67209L19.3728 9.67209C19.791 9.67209 20.2271 9.88728 20.6339 10.2941C20.9113 10.5714 21.0814 10.8438 21.0886 10.8553L21.1708 10.9875L21.0972 11.1248C20.7108 11.8465 19.9851 12.3705 19.3724 12.3705L15.8294 12.3705L11.7398 18.2002H9.75089L11.7448 12.3694L8.22492 12.3698C7.85496 12.3694 7.09573 12.3387 6.81477 12.3265L4.72153 14.1117L3.37107 13.7113L3.37143 13.7124ZM4.21037 8.54254L5.77816 10.9997L4.21681 13.4018L4.59463 13.5136L6.62711 11.78L6.73327 11.7846C6.744 11.7854 7.78812 11.8322 8.22492 11.8322L12.499 11.8318L10.5051 17.6626L11.4592 17.6622L15.5491 11.8322L19.3728 11.8325C19.7045 11.8325 20.2103 11.5276 20.5406 11.0108C20.4748 10.9221 20.3762 10.7991 20.2532 10.6762C20.0412 10.4642 19.717 10.2122 19.3728 10.2118L15.5659 10.2118L11.4592 4.35784L10.5051 4.35748L12.5072 10.2115L7.98472 10.2115C7.63977 10.2111 6.86231 10.3202 6.85445 10.3209L6.73041 10.3384L4.59213 8.42172L4.21037 8.54182L4.21037 8.54254Z" fill="white" stroke="white" stroke-width="0.376471"/>
</svg>
