<svg width="24" height="23" viewBox="0 0 24 23" fill="none" xmlns="http://www.w3.org/2000/svg">
<path d="M6.43067 17.8341V14.667" stroke="#699FC9" stroke-width="1.876" stroke-linecap="round"/>
<path d="M11.9193 17.8342V11.5" stroke="#699FC9" stroke-width="1.876" stroke-linecap="round"/>
<path d="M17.4069 17.8343V8.33302" stroke="#699FC9" stroke-width="1.876" stroke-linecap="round"/>
<path d="M22.8948 11.5C22.8948 16.4765 22.8948 18.9649 21.2874 20.5109C19.6801 22.0569 17.0929 22.0569 11.9189 22.0569C6.74485 22.0569 4.15782 22.0569 2.55045 20.5109C0.943074 18.9649 0.943074 16.4765 0.943074 11.5C0.943074 6.52341 0.943074 4.03512 2.55045 2.4891C4.15782 0.943074 6.74485 0.943074 11.9189 0.943074C17.0929 0.943074 19.6801 0.943074 21.2874 2.4891C22.3562 3.51707 22.7143 4.96162 22.8343 7.27723" stroke="#699FC9" stroke-width="1.876" stroke-linecap="round"/>
</svg>
