<svg width="20" height="20" viewBox="0 0 20 20" fill="none" xmlns="http://www.w3.org/2000/svg">
<path d="M12.9166 11.6666H12.2583L12.025 11.4416C12.5458 10.8366 12.9264 10.124 13.1396 9.35466C13.3528 8.58536 13.3934 7.77844 13.2583 6.99165C12.8666 4.67498 10.9333 2.82498 8.59998 2.54165C7.77966 2.43787 6.94647 2.52312 6.16417 2.79089C5.38186 3.05865 4.67118 3.50183 4.08651 4.08651C3.50183 4.67118 3.05865 5.38186 2.79089 6.16417C2.52312 6.94647 2.43787 7.77966 2.54165 8.59998C2.82498 10.9333 4.67498 12.8666 6.99165 13.2583C7.77844 13.3934 8.58536 13.3528 9.35466 13.1396C10.124 12.9264 10.8366 12.5458 11.4416 12.025L11.6666 12.2583V12.9166L15.2083 16.4583C15.55 16.8 16.1083 16.8 16.45 16.4583C16.7916 16.1166 16.7916 15.5583 16.45 15.2166L12.9166 11.6666ZM7.91665 11.6666C5.84165 11.6666 4.16665 9.99165 4.16665 7.91665C4.16665 5.84165 5.84165 4.16665 7.91665 4.16665C9.99165 4.16665 11.6666 5.84165 11.6666 7.91665C11.6666 9.99165 9.99165 11.6666 7.91665 11.6666Z" fill="#DADADA"/>
</svg>
