<svg width="20" height="20" viewBox="0 0 20 20" fill="none" xmlns="http://www.w3.org/2000/svg">
<path d="M13.66 8.41343H11.4378V5.81934C11.4375 4.71879 10.5461 3.82739 9.4456 3.82715H6.33999C5.23944 3.82739 4.34804 4.71879 4.34778 5.81934V16.1728H5.24016V5.81934C5.2404 5.51431 5.36266 5.24218 5.56238 5.04173C5.76285 4.84198 6.03496 4.71975 6.33999 4.71949H9.4456C9.75062 4.71973 10.0228 4.84198 10.2232 5.04173C10.4229 5.24218 10.5452 5.51431 10.5454 5.81934V16.1728H11.4378V9.30579H13.66C13.965 9.30603 14.2372 9.42828 14.4376 9.62803C14.6374 9.82848 14.7596 10.1006 14.7599 10.4056V16.1728H15.6522V10.4056C15.652 9.30507 14.7606 8.41367 13.66 8.41343Z" fill="black" stroke="black" stroke-width="0.00058642"/>
<path d="M7.27833 7.00049H6.51135V8.30199H7.27833V7.00049Z" fill="black" stroke="black" stroke-width="0.00058642"/>
<path d="M9.17493 7.00049H8.40796V8.30199H9.17493V7.00049Z" fill="black" stroke="black" stroke-width="0.00058642"/>
<path d="M7.27833 9.9751H6.51135V11.2766H7.27833V9.9751Z" fill="black" stroke="black" stroke-width="0.00058642"/>
<path d="M9.17493 9.9751H8.40796V11.2766H9.17493V9.9751Z" fill="black" stroke="black" stroke-width="0.00058642"/>
<path d="M7.27833 12.9502H6.51135V14.2517H7.27833V12.9502Z" fill="black" stroke="black" stroke-width="0.00058642"/>
<path d="M9.17493 12.9502H8.40796V14.2517H9.17493V12.9502Z" fill="black" stroke="black" stroke-width="0.00058642"/>
<path d="M13.3584 10.812H12.5914V12.1135H13.3584V10.812Z" fill="black" stroke="black" stroke-width="0.00058642"/>
<path d="M13.3584 13.6626H12.5914V14.9641H13.3584V13.6626Z" fill="black" stroke="black" stroke-width="0.00058642"/>
</svg>
