<svg width="16" height="9" viewBox="0 0 16 9" fill="none" xmlns="http://www.w3.org/2000/svg">
<path d="M2.1447 4.50018C2.1447 3.64333 1.48492 2.91436 0.56402 2.6442V1.61372C0.56402 1.24633 0.564019 1.06264 0.650159 0.922317C0.725937 0.798887 0.846843 0.698535 0.995554 0.635639C1.16462 0.564144 1.38593 0.564144 1.82857 0.564144H13.5256C13.9683 0.564144 14.1896 0.564144 14.3586 0.635639C14.5074 0.698535 14.6282 0.798887 14.704 0.922317C14.7902 1.06264 14.7902 1.24633 14.7902 1.61372V2.64408C13.8693 2.91423 13.2095 3.64333 13.2095 4.50018C13.2095 5.35702 13.8693 6.08588 14.7902 6.35602V7.38637C14.7902 7.75379 14.7902 7.93746 14.704 8.07778C14.6282 8.20123 14.5074 8.30153 14.3586 8.36444C14.1896 8.43595 13.9683 8.43594 13.5256 8.43594H1.82857C1.38593 8.43594 1.16462 8.43595 0.995554 8.36444C0.846843 8.30153 0.725937 8.20123 0.650159 8.07778C0.564019 7.93746 0.56402 7.75379 0.56402 7.38637V6.35615C1.48492 6.08602 2.1447 5.35702 2.1447 4.50018Z" stroke="black" stroke-opacity="0.96" stroke-width="1.11" stroke-linecap="round" stroke-linejoin="round"/>
</svg>
