<svg width="22" height="22" viewBox="0 0 22 22" fill="none" xmlns="http://www.w3.org/2000/svg">
<path d="M6.41668 17.5476H15.5833C16.1043 17.5476 16.6039 17.3407 16.9723 16.9723C17.3407 16.6039 17.5476 16.1043 17.5476 15.5833V9.03573C17.5476 8.51476 17.3407 8.01514 16.9723 7.64677C16.6039 7.27839 16.1043 7.07144 15.5833 7.07144H14.2738V5.76192C14.2738 5.41461 14.1359 5.08153 13.8903 4.83594C13.6447 4.59036 13.3116 4.45239 12.9643 4.45239H9.03573C8.68842 4.45239 8.35534 4.59036 8.10975 4.83594C7.86417 5.08153 7.7262 5.41461 7.7262 5.76192V7.07144H6.41668C5.89572 7.07144 5.39609 7.27839 5.02772 7.64677C4.65934 8.01514 4.45239 8.51476 4.45239 9.03573V15.5833C4.45239 16.1043 4.65934 16.6039 5.02772 16.9723C5.39609 17.3407 5.89572 17.5476 6.41668 17.5476ZM14.9286 8.38096H15.5833C15.757 8.38096 15.9235 8.44995 16.0463 8.57274C16.1691 8.69553 16.2381 8.86207 16.2381 9.03573V15.5833C16.2381 15.757 16.1691 15.9235 16.0463 16.0463C15.9235 16.1691 15.757 16.2381 15.5833 16.2381H14.9286V8.38096ZM9.03573 5.76192H12.9643V7.07144H9.03573V5.76192ZM8.38096 8.38096H13.6191V16.2381H8.38096V8.38096ZM5.76192 9.03573C5.76192 8.86207 5.8309 8.69553 5.95369 8.57274C6.07648 8.44995 6.24302 8.38096 6.41668 8.38096H7.07144V16.2381H6.41668C6.24302 16.2381 6.07648 16.1691 5.95369 16.0463C5.8309 15.9235 5.76192 15.757 5.76192 15.5833V9.03573Z" fill="#A5A5A5"/>
</svg>
