<svg width="22" height="22" viewBox="0 0 22 22" fill="none" xmlns="http://www.w3.org/2000/svg">
<path d="M16.1639 6.26507C16.0479 6.13877 15.8513 6.13036 15.7249 6.24631C15.5986 6.36238 15.5902 6.55889 15.7062 6.6853C16.7219 7.79172 17.2813 9.22882 17.2813 10.7319C17.2813 14.0323 14.5962 16.7174 11.2958 16.7174C7.99532 16.7174 5.3102 14.0323 5.3102 10.7319C5.3102 7.43144 7.99528 4.74636 11.2957 4.74636C12.5468 4.74636 13.7451 5.12826 14.7609 5.8508C14.9007 5.95036 15.0947 5.91746 15.1941 5.77768C15.2935 5.63786 15.2608 5.4439 15.121 5.3445C13.9994 4.5467 12.6766 4.125 11.2957 4.125C7.65271 4.125 4.68884 7.08887 4.68884 10.7319C4.68884 14.3749 7.65271 17.3387 11.2957 17.3387C14.9387 17.3387 17.9026 14.3749 17.9026 10.7319C17.9026 9.0728 17.2851 7.48643 16.1639 6.26507Z" fill="#A5A5A5" stroke="#A5A5A5" stroke-width="0.2"/>
<path d="M11.2955 6.44458C8.93151 6.44458 7.0083 8.36783 7.0083 10.7318C7.0083 11.4855 7.20675 12.2269 7.58215 12.8758C7.66806 13.0243 7.8581 13.075 8.00664 12.9891C8.15514 12.9031 8.20591 12.7131 8.11996 12.5646C7.79916 12.0102 7.62958 11.3764 7.62958 10.7318C7.62958 8.7104 9.27408 7.0659 11.2955 7.0659C13.3168 7.0659 14.9613 8.7104 14.9613 10.7318C14.9613 12.7531 13.3169 14.3976 11.2955 14.3976C10.392 14.3976 9.52407 14.0662 8.85153 13.4642C8.7236 13.3496 8.52724 13.3606 8.41285 13.4884C8.29841 13.6163 8.3093 13.8127 8.43711 13.9271C9.2237 14.6312 10.2389 15.019 11.2955 15.019C13.6594 15.019 15.5826 13.0957 15.5826 10.7318C15.5826 8.36783 13.6595 6.44458 11.2955 6.44458Z" fill="#A5A5A5" stroke="#A5A5A5" stroke-width="0.2"/>
<path d="M4.33682 4.78788C4.16522 4.78788 4.02614 4.92692 4.02614 5.09856V7.41821C4.02614 7.61236 3.86818 7.77031 3.67403 7.77031H3.32193V5.09852C3.32193 4.92692 3.18288 4.78784 3.01125 4.78784C2.83965 4.78784 2.70057 4.92689 2.70057 5.09852V7.77027H2.34846C2.15431 7.77027 1.99636 7.61232 1.99636 7.41817V5.09852C1.99636 4.92692 1.85731 4.78784 1.68568 4.78784C1.51408 4.78784 1.375 4.92689 1.375 5.09852V7.41817C1.375 7.95493 1.81166 8.39159 2.34842 8.39159H2.70053V12.4096H2.34842C2.17683 12.4096 2.03775 12.5486 2.03775 12.7202V15.7026C2.03775 16.2394 2.47441 16.6761 3.01117 16.6761C3.54793 16.6761 3.98459 16.2394 3.98459 15.7026V12.7202C3.98459 12.5486 3.84555 12.4096 3.67391 12.4096H3.32181V8.39163H3.67391C4.21068 8.39163 4.64734 7.95497 4.64734 7.41821V5.09852C4.64749 4.92692 4.50841 4.78788 4.33682 4.78788ZM3.36339 13.0309V15.7027C3.36339 15.8968 3.20544 16.0548 3.01129 16.0548C2.81714 16.0548 2.65918 15.8968 2.65918 15.7027V13.0309H3.36339Z" fill="#A5A5A5" stroke="#A5A5A5" stroke-width="0.2"/>
<path d="M21.0203 4.80981C20.902 4.76277 20.767 4.7928 20.6796 4.88534C20.2811 5.30778 19.9325 5.77269 19.6432 6.26718C18.6078 8.03778 18.5086 9.86627 18.6077 11.0885C18.6208 11.2497 18.7555 11.374 18.9173 11.374H19.2694V15.7026C19.2694 16.2394 19.7061 16.6761 20.2429 16.6761C20.7796 16.6761 21.2163 16.2394 21.2163 15.7026V5.09852C21.2163 4.97125 21.1386 4.85678 21.0203 4.80981ZM19.5801 10.7527H19.2086C19.1555 9.63167 19.303 8.08002 20.1797 6.58084C20.306 6.36483 20.4447 6.15491 20.5949 5.95231V12.4096H19.8908V11.0633C19.8907 10.8917 19.7517 10.7527 19.5801 10.7527ZM20.595 15.7026C20.595 15.8968 20.437 16.0547 20.2429 16.0547C20.0487 16.0547 19.8908 15.8968 19.8908 15.7026V13.0309H20.5949V15.7026H20.595Z" fill="#A5A5A5" stroke="#A5A5A5" stroke-width="0.2"/>
<path d="M11.296 8.26733C10.1399 8.26733 9.32849 10.1888 9.32849 11.229C9.32849 12.3139 10.2112 13.1966 11.296 13.1966C12.3809 13.1966 13.2636 12.3139 13.2636 11.229C13.2636 10.1888 12.4522 8.26733 11.296 8.26733ZM11.296 8.88865C11.5766 8.88865 11.8638 9.16879 12.1007 9.55295C11.8555 9.688 11.5817 9.75853 11.296 9.75853C11.0104 9.75853 10.7366 9.688 10.4914 9.55295C10.7282 9.16879 11.0155 8.88865 11.296 8.88865ZM10.2118 10.1085C10.5431 10.2868 10.9118 10.3798 11.296 10.3798C11.6803 10.3798 12.049 10.2868 12.3803 10.1085C12.439 10.2519 12.4896 10.3981 12.5303 10.5412C12.2128 10.8875 11.7709 11.0841 11.296 11.0841C10.8211 11.0841 10.3792 10.8875 10.0618 10.5411C10.1025 10.398 10.1531 10.2519 10.2118 10.1085ZM11.296 12.5753C10.568 12.5753 9.9736 11.9944 9.9509 11.2717C10.3373 11.5518 10.8038 11.7054 11.296 11.7054C11.7883 11.7054 12.2548 11.5517 12.6412 11.2717C12.6185 11.9944 12.024 12.5753 11.296 12.5753Z" fill="#A5A5A5" stroke="#A5A5A5" stroke-width="0.2"/>
</svg>
