<svg width="32" height="32" viewBox="0 0 32 32" fill="none" xmlns="http://www.w3.org/2000/svg">
<path d="M19.9474 20.7586C20.1933 21.0048 20.3314 21.3386 20.3314 21.6865C20.3314 22.0345 20.1933 22.3683 19.9474 22.6145C19.6982 22.8614 19.3616 23 19.0107 23C18.6599 23 18.3232 22.8614 18.0741 22.6145L12.384 16.9244C12.1381 16.6782 12 16.3445 12 15.9965C12 15.6485 12.1381 15.3148 12.384 15.0686L18.0741 9.37855C18.3254 9.13572 18.6612 9 19.0107 9C19.3602 9 19.696 9.13572 19.9474 9.37855C20.1933 9.62476 20.3314 9.9585 20.3314 10.3065C20.3314 10.6544 20.1933 10.9882 19.9474 11.2344L15.1853 15.9965L19.9474 20.7586Z" fill="#6A7AC8"/>
</svg>
