<svg width="16" height="16" viewBox="0 0 16 16" fill="none" xmlns="http://www.w3.org/2000/svg">
<g clip-path="url(#clip0_1483_3953)">
<path fill-rule="evenodd" clip-rule="evenodd" d="M4.66665 0.833496C4.94279 0.833496 5.16665 1.05736 5.16665 1.3335V2.50016H5.33331C5.34329 2.50016 5.35323 2.50016 5.36315 2.50016C5.65169 2.50013 5.91625 2.5001 6.13145 2.52903C6.36844 2.56089 6.61892 2.63586 6.82491 2.84187C7.03098 3.04789 7.10591 3.29837 7.13778 3.53536C7.16671 3.75057 7.16671 4.01512 7.16665 4.30367C7.16665 4.31358 7.16665 4.32352 7.16665 4.3335V5.25487C7.21124 5.29018 7.25451 5.32862 7.29631 5.37047C7.59998 5.67411 7.72378 6.05198 7.78005 6.47051C7.81891 6.75949 7.82944 7.10316 7.83224 7.50016H8.16664V5.14016C8.16664 4.30126 8.16658 3.61549 8.24371 3.09223C8.32371 2.54964 8.50184 2.06518 8.95571 1.75064C9.40964 1.43608 9.92578 1.43939 10.4619 1.55504C10.9789 1.66656 11.621 1.90736 12.4065 2.20194L12.4704 2.22591C12.8674 2.37477 13.2034 2.50073 13.4672 2.63471C13.7479 2.7772 13.9906 2.94924 14.1735 3.21324C14.3564 3.47724 14.4324 3.76483 14.4672 4.07766C14.5 4.3718 14.5 4.73056 14.5 5.15455V14.1668H14.6666C14.9428 14.1668 15.1666 14.3907 15.1666 14.6668C15.1666 14.943 14.9428 15.1668 14.6666 15.1668H1.33331C1.05717 15.1668 0.833313 14.943 0.833313 14.6668C0.833313 14.3907 1.05717 14.1668 1.33331 14.1668H1.49998V7.96549C1.49996 7.36649 1.49994 6.86703 1.55325 6.47051C1.60953 6.05198 1.73331 5.67411 2.03695 5.37047C2.0788 5.32862 2.12207 5.29018 2.16665 5.25487V4.3335C2.16665 4.32352 2.16665 4.31358 2.16665 4.30366C2.16661 4.01512 2.16658 3.75056 2.19551 3.53536C2.22737 3.29837 2.30234 3.04789 2.50835 2.84187C2.71437 2.63586 2.96485 2.56089 3.20184 2.52903C3.41705 2.5001 3.6816 2.50013 3.97015 2.50016C3.98006 2.50016 3.99001 2.50016 3.99998 2.50016H4.16665V1.3335C4.16665 1.05736 4.39051 0.833496 4.66665 0.833496ZM3.16665 4.88291C3.55832 4.83346 4.04783 4.83348 4.63199 4.8335H4.70131C5.28546 4.83348 5.77497 4.83346 6.16665 4.88291V4.3335C6.16665 4.00509 6.16559 3.80909 6.1467 3.6686C6.13804 3.60424 6.12785 3.57199 6.12187 3.55747C6.12049 3.55411 6.11941 3.5519 6.11874 3.55061L6.11782 3.54899L6.1162 3.54807C6.11491 3.5474 6.1127 3.54632 6.10934 3.54494C6.09482 3.53896 6.06257 3.52877 5.99821 3.52011C5.85772 3.50122 5.66172 3.50016 5.33331 3.50016H3.99998C3.67157 3.50016 3.47557 3.50122 3.33509 3.52011C3.27072 3.52877 3.23847 3.53896 3.22395 3.54494C3.22059 3.54632 3.21838 3.5474 3.21709 3.54807L3.21547 3.54899L3.21455 3.55061C3.21388 3.5519 3.2128 3.55411 3.21142 3.55747C3.20545 3.57199 3.19525 3.60424 3.18659 3.6686C3.16771 3.80909 3.16665 4.00509 3.16665 4.3335V4.88291ZM2.49998 14.1668H4.16665V10.6322C4.16663 10.0332 4.16661 9.53369 4.21992 9.13716C4.27619 8.71863 4.39997 8.34076 4.70362 8.03716C5.00727 7.73349 5.38513 7.60969 5.80366 7.55343C6.09234 7.51463 6.43561 7.50409 6.83211 7.50123C6.82931 7.12109 6.81998 6.83429 6.78898 6.60375C6.74758 6.29611 6.67611 6.16445 6.58923 6.07758C6.50236 5.99069 6.37069 5.91921 6.06305 5.87785C5.74103 5.83455 5.30932 5.8335 4.66665 5.8335C4.02397 5.8335 3.59227 5.83455 3.27024 5.87785C2.9626 5.91921 2.83093 5.99069 2.74406 6.07758C2.65718 6.16445 2.5857 6.29611 2.54434 6.60375C2.50104 6.92576 2.49998 7.35749 2.49998 8.00016V14.1668ZM5.16665 14.1668H10.8333V10.6668C10.8333 10.0242 10.8322 9.59243 10.789 9.27043C10.7476 8.96276 10.6761 8.83109 10.5892 8.74423C10.5024 8.65736 10.3707 8.58589 10.063 8.54449C9.74104 8.50123 9.30931 8.50016 8.66664 8.50016H7.33331C6.69064 8.50016 6.25893 8.50123 5.9369 8.54449C5.62926 8.58589 5.4976 8.65736 5.41073 8.74423C5.32385 8.83109 5.25237 8.96276 5.21101 9.27043C5.16771 9.59243 5.16665 10.0242 5.16665 10.6668V14.1668ZM11.8333 14.1668H13.5V5.18149C13.5 4.72336 13.4992 4.42066 13.4734 4.18842C13.4489 3.96864 13.406 3.86145 13.3516 3.78284C13.2971 3.70422 13.2118 3.62649 13.0146 3.52639C12.8062 3.4206 12.523 3.31365 12.0941 3.15278C11.2604 2.84014 10.6874 2.62668 10.251 2.53255C9.82524 2.44071 9.64531 2.48942 9.52531 2.57256C9.40531 2.6557 9.29651 2.80712 9.23304 3.23803C9.16798 3.6797 9.16664 4.29109 9.16664 5.18149V7.50123C9.56364 7.50403 9.90731 7.51456 10.1963 7.55343C10.6148 7.60969 10.9927 7.73349 11.2963 8.03716C11.6 8.34076 11.7238 8.71863 11.78 9.13716C11.8334 9.53369 11.8333 10.0332 11.8333 10.6322V14.1668ZM3.21547 3.54899C3.21569 3.54881 3.21574 3.54872 3.21547 3.54899C3.21517 3.54929 3.21529 3.54922 3.21547 3.54899ZM6.16665 10.0002C6.16665 9.72403 6.3905 9.50016 6.66665 9.50016H9.33331C9.60944 9.50016 9.83331 9.72403 9.83331 10.0002C9.83331 10.2763 9.60944 10.5002 9.33331 10.5002H6.66665C6.3905 10.5002 6.16665 10.2763 6.16665 10.0002ZM6.16665 12.0002C6.16665 11.724 6.3905 11.5002 6.66665 11.5002H9.33331C9.60944 11.5002 9.83331 11.724 9.83331 12.0002C9.83331 12.2763 9.60944 12.5002 9.33331 12.5002H6.66665C6.3905 12.5002 6.16665 12.2763 6.16665 12.0002Z" fill="white"/>
</g>
<defs>
<clipPath id="clip0_1483_3953">
<rect width="16" height="16" fill="white"/>
</clipPath>
</defs>
</svg>
