<svg width="16" height="16" viewBox="0 0 16 16" fill="none" xmlns="http://www.w3.org/2000/svg">
<g clip-path="url(#clip0_1483_3975)">
<path d="M5.25 4.5C4.90388 4.5 4.56554 4.39737 4.27775 4.20507C3.98997 4.01278 3.76567 3.73947 3.63321 3.4197C3.50076 3.09993 3.4661 2.74806 3.53363 2.40859C3.60115 2.06913 3.76782 1.75731 4.01256 1.51256C4.25731 1.26782 4.56913 1.10115 4.90859 1.03363C5.24806 0.966102 5.59993 1.00076 5.9197 1.13321C6.23947 1.26567 6.51278 1.48997 6.70507 1.77775C6.89737 2.06554 7 2.40388 7 2.75C6.99945 3.21396 6.81489 3.65876 6.48682 3.98682C6.15876 4.31489 5.71396 4.49945 5.25 4.5ZM5.25 2C5.10167 2 4.95666 2.04399 4.83332 2.1264C4.70999 2.20881 4.61386 2.32594 4.55709 2.46299C4.50033 2.60003 4.48547 2.75083 4.51441 2.89632C4.54335 3.0418 4.61478 3.17544 4.71967 3.28033C4.82456 3.38522 4.9582 3.45665 5.10368 3.48559C5.24917 3.51453 5.39997 3.49968 5.53701 3.44291C5.67406 3.38615 5.79119 3.29002 5.8736 3.16668C5.95601 3.04334 6 2.89834 6 2.75C5.99978 2.55116 5.92069 2.36052 5.78008 2.21992C5.63948 2.07932 5.44884 2.00023 5.25 2Z" fill="#699FC9"/>
<path d="M11.237 15.6564L9.67001 11.9999H6.11926C5.67854 11.9994 5.25028 11.8536 4.90081 11.5851C4.55134 11.3166 4.30016 10.9403 4.18616 10.5146L3.36926 7.45159C3.23896 6.95301 3.31138 6.42311 3.57068 5.97778C3.82999 5.53244 4.25508 5.20789 4.75301 5.07511C5.25094 4.94232 5.78118 5.0121 6.22781 5.26918C6.67443 5.52626 7.00109 5.94973 7.13636 6.44699L7.55041 7.99994H10.5V8.99994H6.78186L6.17056 6.70454C6.1016 6.46571 5.94177 6.26343 5.72537 6.14109C5.50897 6.01875 5.25324 5.98611 5.01304 6.05017C4.77285 6.11422 4.56734 6.26988 4.4406 6.48373C4.31385 6.69758 4.27598 6.95259 4.33511 7.19404L5.15201 10.2568C5.20906 10.4698 5.33475 10.658 5.50961 10.7924C5.68447 10.9267 5.89875 10.9997 6.11926 10.9999H10.3293L12.1564 15.2626L11.237 15.6564Z" fill="#699FC9"/>
<path d="M15 3H13V1H12V3H10V4H12V6H13V4H15V3Z" fill="#699FC9"/>
<path d="M8.99998 13.9999H3.88378C3.66347 13.9997 3.44937 13.9268 3.27467 13.7926C3.09997 13.6584 2.97442 13.4703 2.91748 13.2574L1.01648 6.12869L1.98278 5.87109L3.88378 12.9999H8.99998V13.9999Z" fill="#699FC9"/>
</g>
<defs>
<clipPath id="clip0_1483_3975">
<rect width="16" height="16" fill="white"/>
</clipPath>
</defs>
</svg>
