<svg width="13" height="9" viewBox="0 0 13 9" fill="none" xmlns="http://www.w3.org/2000/svg">
<path d="M10.9187 0.399174C11.1474 0.143493 11.4573 -0.000119554 11.7804 -0.00011957C12.1035 -0.000119586 12.4134 0.143493 12.642 0.399174C12.8713 0.658271 13 1.00831 13 1.3731C13 1.7379 12.8713 2.08793 12.642 2.34703L7.3584 8.26342C7.12978 8.5191 6.81988 8.66271 6.49676 8.66271C6.17365 8.66271 5.86375 8.5191 5.63513 8.26342L0.351511 2.34703C0.12603 2.08568 -2.70375e-07 1.73649 -2.8456e-07 1.3731C-2.98745e-07 1.00971 0.12603 0.660524 0.351511 0.399174C0.58013 0.143494 0.890032 -0.000119037 1.21315 -0.000119053C1.53626 -0.000119068 1.84616 0.143494 2.07478 0.399174L6.49676 5.35074L10.9187 0.399174Z" fill="#6A7AC8"/>
</svg>
