<svg width="369" height="306" viewBox="0 0 369 306" fill="none" xmlns="http://www.w3.org/2000/svg">
<path d="M369 268.908H0V269.114H369V268.908Z" fill="#EBEBEB"/>
<path d="M320.137 277.647H295.695V277.853H320.137V277.647Z" fill="#EBEBEB"/>
<path d="M231.046 277.549H224.633V277.754H231.046V277.549Z" fill="#EBEBEB"/>
<path d="M332.025 282.124H317.863V282.329H332.025V282.124Z" fill="#EBEBEB"/>
<path d="M84.5744 284.85H52.7002V285.056H84.5744V284.85Z" fill="#EBEBEB"/>
<path d="M81.8356 275.881H77.1641V276.087H81.8356V275.881Z" fill="#EBEBEB"/>
<path d="M183.355 276.76H138.411V276.965H183.355V276.76Z" fill="#EBEBEB"/>
<path d="M174.907 232.276H32.4063C31.29 232.274 30.22 231.779 29.4313 230.9C28.6427 230.02 28.1997 228.829 28.1997 227.586V4.64881C28.2094 3.41353 28.6567 2.2324 29.4443 1.36197C30.2319 0.49154 31.2963 0.0021161 32.4063 0H174.907C176.024 0 177.096 0.494111 177.886 1.37363C178.677 2.25316 179.121 3.44604 179.121 4.68987V227.586C179.121 228.83 178.677 230.023 177.886 230.903C177.096 231.782 176.024 232.276 174.907 232.276ZM32.4063 0.164269C31.3389 0.166445 30.3159 0.639881 29.5618 1.48066C28.8077 2.32144 28.3842 3.46086 28.3842 4.64881V227.586C28.3842 228.774 28.8077 229.914 29.5618 230.754C30.3159 231.595 31.3389 232.069 32.4063 232.071H174.907C175.975 232.069 176.999 231.595 177.754 230.755C178.509 229.914 178.934 228.775 178.936 227.586V4.64881C178.934 3.4601 178.509 2.3207 177.754 1.48016C176.999 0.639614 175.975 0.166441 174.907 0.164269H32.4063Z" fill="#EBEBEB"/>
<path d="M334.543 232.276H192.035C190.918 232.274 189.847 231.779 189.057 230.9C188.267 230.021 187.823 228.829 187.821 227.586V4.64881C187.832 3.41278 188.281 2.23166 189.07 1.36145C189.859 0.491253 190.924 0.00209302 192.035 0H334.543C335.651 0.00427468 336.714 0.494654 337.5 1.36485C338.286 2.23505 338.732 3.41495 338.742 4.64881V227.586C338.742 228.827 338.3 230.018 337.513 230.897C336.726 231.776 335.658 232.272 334.543 232.276ZM192.035 0.164269C190.967 0.166441 189.943 0.639614 189.188 1.48016C188.432 2.3207 188.007 3.4601 188.005 4.64881V227.586C188.007 228.775 188.432 229.914 189.188 230.755C189.943 231.595 190.967 232.069 192.035 232.071H334.543C335.611 232.069 336.634 231.595 337.39 230.755C338.145 229.914 338.57 228.775 338.572 227.586V4.64881C338.57 3.4601 338.145 2.3207 337.39 1.48016C336.634 0.639614 335.611 0.166441 334.543 0.164269H192.035Z" fill="#EBEBEB"/>
<path d="M316.521 33.9463H52.479V156.236H316.521V33.9463Z" fill="#F0F0F0"/>
<path d="M311.354 150.495V39.7039L57.6448 39.7039V150.495H311.354Z" fill="#FAFAFA"/>
<path d="M91.0459 150.487L117.068 39.6956H136.256L110.234 150.487H91.0459Z" fill="white"/>
<path d="M114.663 150.487L140.684 39.6956H149.267L123.246 150.487H114.663Z" fill="white"/>
<path d="M156.657 150.487L182.686 39.6956H201.874L175.845 150.487H156.657Z" fill="white"/>
<path d="M205.038 150.487L231.06 39.6956H239.65L213.621 150.487H205.038Z" fill="white"/>
<path d="M125.614 150.495V39.7039H124.301V150.495H125.614Z" fill="#E0E0E0"/>
<path d="M58.958 150.495L58.958 39.7039H57.6444L57.6444 150.495H58.958Z" fill="#E0E0E0"/>
<path d="M124.301 150.495V39.7039H119.135V150.495H124.301Z" fill="#F0F0F0"/>
<path d="M189.666 150.495V39.7039H188.352V150.495H189.666Z" fill="#E0E0E0"/>
<path d="M188.354 150.495V39.7039H183.188V150.495H188.354Z" fill="#F0F0F0"/>
<path d="M253.746 150.487V39.6956H252.432V150.487H253.746Z" fill="#E0E0E0"/>
<path d="M252.433 150.487V39.6956H247.267V150.487H252.433Z" fill="#F0F0F0"/>
<path d="M317.835 156.236V33.9463H316.522V156.236H317.835Z" fill="#E0E0E0"/>
<path d="M320.787 25.5519H48.2142C47.9114 25.5498 47.6216 25.415 47.4075 25.1767C47.1934 24.9384 47.0722 24.6158 47.0703 24.2789C47.0703 23.9405 47.1906 23.6158 47.4049 23.3757C47.6192 23.1357 47.9102 22.9997 48.2142 22.9976H320.787C321.091 22.9997 321.382 23.1357 321.596 23.3757C321.811 23.6158 321.931 23.9405 321.931 24.2789C321.929 24.6158 321.808 24.9384 321.594 25.1767C321.38 25.415 321.09 25.5498 320.787 25.5519Z" fill="#E0E0E0"/>
<g opacity="0.6">
<path d="M105.045 20.5337H49.2812V243.668H105.045V20.5337Z" fill="#F5F5F5"/>
<path d="M79.4943 245.492H74.8228L76.1364 22.3569H78.2249L79.4943 245.492Z" fill="#E6E6E6"/>
<path d="M64.018 245.492H61.7598L62.3944 22.3569H63.4055L64.018 245.492Z" fill="#E6E6E6"/>
<path d="M95.0151 245.492H92.7568L93.3915 22.3569H94.4026L95.0151 245.492Z" fill="#E6E6E6"/>
</g>
<g opacity="0.6">
<path d="M319.053 20.5337H263.29V243.668H319.053V20.5337Z" fill="#F5F5F5"/>
<path d="M285.142 245.492H280.471L281.784 22.3569H283.873L285.142 245.492Z" fill="#E6E6E6"/>
<path d="M274.832 245.492H272.581L273.208 22.3569H274.219L274.832 245.492Z" fill="#E6E6E6"/>
<path d="M298.691 245.492H296.44L297.075 22.3569H298.078L298.691 245.492Z" fill="#E6E6E6"/>
<path d="M310.175 245.492H307.924L308.552 22.3569H309.563L310.175 245.492Z" fill="#E6E6E6"/>
</g>
<path d="M240.005 267.512H250.484V200.671H240.005V267.512Z" fill="#E6E6E6"/>
<path d="M118.515 267.512H244.042V200.671H118.515L118.515 267.512Z" fill="#F0F0F0"/>
<path d="M241.222 267.512H237.444H123.932V268.908H237.444H241.222H245.067V267.512H241.222Z" fill="#E0E0E0"/>
<path opacity="0.5" d="M122.095 231.824L240.463 231.824V204.852L122.095 204.852V231.824Z" fill="#FAFAFA"/>
<path opacity="0.5" d="M122.095 263.15H240.463V236.177L122.095 236.177V263.15Z" fill="#FAFAFA"/>
<path d="M140.034 218.338C140.034 218.924 139.878 219.498 139.585 219.985C139.293 220.473 138.877 220.853 138.39 221.077C137.903 221.302 137.367 221.36 136.85 221.246C136.334 221.132 135.859 220.849 135.486 220.434C135.114 220.02 134.86 219.491 134.757 218.916C134.654 218.341 134.707 217.745 134.909 217.203C135.11 216.661 135.452 216.198 135.89 215.873C136.328 215.547 136.843 215.373 137.37 215.373C137.72 215.373 138.067 215.449 138.39 215.598C138.713 215.747 139.007 215.966 139.254 216.241C139.501 216.517 139.698 216.843 139.832 217.203C139.966 217.563 140.034 217.948 140.034 218.338Z" fill="#E0E0E0"/>
<path d="M227.843 218.338C227.843 218.924 227.686 219.498 227.394 219.985C227.101 220.473 226.685 220.853 226.198 221.077C225.711 221.302 225.175 221.36 224.659 221.246C224.142 221.132 223.667 220.849 223.294 220.434C222.922 220.02 222.668 219.491 222.565 218.916C222.463 218.341 222.515 217.745 222.717 217.203C222.919 216.661 223.26 216.198 223.698 215.873C224.136 215.547 224.651 215.373 225.178 215.373C225.528 215.373 225.875 215.449 226.198 215.598C226.521 215.747 226.815 215.966 227.062 216.241C227.31 216.517 227.506 216.843 227.64 217.203C227.774 217.563 227.843 217.948 227.843 218.338Z" fill="#E0E0E0"/>
<path d="M137.37 252.629C138.842 252.629 140.034 251.302 140.034 249.664C140.034 248.026 138.842 246.699 137.37 246.699C135.899 246.699 134.706 248.026 134.706 249.664C134.706 251.302 135.899 252.629 137.37 252.629Z" fill="#E0E0E0"/>
<path d="M227.843 249.689C227.843 250.275 227.686 250.848 227.394 251.336C227.101 251.824 226.685 252.204 226.198 252.428C225.711 252.652 225.175 252.711 224.659 252.597C224.142 252.482 223.667 252.2 223.294 251.785C222.922 251.371 222.668 250.842 222.565 250.267C222.463 249.692 222.515 249.096 222.717 248.554C222.919 248.012 223.26 247.549 223.698 247.223C224.136 246.898 224.651 246.724 225.178 246.724C225.885 246.724 226.563 247.036 227.062 247.592C227.562 248.148 227.843 248.902 227.843 249.689Z" fill="#E0E0E0"/>
<path d="M183.94 218.338C183.94 218.924 183.783 219.498 183.491 219.985C183.198 220.473 182.782 220.853 182.295 221.077C181.808 221.302 181.273 221.36 180.756 221.246C180.239 221.132 179.764 220.849 179.392 220.434C179.019 220.02 178.765 219.491 178.663 218.916C178.56 218.341 178.612 217.745 178.814 217.203C179.016 216.661 179.357 216.198 179.795 215.873C180.233 215.547 180.749 215.373 181.276 215.373C181.625 215.373 181.972 215.449 182.295 215.598C182.618 215.747 182.912 215.966 183.159 216.241C183.407 216.517 183.603 216.843 183.737 217.203C183.871 217.563 183.94 217.948 183.94 218.338Z" fill="#E0E0E0"/>
<path d="M181.276 252.629C182.747 252.629 183.94 251.302 183.94 249.664C183.94 248.026 182.747 246.699 181.276 246.699C179.804 246.699 178.611 248.026 178.611 249.664C178.611 251.302 179.804 252.629 181.276 252.629Z" fill="#E0E0E0"/>
<path d="M236.28 189.32C236.28 192.33 235.205 195.217 233.292 197.346C231.38 199.475 228.785 200.671 226.081 200.671C223.376 200.671 220.781 199.475 218.869 197.346C216.956 195.217 215.881 192.33 215.881 189.32H236.28Z" fill="#F0F0F0"/>
<path d="M155.636 187.267C155.636 190.815 154.369 194.218 152.115 196.727C149.86 199.237 146.802 200.646 143.614 200.646C140.425 200.646 137.368 199.237 135.113 196.727C132.858 194.218 131.592 190.815 131.592 187.267H155.636Z" fill="#F0F0F0"/>
<path d="M207.319 192.794C207.319 194.883 206.574 196.887 205.246 198.364C203.919 199.841 202.119 200.671 200.242 200.671C198.365 200.671 196.565 199.841 195.237 198.364C193.91 196.887 193.165 194.883 193.165 192.794H207.319Z" fill="#F0F0F0"/>
<path d="M184.501 306C263.528 306 327.592 301.837 327.592 296.702C327.592 291.567 263.528 287.405 184.501 287.405C105.475 287.405 41.4106 291.567 41.4106 296.702C41.4106 301.837 105.475 306 184.501 306Z" fill="#F5F5F5"/>
<path d="M256.934 49.5762C255.362 47.8268 252.337 41.1985 255.237 38.0774C258.137 34.9563 260.72 37.7899 260.919 39.3094C261.119 40.8289 260.587 53.6337 256.934 49.5762Z" fill="#263238"/>
<path d="M256.268 288.004L249.678 288.07L247.885 271.117L254.468 271.052L256.268 288.004Z" fill="#FF8B7B"/>
<path d="M249.671 287.224L256.86 287.15C256.992 287.152 257.121 287.201 257.227 287.29C257.333 287.378 257.411 287.502 257.45 287.643L259.192 294.14C259.238 294.291 259.251 294.452 259.229 294.61C259.207 294.768 259.152 294.918 259.067 295.047C258.982 295.176 258.871 295.28 258.742 295.351C258.614 295.422 258.472 295.457 258.328 295.454C255.738 295.454 251.974 295.298 248.734 295.331C244.926 295.331 243.229 295.626 238.756 295.676C236.055 295.676 235.066 292.67 236.21 292.39C241.28 291.084 243.9 290.912 248.144 287.815C248.59 287.457 249.121 287.251 249.671 287.224Z" fill="#263238"/>
<path opacity="0.2" d="M247.885 271.126L248.815 279.865L255.398 279.799L254.475 271.06L247.885 271.126Z" fill="black"/>
<path d="M246.946 288.53C247.657 288.516 248.364 288.419 249.057 288.242C249.09 288.237 249.12 288.219 249.143 288.193C249.166 288.166 249.18 288.131 249.183 288.095C249.186 288.059 249.179 288.024 249.163 287.993C249.147 287.962 249.123 287.937 249.094 287.922C248.784 287.75 246.016 286.279 245.256 286.797C245.186 286.847 245.129 286.916 245.09 286.998C245.051 287.08 245.032 287.172 245.035 287.265C245.033 287.423 245.064 287.579 245.126 287.722C245.187 287.864 245.277 287.989 245.389 288.086C245.851 288.42 246.398 288.575 246.946 288.53ZM248.526 288.004C247.101 288.283 246.016 288.226 245.574 287.832C245.497 287.765 245.436 287.679 245.396 287.58C245.356 287.481 245.339 287.373 245.345 287.265C245.341 287.231 245.345 287.197 245.358 287.166C245.372 287.136 245.392 287.11 245.419 287.092C245.832 286.813 247.397 287.47 248.526 288.004Z" fill="#699FC9"/>
<path d="M249.03 288.292C249.065 288.289 249.098 288.275 249.126 288.251C249.148 288.232 249.165 288.207 249.174 288.177C249.183 288.148 249.184 288.116 249.177 288.086C249.177 287.955 248.661 284.801 247.096 284.998C246.683 285.047 246.565 285.286 246.543 285.466C246.432 286.288 248.122 287.881 248.963 288.275L249.03 288.292ZM247.229 285.335C248.174 285.335 248.646 287.051 248.808 287.799C247.938 287.257 246.786 286.008 246.853 285.516C246.853 285.516 246.853 285.376 247.133 285.343L247.229 285.335Z" fill="#699FC9"/>
<path d="M251.612 86.5942L250.933 87.4155L250.299 88.1137C249.878 88.5736 249.443 89.0089 249.007 89.436C248.141 90.3012 247.256 91.1225 246.35 91.9001C244.523 93.516 242.6 94.9923 240.594 96.3189C239.583 96.9842 238.542 97.6166 237.487 98.2162C236.432 98.8158 235.317 99.3332 234.195 99.8589C231.895 100.88 229.499 101.61 227.052 102.035L226.506 102.126C226.151 102.177 225.793 102.201 225.435 102.2C224.614 102.191 223.8 102.013 223.037 101.674C222.28 101.336 221.587 100.843 220.993 100.22C220.52 99.7183 220.108 99.1495 219.768 98.5283C219.296 97.627 218.941 96.6566 218.712 95.6454C218.533 94.8623 218.403 94.0664 218.321 93.2635C218.187 91.8753 218.15 90.4775 218.21 89.0829C218.262 87.7523 218.358 86.471 218.491 85.2143C218.771 82.6928 219.17 80.2863 219.657 77.8222C220.144 75.3582 220.697 73.0831 221.413 70.7012L226.262 71.7689C226.085 76.3849 225.886 81.1158 226.018 85.5839C226.043 87.6587 226.24 89.7264 226.609 91.7604C226.682 92.1361 226.783 92.5043 226.911 92.861C227.015 93.1403 227.14 93.3128 227.133 93.2389C227.09 93.1138 227.022 93.0013 226.934 92.9103C226.733 92.6941 226.497 92.5214 226.24 92.4011C225.975 92.277 225.693 92.2021 225.406 92.1793C225.273 92.1793 225.214 92.1793 225.133 92.1793H225.214L225.369 92.13C227.117 91.6303 228.818 90.9426 230.446 90.0767C232.151 89.1614 233.8 88.1244 235.384 86.972C236.985 85.7893 238.564 84.508 240.085 83.1528C240.823 82.4793 241.598 81.7729 242.299 81.0583L243.376 79.9741L243.893 79.4403L244.343 78.9639L251.612 86.5942Z" fill="#FF8B7B"/>
<path d="M255.516 83.695C255.265 75.9498 249.553 73.2557 242.394 78.537C239.239 80.7639 236.2 83.1908 233.295 85.8059L237.922 102.348C237.922 102.348 246.778 99.2184 251.9 93.0748C255.346 88.9024 255.605 86.3315 255.516 83.695Z" fill="#263238"/>
<path opacity="0.2" d="M246.801 86.9966C246.801 86.9966 242.528 93.7973 241.015 101.025C243.115 100.028 245.139 98.8414 247.066 97.4769L246.801 86.9966Z" fill="black"/>
<path d="M226.018 74.2249L228.498 67.9909L221.48 65.7075C221.48 65.7075 220.277 68.689 220.963 73.806L226.018 74.2249Z" fill="#FF8B7B"/>
<path d="M229.243 60.6809L223.14 61.494L221.479 65.7075L228.498 67.9909L229.243 60.6809Z" fill="#FF8B7B"/>
<path d="M246.844 139.842C246.844 139.842 242.313 182.108 241.811 204.728C241.294 228.227 245.434 275.627 245.434 275.627L257.323 275.347C257.323 275.347 258.755 224.605 260.482 201.353C262.357 176.006 267.08 139.382 267.08 139.382L246.844 139.842Z" fill="#699FC9"/>
<path opacity="0.6" d="M246.844 139.842C246.844 139.842 242.313 182.108 241.811 204.728C241.294 228.227 245.434 275.627 245.434 275.627L257.323 275.347C257.323 275.347 258.755 224.605 260.482 201.353C262.357 176.006 267.08 139.382 267.08 139.382L246.844 139.842Z" fill="white"/>
<path opacity="0.2" d="M261.008 151.809C255.694 164.844 257.118 193.96 260.137 206.445C260.248 204.63 260.366 202.913 260.484 201.328C261.716 184.622 264.174 163.029 265.731 150.24C264.284 147.908 262.668 147.727 261.008 151.809Z" fill="black"/>
<path d="M258.785 275.914L244.808 276.226L243.774 271.06L258.616 271.019L258.785 275.914Z" fill="#699FC9"/>
<path d="M285.634 288.004L279.051 288.07L277.258 271.117L283.841 271.052L285.634 288.004Z" fill="#FF8B7B"/>
<path d="M279.035 287.224L286.231 287.15C286.363 287.154 286.491 287.203 286.597 287.291C286.703 287.38 286.781 287.503 286.821 287.643L288.563 294.14C288.607 294.291 288.619 294.452 288.596 294.609C288.574 294.766 288.518 294.915 288.434 295.043C288.35 295.172 288.239 295.276 288.111 295.347C287.983 295.419 287.842 295.455 287.699 295.454C285.101 295.454 281.345 295.298 278.105 295.331C274.297 295.331 272.592 295.626 268.127 295.676C265.426 295.676 264.437 292.67 265.581 292.39C270.644 291.084 273.264 290.912 277.515 287.815C277.959 287.457 278.487 287.252 279.035 287.224Z" fill="#263238"/>
<path opacity="0.2" d="M277.258 271.126L278.18 279.865L284.771 279.799L283.848 271.06L277.258 271.126Z" fill="black"/>
<path d="M276.32 288.53C277.03 288.515 277.738 288.418 278.43 288.242C278.462 288.237 278.492 288.219 278.513 288.192C278.535 288.165 278.547 288.131 278.549 288.095C278.553 288.06 278.548 288.024 278.533 287.993C278.519 287.962 278.496 287.937 278.467 287.922C278.15 287.75 275.383 286.279 274.63 286.797C274.558 286.845 274.5 286.915 274.461 286.997C274.422 287.079 274.404 287.172 274.408 287.265C274.407 287.422 274.437 287.578 274.497 287.72C274.557 287.862 274.646 287.987 274.755 288.086C275.22 288.419 275.769 288.574 276.32 288.53ZM277.899 288.004C276.475 288.283 275.39 288.226 274.947 287.832C274.871 287.764 274.81 287.678 274.769 287.579C274.728 287.481 274.708 287.373 274.711 287.265C274.707 287.231 274.711 287.197 274.724 287.166C274.738 287.136 274.759 287.11 274.785 287.092C275.198 286.813 276.748 287.47 277.899 288.004Z" fill="#699FC9"/>
<path d="M278.393 288.292C278.416 288.291 278.438 288.285 278.459 288.274C278.479 288.262 278.497 288.247 278.512 288.227C278.527 288.208 278.537 288.185 278.544 288.161C278.55 288.137 278.552 288.111 278.548 288.086C278.548 287.955 278.032 284.801 276.467 284.998C276.054 285.047 275.936 285.286 275.906 285.466C275.803 286.288 277.493 287.881 278.334 288.275L278.393 288.292ZM276.6 285.335C277.537 285.335 278.017 287.051 278.179 287.799C277.309 287.257 276.15 286.008 276.216 285.516C276.216 285.516 276.216 285.376 276.497 285.343L276.6 285.335Z" fill="#699FC9"/>
<path d="M258.445 139.563C258.445 139.563 261.729 185.04 264.128 207.48C266.615 230.822 274.807 275.602 274.807 275.602L286.696 275.323C286.696 275.323 283.434 224.481 282.172 201.188C280.792 175.768 280.438 139.004 280.438 139.004L258.445 139.563Z" fill="#699FC9"/>
<path opacity="0.6" d="M258.445 139.563C258.445 139.563 261.729 185.04 264.128 207.48C266.615 230.822 274.807 275.602 274.807 275.602L286.696 275.323C286.696 275.323 283.434 224.481 282.172 201.188C280.792 175.768 280.438 139.004 280.438 139.004L258.445 139.563Z" fill="white"/>
<path d="M288.158 275.914L274.173 276.226L273.147 271.06L287.989 271.019L288.158 275.914Z" fill="#699FC9"/>
<path d="M246.025 76.5083C246.025 76.5083 241.162 96.5984 246.844 139.842C257.457 139.588 275.28 139.128 280.438 139.021C280.571 133 276.578 103.481 281.25 75.0217C277.889 74.3758 274.49 74.0079 271.08 73.9211C266.089 73.7183 261.092 73.8389 256.114 74.2825C252.704 74.7314 249.331 75.4756 246.025 76.5083Z" fill="#263238"/>
<path opacity="0.2" d="M279.212 95.2759L273.714 90.2083C274.076 94.1671 277.294 103.867 278.991 108.779C278.962 104.475 278.998 99.933 279.212 95.2759Z" fill="black"/>
<path d="M259.546 88.1549L253.546 101.37C253.419 101.648 253.375 101.963 253.419 102.27C253.464 102.578 253.595 102.861 253.793 103.08C253.992 103.3 254.248 103.443 254.524 103.49C254.801 103.537 255.083 103.485 255.332 103.342L259.25 100.943C259.464 100.816 259.704 100.757 259.946 100.775C260.187 100.792 260.419 100.885 260.616 101.042L264.476 104.138C264.697 104.318 264.965 104.413 265.239 104.41C265.513 104.407 265.779 104.306 265.998 104.122C266.216 103.938 266.376 103.68 266.452 103.387C266.529 103.094 266.519 102.782 266.424 102.496L261.915 88.3849C261.836 88.1164 261.689 87.8796 261.49 87.704C261.292 87.5283 261.051 87.4216 260.799 87.397C260.546 87.3725 260.292 87.4313 260.07 87.5661C259.847 87.7008 259.665 87.9056 259.546 88.1549Z" fill="white"/>
<path d="M269.236 55.1614C268.394 60.5494 267.641 70.3891 271.081 73.8798C271.081 73.8798 270.077 78.7586 260.918 80.4506C254.763 78.2494 256.114 74.274 256.114 74.274C261.457 72.7135 261.228 68.2865 260.217 64.1469L269.236 55.1614Z" fill="#FF8B7B"/>
<path opacity="0.2" d="M265.561 58.8164L260.218 64.1059C260.467 65.0702 260.64 66.0568 260.735 67.0545C262.786 66.6767 265.554 64.0977 265.724 61.7075C265.828 60.7409 265.773 59.7611 265.561 58.8164Z" fill="black"/>
<path d="M272.166 48.5331C270.387 55.5309 269.672 59.728 265.745 62.5945C259.841 66.8983 252.602 61.7731 252.461 54.3071C252.329 47.6049 255.251 37.2806 262.055 35.9665C263.55 35.6714 265.087 35.8059 266.522 36.3573C267.957 36.9087 269.242 37.8586 270.254 39.1172C271.267 40.3757 271.974 41.9011 272.308 43.5489C272.643 45.1967 272.594 46.9123 272.166 48.5331Z" fill="#FF8B7B"/>
<path d="M268.379 52.8206C267.552 50.5866 266.954 43.2273 270.401 41.4204C273.847 39.6134 277.426 44.024 276.519 46.1103C275.124 49.3464 270.297 57.9951 268.379 52.8206Z" fill="#263238"/>
<path d="M270.44 44.0159C269.591 41.5518 259.473 40.1556 258.056 37.5026C256.373 34.3486 263.274 33.9708 268.019 35.5724C272.189 36.9852 274.971 38.3486 274.484 41.7982C274.211 43.753 270.44 44.0159 270.44 44.0159Z" fill="#263238"/>
<path d="M272.639 41.4779C272.639 41.4779 274.853 42.1514 276.063 40.3445C275.679 42.135 273.797 43.942 272.639 41.4779Z" fill="#263238"/>
<path d="M262.505 33.8804C259.464 31.2521 255.324 34.3404 255.715 37.7654C256.106 41.1904 266.357 43.794 266.357 43.794C266.357 43.794 266.542 37.3711 262.505 33.8804Z" fill="#263238"/>
<path d="M255.724 37.7817C256.189 40.18 257.761 42.0609 260.942 43.4572C259.101 41.9421 257.706 39.8523 256.934 37.4531L255.724 37.7817Z" fill="#263238"/>
<path d="M262.107 48.1801C261.997 48.7633 261.635 49.1657 261.296 49.0836C260.956 49.0015 260.772 48.4594 260.882 47.8844C260.993 47.3095 261.362 46.907 261.701 46.9892C262.041 47.0713 262.225 47.638 262.107 48.1801Z" fill="#263238"/>
<path d="M256.248 46.7672C256.13 47.3422 255.768 47.7446 255.429 47.6625C255.089 47.5804 254.905 47.0465 255.016 46.4716C255.126 45.8966 255.495 45.4942 255.835 45.5681C256.174 45.642 256.359 46.1923 256.248 46.7672Z" fill="#263238"/>
<path d="M258.055 47.5066C257.091 49.1223 255.932 50.5817 254.608 51.8433C255.346 53.0178 256.992 52.9603 256.992 52.9603L258.055 47.5066Z" fill="#FF5652"/>
<path d="M258.189 54.9231C258.882 55.1147 259.606 55.1169 260.3 54.9295C260.994 54.7422 261.637 54.3708 262.174 53.8472C262.189 53.8311 262.2 53.8119 262.208 53.7908C262.216 53.7696 262.22 53.7469 262.22 53.724C262.22 53.701 262.216 53.6783 262.208 53.6571C262.2 53.636 262.189 53.6168 262.174 53.6008C262.144 53.5696 262.104 53.5522 262.063 53.5522C262.022 53.5522 261.983 53.5696 261.953 53.6008C261.449 54.0728 260.852 54.407 260.212 54.5767C259.571 54.7464 258.903 54.7469 258.263 54.5782C258.221 54.5684 258.178 54.5771 258.143 54.6025C258.108 54.628 258.083 54.6679 258.074 54.7137C258.066 54.7594 258.073 54.8072 258.096 54.8465C258.119 54.8857 258.155 54.9133 258.196 54.9231H258.189Z" fill="#263238"/>
<path d="M264.283 46.5045C264.34 46.5171 264.398 46.5123 264.453 46.4906C264.507 46.4688 264.555 46.431 264.592 46.3811C264.628 46.3312 264.652 46.2713 264.66 46.2076C264.668 46.144 264.66 46.0791 264.637 46.0199C264.438 45.5141 264.133 45.0684 263.748 44.7199C263.363 44.3713 262.909 44.13 262.423 44.0159C262.341 44.0041 262.258 44.0284 262.192 44.0836C262.126 44.1388 262.082 44.2206 262.069 44.3115C262.063 44.3563 262.065 44.402 262.074 44.4461C262.084 44.4901 262.101 44.5316 262.125 44.5682C262.149 44.6048 262.179 44.6358 262.214 44.6594C262.249 44.683 262.287 44.6988 262.327 44.7058C262.71 44.7994 263.068 44.9937 263.369 45.2723C263.671 45.5509 263.908 45.9058 264.062 46.3074C264.082 46.3571 264.113 46.4008 264.152 46.435C264.19 46.4692 264.235 46.493 264.283 46.5045Z" fill="#263238"/>
<path d="M254.106 43.9009C254.163 43.9187 254.225 43.9165 254.282 43.8945C254.338 43.8725 254.388 43.8317 254.423 43.7777C254.657 43.4288 254.961 43.1459 255.311 42.9519C255.661 42.7579 256.047 42.6581 256.438 42.6607C256.52 42.6694 256.602 42.6414 256.666 42.5829C256.729 42.5243 256.769 42.4401 256.777 42.3486C256.785 42.2571 256.76 42.1659 256.707 42.095C256.655 42.0242 256.579 41.9795 256.497 41.9707C256.002 41.9544 255.51 42.0713 255.064 42.3115C254.619 42.5518 254.231 42.9082 253.936 43.3506C253.91 43.3857 253.89 43.4264 253.879 43.4702C253.867 43.514 253.863 43.5599 253.868 43.6052C253.873 43.6506 253.886 43.6943 253.907 43.7338C253.927 43.7734 253.955 43.8079 253.988 43.8352C254.021 43.8681 254.062 43.8908 254.106 43.9009Z" fill="#263238"/>
<path d="M282.86 80.623C284.204 83.2349 285.325 85.7647 286.491 88.3683C287.657 90.972 288.705 93.5921 289.702 96.2697C290.698 98.9472 291.665 101.666 292.506 104.483C293.381 107.293 294.12 110.152 294.72 113.05L295.17 115.292C295.367 116.345 295.451 117.42 295.421 118.495C295.358 120.493 294.961 122.459 294.248 124.294C292.995 127.385 291.212 130.175 289.001 132.507C287.028 134.627 284.878 136.533 282.58 138.199C281.466 139.021 280.314 139.776 279.156 140.499C277.997 141.222 276.846 141.887 275.554 142.52L273.104 137.748C273.997 136.926 274.979 136.105 275.894 135.218C276.809 134.331 277.702 133.427 278.587 132.524C280.297 130.758 281.884 128.85 283.333 126.815C284.621 125.071 285.621 123.085 286.285 120.951C286.513 120.156 286.603 119.32 286.55 118.487C286.529 118.152 286.472 117.821 286.381 117.501L285.879 115.662C284.388 110.558 282.613 105.563 280.565 100.705C279.554 98.2409 278.477 95.7768 277.399 93.3128C276.322 90.8488 275.185 88.3847 274.086 86.0439L282.86 80.623Z" fill="#FF8B7B"/>
<path d="M281.501 75.0625C287.656 76.5409 291.936 94.4134 291.936 94.4134L280.933 105.526C277.434 101.194 274.682 96.1829 272.815 90.742C269.9 81.7975 274.918 73.4691 281.501 75.0625Z" fill="#263238"/>
<path d="M274.439 136.902L267.362 136.984L271.79 144.926C271.79 144.926 276.83 143.538 277.281 140.721L274.439 136.902Z" fill="#FF8B7B"/>
<path d="M262.955 141.674L266.859 148.047L271.752 144.926L267.36 136.984L262.955 141.674Z" fill="#FF8B7B"/>
<path d="M274.1 54.9396C273.314 56.5497 271.988 57.7484 270.41 58.2742C268.314 58.956 267.244 56.878 267.805 54.6685C268.314 52.6809 270.019 49.9294 272.115 50.2169C274.211 50.5043 275.038 52.9602 274.1 54.9396Z" fill="#FF8B7B"/>
<path d="M211.376 190.836L203.507 191.472L203.561 192.291L211.429 191.655L211.376 190.836Z" fill="#699FC9"/>
<path d="M218.445 190.269L214.581 190.581L214.634 191.4L218.498 191.088L218.445 190.269Z" fill="#699FC9"/>
<path d="M252.398 93.8549L122.097 104.311C119.385 104.546 116.866 105.962 115.086 108.252C113.307 110.541 112.41 113.52 112.591 116.54L117.019 184.893C117.229 187.915 118.503 190.724 120.564 192.706C122.624 194.689 125.305 195.686 128.023 195.48L135.403 194.888C135.939 194.845 136.469 195.041 136.875 195.432C137.282 195.823 137.533 196.378 137.573 196.975L138.399 209.64C138.413 209.885 138.492 210.12 138.626 210.315C138.761 210.51 138.945 210.656 139.154 210.733C139.364 210.811 139.589 210.817 139.802 210.751C140.014 210.685 140.204 210.55 140.347 210.363L152.702 194.47C153.221 193.804 153.956 193.393 154.746 193.328L258.302 185.024C261.015 184.791 263.536 183.375 265.317 181.085C267.098 178.796 267.996 175.816 267.815 172.794L263.387 104.442C263.177 101.422 261.905 98.6167 259.848 96.6344C257.79 94.6521 255.113 93.6533 252.398 93.8549Z" fill="#699FC9"/>
<path d="M141.13 135.686L148.171 135.119L148.747 143.99L156.436 143.374L155.861 134.503L162.931 133.928L164.577 159.275L157.507 159.842L156.842 149.591L149.152 150.215L149.817 160.466L142.783 161.033L141.13 135.686Z" fill="white"/>
<path opacity="0.2" d="M122.097 104.311C119.385 104.546 116.866 105.962 115.086 108.252C113.307 110.542 112.41 113.52 112.591 116.54L117.019 184.893C117.229 187.915 118.503 190.724 120.564 192.706C122.624 194.689 125.305 195.686 128.023 195.48L129.108 195.389C130.91 195.244 132.619 194.441 133.97 193.105C135.32 191.768 136.236 189.973 136.576 187.997L151.417 101.953L122.097 104.311Z" fill="black"/>
<path d="M186.664 150.027L173.985 151.045C174.082 151.959 174.427 152.818 174.974 153.509C175.287 153.876 175.673 154.158 176.101 154.332C176.528 154.505 176.986 154.567 177.439 154.511C178.06 154.462 178.66 154.235 179.18 153.854C179.588 153.511 179.935 153.088 180.206 152.606L186.479 152.745C185.797 154.467 184.688 155.936 183.284 156.983C181.995 157.892 180.091 158.44 177.571 158.626C175.81 158.854 174.026 158.644 172.346 158.01C171 157.381 169.845 156.335 169.018 154.996C168.07 153.471 167.525 151.681 167.446 149.829C167.314 148.543 167.426 147.241 167.775 146.006C168.123 144.771 168.7 143.631 169.468 142.659C171.003 140.754 173.217 139.683 176.11 139.448C178.025 139.194 179.967 139.448 181.778 140.187C183.164 140.846 184.333 141.968 185.121 143.398C186.024 145.174 186.53 147.166 186.597 149.205L186.664 150.027ZM180.022 147.168C179.932 146.1 179.518 145.098 178.848 144.326C178.511 144.037 178.124 143.829 177.711 143.713C177.298 143.598 176.868 143.578 176.448 143.655C176.028 143.732 175.627 143.904 175.269 144.161C174.911 144.418 174.605 144.754 174.369 145.148C173.975 145.92 173.776 146.797 173.793 147.686L180.022 147.168Z" fill="white"/>
<path d="M188.621 131.867L194.96 131.357L196.606 156.696L190.266 157.205L188.621 131.867Z" fill="white"/>
<path d="M199.21 131.012L205.55 130.503L207.196 155.842L200.864 156.351L199.21 131.012Z" fill="white"/>
<path d="M209.867 146.454C209.748 145.168 209.872 143.869 210.233 142.641C210.595 141.412 211.184 140.283 211.963 139.324C213.543 137.37 215.779 136.275 218.672 136.039C221.968 135.776 224.531 136.641 226.362 138.635C227.882 140.419 228.76 142.762 228.83 145.22C228.899 147.678 228.155 150.078 226.738 151.965C225.174 153.903 222.905 154.998 219.934 155.25C217.625 155.559 215.293 154.948 213.351 153.526C212.318 152.728 211.465 151.673 210.861 150.446C210.256 149.219 209.916 147.852 209.867 146.454ZM216.207 145.928C216.195 147.225 216.595 148.484 217.336 149.484C217.635 149.825 217.997 150.089 218.396 150.259C218.796 150.428 219.224 150.499 219.651 150.466C220.078 150.434 220.493 150.298 220.868 150.069C221.243 149.84 221.569 149.523 221.823 149.14C222.419 147.996 222.644 146.659 222.458 145.353C222.465 144.083 222.07 142.85 221.343 141.871C221.059 141.524 220.707 141.254 220.314 141.083C219.921 140.912 219.498 140.845 219.078 140.885C218.639 140.908 218.212 141.043 217.828 141.279C217.444 141.515 217.114 141.847 216.864 142.248C216.269 143.353 216.047 144.658 216.236 145.928H216.207Z" fill="white"/>
<path d="M230.825 128.466L237.578 127.924L237.954 133.674L237.401 145.378L233.224 145.715L231.194 134.216L230.825 128.466ZM232.301 147.587L238.604 147.078L239.01 153.287L232.7 153.788L232.301 147.587Z" fill="white"/>
<path d="M120.293 81.8059C120.26 83.0082 120.316 84.2115 120.462 85.4033C113.775 87.8888 106.643 88.5176 99.6876 87.235C100.022 85.83 100.224 84.3905 100.293 82.9393C100.06 84.4006 99.6033 85.8064 98.9422 87.0953C97.6286 86.8161 96.8906 86.5779 96.8906 86.5779C96.8906 86.5779 98.2338 78.4958 95.8131 72.615C93.3925 66.7342 94.6028 63.4488 96.433 62.5207C99.8278 50.9069 112.588 52.7385 116.905 57.453C122.381 63.4324 122.411 80.2782 123.385 84.1303C122.58 84.5163 121.791 84.8695 121.001 85.1816C120.606 84.1053 120.366 82.9658 120.293 81.8059Z" fill="#263238"/>
<path d="M125.571 99.8835L126.235 102.224C126.478 103.046 126.722 103.867 126.973 104.647C127.467 106.29 127.984 107.933 128.537 109.51C129.091 111.087 129.622 112.746 130.198 114.356L131.054 116.82L131.268 117.427L131.32 117.567C131.228 117.478 131.123 117.409 131.01 117.362C130.847 117.296 130.781 117.362 130.884 117.362C131.062 117.361 131.239 117.33 131.408 117.271C131.985 117.068 132.54 116.792 133.061 116.45C134.32 115.634 135.524 114.717 136.663 113.707C137.858 112.672 139.032 111.563 140.183 110.421C141.334 109.28 142.493 108.089 143.607 106.922L145.873 109.058C144.928 110.569 143.932 111.949 142.921 113.354C141.91 114.758 140.773 116.072 139.607 117.378C138.407 118.742 137.101 119.984 135.703 121.091C134.904 121.714 134.045 122.237 133.142 122.651C132.57 122.907 131.969 123.078 131.357 123.16C130.525 123.276 129.68 123.148 128.906 122.791C128.063 122.391 127.344 121.722 126.84 120.869C126.729 120.68 126.626 120.491 126.545 120.319L126.345 119.875L126.08 119.275C125.733 118.454 125.342 117.633 125.039 116.861C124.368 115.218 123.696 113.575 123.084 111.933C122.471 110.29 121.873 108.598 121.305 106.906C121.039 106.085 120.774 105.189 120.523 104.327C120.272 103.465 120.028 102.619 119.785 101.608L125.571 99.8835Z" fill="#FFC3BD"/>
<path d="M123.82 92.5902C126.366 93.313 128.144 104.96 128.144 104.96L121.133 110.266C121.133 110.266 114.417 98.5121 116.373 95.3992C118.41 92.1631 120.107 91.5388 123.82 92.5902Z" fill="#699FC9"/>
<path d="M123.82 92.5902C126.366 93.313 128.144 104.96 128.144 104.96L121.133 110.266C121.133 110.266 114.417 98.5121 116.373 95.3992C118.41 92.1631 120.107 91.5388 123.82 92.5902Z" fill="#699FC9"/>
<path opacity="0.4" d="M123.82 92.5902C126.366 93.313 128.144 104.96 128.144 104.96L121.133 110.266C121.133 110.266 114.417 98.5121 116.373 95.3992C118.41 92.1631 120.107 91.5388 123.82 92.5902Z" fill="white"/>
<path opacity="0.3" d="M123.591 95.1938L125.547 106.931L121.606 109.904L123.591 95.1938Z" fill="black"/>
<path d="M143.488 107.202L145.828 100.927L148.713 107.202C148.713 107.202 146.839 110.323 144.367 109.559L143.488 107.202Z" fill="#FFC3BD"/>
<path d="M148.403 100.278L152.108 101.937L148.713 107.202L145.82 100.927L148.403 100.278Z" fill="#FFC3BD"/>
<path d="M110.057 288.661H116.234L116.647 272.752H110.47L110.057 288.661Z" fill="#FFC3BD"/>
<path d="M68.6401 268.169L74.3154 270.863L81.747 257.097L76.0644 254.403L68.6401 268.169Z" fill="#FFC3BD"/>
<path d="M75.4075 269.926L69.5035 265.885C69.4026 265.813 69.2812 265.785 69.1627 265.806C69.0442 265.827 68.9369 265.897 68.8614 266L65.3117 270.74C65.2233 270.864 65.1599 271.007 65.1256 271.161C65.0913 271.314 65.0869 271.474 65.1128 271.63C65.1387 271.786 65.1942 271.933 65.2756 272.063C65.357 272.193 65.4624 272.302 65.5847 272.382C67.6659 273.754 68.7286 274.296 71.3264 276.07C72.9278 277.171 75.1566 278.945 77.3632 280.456C79.5698 281.967 81.0532 279.635 80.234 278.772C76.6547 274.97 76.758 273.163 76.0865 270.912C75.9748 270.503 75.7336 270.153 75.4075 269.926Z" fill="#263238"/>
<path d="M116.44 287.865H109.51C109.391 287.863 109.275 287.91 109.185 287.996C109.094 288.082 109.034 288.202 109.016 288.333L108.226 294.444C108.207 294.6 108.219 294.76 108.26 294.911C108.302 295.063 108.372 295.202 108.467 295.32C108.562 295.438 108.678 295.532 108.809 295.594C108.939 295.657 109.081 295.688 109.223 295.684C111.643 295.643 112.809 295.479 115.865 295.479C117.739 295.479 121.621 295.7 124.211 295.7C126.802 295.7 126.935 292.85 125.857 292.588C121.023 291.429 119.119 289.836 117.488 288.317C117.199 288.03 116.827 287.87 116.44 287.865Z" fill="#263238"/>
<path opacity="0.2" d="M116.64 272.76L116.433 280.957H110.256L110.47 272.76H116.64Z" fill="black"/>
<path opacity="0.2" d="M76.0626 254.411L81.7379 257.097L77.9076 264.194L72.2324 261.5L76.0626 254.411Z" fill="black"/>
<path d="M123.82 92.5901C123.82 92.5901 126.772 93.74 120.868 134.043H95.7757C96.1963 122.692 96.2111 115.695 91.3477 92.393C94.8562 91.586 98.413 91.0644 101.99 90.8324C105.78 90.5282 109.586 90.5282 113.377 90.8324C118.277 91.3252 123.82 92.5901 123.82 92.5901Z" fill="#699FC9"/>
<path opacity="0.4" d="M123.82 92.5901C123.82 92.5901 126.772 93.74 120.868 134.043H95.7757C96.1963 122.692 96.2111 115.695 91.3477 92.393C94.8562 91.586 98.413 91.0644 101.99 90.8324C105.78 90.5282 109.586 90.5282 113.377 90.8324C118.277 91.3252 123.82 92.5901 123.82 92.5901Z" fill="white"/>
<path d="M102.005 90.8242C105.796 90.528 109.601 90.528 113.392 90.8242C114.005 90.8899 114.632 90.9638 115.252 91.046C115.51 91.4776 115.675 91.9694 115.735 92.4835C115.796 92.9976 115.749 93.5202 115.599 94.011C114.794 96.2204 111.909 96.475 109.813 96.475C102.056 96.475 100.743 91.432 100.691 91.2184L100.617 90.9145L102.005 90.8242Z" fill="white"/>
<path d="M103.134 76.5657C103.872 80.6724 104.573 88.1138 102.004 90.8324C102.004 90.8324 103.008 94.9391 109.812 94.9391C117.296 94.9391 113.392 90.8324 113.392 90.8324C109.303 89.7482 109.414 86.3725 110.122 83.2103L103.134 76.5657Z" fill="#FFC3BD"/>
<path d="M103.88 73.6663C103.001 76.8941 104.219 84.5326 106.027 87.4895C102.463 85.2144 101.26 78.2822 101.26 78.2822L103.88 73.6663Z" fill="#263238"/>
<path opacity="0.2" d="M105.983 79.2761L110.123 83.2021C109.941 83.9382 109.823 84.6917 109.769 85.4526C108.212 85.198 106.079 83.2925 105.902 81.4773C105.81 80.7441 105.837 79.9985 105.983 79.2761Z" fill="black"/>
<path d="M99.7548 69.2885C101.187 75.9167 101.659 78.7586 105.246 81.6087C110.64 85.8879 117.644 82.4875 118.02 75.5143C118.36 69.2392 115.969 59.457 109.659 57.9457C108.269 57.6041 106.823 57.6636 105.459 58.1185C104.095 58.5734 102.859 59.4087 101.866 60.5451C100.874 61.6815 100.159 63.0812 99.7897 64.6114C99.4202 66.1417 99.4082 67.7516 99.7548 69.2885Z" fill="#FFC3BD"/>
<path d="M120.875 134.043C120.875 134.043 125.738 186.954 125.303 207.899C124.882 229.681 117.709 279.356 117.709 279.356H109.369C109.369 279.356 110.69 230.937 109.952 209.541C109.148 186.215 102.491 134.027 102.491 134.027L120.875 134.043Z" fill="#699FC9"/>
<path opacity="0.4" d="M120.875 134.043C120.875 134.043 125.738 186.954 125.303 207.899C124.882 229.681 117.709 279.356 117.709 279.356H109.369C109.369 279.356 110.69 230.937 109.952 209.541C109.148 186.215 102.491 134.027 102.491 134.027L120.875 134.043Z" fill="black"/>
<path d="M108.676 279.7H118.462L119.185 276.226L108.219 275.799L108.676 279.7Z" fill="#699FC9"/>
<path opacity="0.2" d="M110.063 147.209C116.218 160.992 111.295 186.133 109.118 195.488C108.004 181.443 106.122 164.277 104.653 151.653C105.583 144.556 107.222 140.852 110.063 147.209Z" fill="black"/>
<path d="M114.257 134.043C114.257 134.043 108.574 189.073 104.286 206.708C99.2014 227.676 79.8437 263.38 79.8437 263.38L72.1021 259.717C72.1021 259.717 84.0798 219.176 87.9764 208.128C96.2789 184.556 89.172 149.427 95.8066 134.043H114.257Z" fill="#699FC9"/>
<path opacity="0.4" d="M114.257 134.043C114.257 134.043 108.574 189.073 104.286 206.708C99.2014 227.676 79.8437 263.38 79.8437 263.38L72.1021 259.717C72.1021 259.717 84.0798 219.176 87.9764 208.128C96.2789 184.556 89.172 149.427 95.8066 134.043H114.257Z" fill="black"/>
<path d="M71.0322 259.742L80.641 264.292L82.9509 261.417L71.8662 255.496L71.0322 259.742Z" fill="#699FC9"/>
<path d="M109.223 69.379C109.312 69.9211 109.636 70.3154 109.961 70.2497C110.286 70.184 110.47 69.6911 110.382 69.1491C110.293 68.607 109.969 68.2127 109.644 68.2702C109.319 68.3277 109.098 68.8287 109.223 69.379Z" fill="#263238"/>
<path d="M114.729 68.2948C114.81 68.8369 115.142 69.2311 115.467 69.1654C115.791 69.0997 115.983 68.6069 115.895 68.0648C115.806 67.5227 115.481 67.1285 115.157 67.186C114.832 67.2435 114.64 67.7445 114.729 68.2948Z" fill="#263238"/>
<path d="M115.015 67.2518L116.129 66.6357C116.129 66.6357 115.686 67.7774 115.015 67.2518Z" fill="#263238"/>
<path d="M113.407 69.5186C114.04 70.6778 114.815 71.7337 115.709 72.6561C115.49 72.9028 115.226 73.0938 114.934 73.2157C114.642 73.3377 114.33 73.3877 114.019 73.3625L113.407 69.5186Z" fill="#ED847E"/>
<path d="M111.799 75.9333C112.079 75.9328 112.358 75.9053 112.633 75.8512C112.654 75.8503 112.675 75.8443 112.694 75.8337C112.713 75.8231 112.729 75.8082 112.743 75.7899C112.756 75.7716 112.765 75.7504 112.77 75.7276C112.776 75.7049 112.776 75.6811 112.773 75.658C112.769 75.6349 112.761 75.613 112.749 75.5937C112.737 75.5744 112.721 75.5581 112.703 75.5461C112.685 75.534 112.665 75.5264 112.644 75.5238C112.623 75.5212 112.602 75.5236 112.582 75.5309C111.974 75.6657 111.346 75.6384 110.75 75.4514C110.153 75.2644 109.605 74.9229 109.15 74.4549C109.122 74.4248 109.085 74.408 109.047 74.408C109.008 74.408 108.971 74.4248 108.943 74.4549C108.929 74.4695 108.918 74.4873 108.91 74.5071C108.902 74.5269 108.898 74.5483 108.898 74.5699C108.898 74.5915 108.902 74.6129 108.91 74.6327C108.918 74.6525 108.929 74.6703 108.943 74.6849C109.714 75.4979 110.738 75.9456 111.799 75.9333Z" fill="#263238"/>
<path d="M101.843 65.4037C102.004 67.1503 102.251 68.8859 102.581 70.6028C102.581 70.6028 106.271 65.4037 106.884 62.6194C106.737 63.7156 106.451 64.7831 106.035 65.7897C106.035 65.7897 111.002 64.5824 111.489 60.9356C111.48 62.5682 111.317 64.1953 111.002 65.7897C111.002 65.7897 115.74 63.72 115.304 60.221C114.869 56.7221 107.592 55.3669 104.234 56.5496C100.876 57.7323 97.5922 61.568 98.5811 66.8411C99.5701 72.1141 101.467 74.0935 101.467 74.0935C101.467 74.0935 100.101 68.7794 101.843 65.4037Z" fill="#263238"/>
<path d="M99.4956 74.2825C99.9511 75.4991 100.822 76.465 101.916 76.9683C103.392 77.6253 104.27 76.2208 104.012 74.5946C103.783 73.1244 102.743 71.0217 101.215 71.0546C100.881 71.0711 100.556 71.1799 100.269 71.3714C99.9815 71.5628 99.7419 71.8308 99.5712 72.1511C99.4006 72.4715 99.3043 72.834 99.2911 73.2061C99.2779 73.5782 99.3482 73.9482 99.4956 74.2825Z" fill="#FFC3BD"/>
<path d="M102.736 62.8738C101.998 66.1592 103.533 73.7155 105.466 76.5656C101.776 74.4876 100.3 67.6211 100.3 67.6211L102.736 62.8738Z" fill="#263238"/>
<path d="M107.202 67.5062C107.239 67.4934 107.275 67.4723 107.305 67.4441C107.336 67.4158 107.361 67.3811 107.379 67.3419C107.534 66.9714 107.766 66.6472 108.056 66.3959C108.346 66.1446 108.686 65.9734 109.047 65.8963C109.123 65.8841 109.192 65.8398 109.24 65.7727C109.288 65.7055 109.311 65.6204 109.305 65.5349C109.301 65.492 109.29 65.4503 109.271 65.4124C109.253 65.3745 109.228 65.3411 109.197 65.3143C109.167 65.2874 109.132 65.2677 109.095 65.2562C109.058 65.2447 109.019 65.2417 108.98 65.2475C108.522 65.3359 108.09 65.5454 107.72 65.8584C107.35 66.1715 107.054 66.5788 106.855 67.0462C106.83 67.1033 106.82 67.1673 106.827 67.2304C106.834 67.2935 106.857 67.3529 106.894 67.4016C106.931 67.4503 106.979 67.4861 107.034 67.5046C107.088 67.5232 107.147 67.5237 107.202 67.5062Z" fill="#263238"/>
<path d="M116.744 64.96C116.781 64.9618 116.818 64.9546 116.853 64.939C116.887 64.9234 116.918 64.8998 116.944 64.8696C116.998 64.8082 117.028 64.7257 117.028 64.6397C117.028 64.5537 116.998 64.4711 116.944 64.4097C116.629 64.0306 116.238 63.7394 115.804 63.5596C115.369 63.3798 114.903 63.3165 114.442 63.3748C114.403 63.3827 114.367 63.3989 114.334 63.4227C114.301 63.4464 114.273 63.4771 114.251 63.513C114.229 63.5489 114.214 63.5893 114.206 63.6318C114.198 63.6743 114.198 63.7182 114.206 63.7608C114.222 63.8439 114.266 63.9168 114.329 63.9643C114.393 64.0117 114.47 64.0301 114.545 64.0154C114.908 63.9703 115.276 64.0211 115.619 64.1638C115.961 64.3065 116.268 64.5371 116.516 64.8368C116.543 64.875 116.578 64.9059 116.617 64.9272C116.657 64.9485 116.7 64.9597 116.744 64.96Z" fill="#263238"/>
<path d="M94.4111 102.142C93.3853 105.748 92.4038 109.535 91.5698 113.263C90.7304 116.945 90.1165 120.685 89.7322 124.458L89.6732 125.148C89.6732 125.37 89.6732 125.419 89.6732 125.616C89.6813 126.004 89.7084 126.39 89.7543 126.775C89.8483 127.674 89.9838 128.568 90.1602 129.452C90.5071 131.284 90.8982 133.173 91.4001 135.046C91.9019 136.918 92.33 138.824 92.8318 140.713L94.3078 146.38L91.5698 147.637C89.8872 144.056 88.4259 140.409 87.0606 136.647C86.4038 134.758 85.7618 132.853 85.2304 130.84C84.9647 129.838 84.7138 128.812 84.4924 127.694C84.3873 127.103 84.3134 126.505 84.271 125.904C84.271 125.6 84.271 125.148 84.271 124.877V124.056C84.3336 121.963 84.5061 119.876 84.7876 117.805C85.0311 115.752 85.3928 113.748 85.7839 111.752C86.5518 107.755 87.5376 103.813 88.7359 99.9495L94.4111 102.142Z" fill="#FFC3BD"/>
<path d="M91.3631 92.3929C88.8539 93.2142 85.8354 102.865 85.8354 102.865L95.577 110.619C95.577 110.619 99.1342 102.586 98.0789 98.9719C96.9792 95.2101 94.2339 91.4237 91.3631 92.3929Z" fill="#699FC9"/>
<path opacity="0.4" d="M91.3631 92.3929C88.8539 93.2142 85.8354 102.865 85.8354 102.865L95.577 110.619C95.577 110.619 99.1342 102.586 98.0789 98.9719C96.9792 95.2101 94.2339 91.4237 91.3631 92.3929Z" fill="white"/>
<path d="M77.9027 272.538C78.0227 272.491 78.1319 272.415 78.2224 272.316C78.313 272.217 78.3827 272.096 78.4266 271.963C78.4693 271.878 78.4917 271.782 78.4917 271.684C78.4917 271.586 78.4693 271.49 78.4266 271.405C77.9838 270.682 75.7477 270.74 75.4746 270.748C75.4463 270.748 75.4188 270.758 75.3952 270.775C75.3717 270.793 75.3531 270.817 75.3418 270.846C75.3274 270.872 75.3198 270.902 75.3198 270.933C75.3198 270.963 75.3274 270.993 75.3418 271.019C75.9248 271.668 77.0171 272.727 77.7846 272.563L77.9027 272.538ZM75.8289 271.043C76.7219 271.043 77.9174 271.183 78.1536 271.569C78.1738 271.606 78.1844 271.649 78.1844 271.692C78.1844 271.736 78.1738 271.778 78.1536 271.816C78.121 271.915 78.0668 272.003 77.996 272.073C77.9252 272.144 77.8399 272.193 77.7477 272.218C77.3418 272.333 76.6333 271.865 75.8289 271.043Z" fill="#699FC9"/>
<path d="M76.4854 270.871C77.1644 270.633 77.8876 270.214 78.0426 269.746C78.0811 269.624 78.0816 269.492 78.0441 269.369C78.0067 269.247 77.9333 269.143 77.8359 269.073C77.75 268.993 77.6488 268.936 77.5402 268.906C77.4315 268.876 77.3181 268.874 77.2086 268.9C76.3304 269.073 75.3858 270.748 75.3489 270.822C75.3359 270.847 75.3291 270.875 75.3291 270.904C75.3291 270.933 75.3359 270.961 75.3489 270.986C75.3621 271.01 75.3805 271.03 75.4024 271.045C75.4243 271.059 75.449 271.067 75.4743 271.068C75.8182 271.058 76.1587 270.991 76.4854 270.871ZM77.1644 269.229H77.2603C77.3297 269.213 77.4014 269.214 77.4703 269.232C77.5392 269.251 77.6036 269.286 77.6588 269.335C77.8064 269.467 77.7917 269.565 77.7695 269.639C77.6219 270.091 76.5002 270.633 75.7548 270.74C76.0939 270.108 76.5812 269.592 77.1644 269.245V269.229Z" fill="#699FC9"/>
<path d="M118.758 289.064C119.278 289.111 119.798 288.964 120.234 288.645C120.335 288.543 120.413 288.414 120.459 288.271C120.505 288.128 120.519 287.974 120.5 287.824C120.494 287.735 120.468 287.649 120.424 287.574C120.38 287.499 120.32 287.438 120.249 287.396C119.511 286.937 117.038 288.333 116.758 288.489C116.731 288.501 116.708 288.522 116.691 288.549C116.675 288.576 116.667 288.608 116.667 288.641C116.667 288.673 116.675 288.705 116.691 288.732C116.708 288.759 116.731 288.78 116.758 288.793C117.415 288.958 118.085 289.049 118.758 289.064ZM119.858 287.643C119.952 287.636 120.045 287.656 120.131 287.7C120.16 287.718 120.184 287.744 120.201 287.776C120.218 287.808 120.227 287.844 120.227 287.881C120.24 287.976 120.233 288.072 120.204 288.163C120.176 288.253 120.128 288.334 120.064 288.399C119.688 288.776 118.669 288.842 117.304 288.587C118.101 288.114 118.965 287.795 119.858 287.643Z" fill="#699FC9"/>
<path d="M116.845 288.826H116.904C117.642 288.456 119.118 286.978 118.985 286.197C118.985 286.008 118.838 285.787 118.432 285.737C118.286 285.719 118.139 285.735 118 285.783C117.86 285.831 117.731 285.91 117.62 286.017C116.882 286.739 116.705 288.587 116.697 288.661C116.696 288.69 116.702 288.719 116.714 288.745C116.725 288.77 116.742 288.793 116.764 288.809C116.788 288.826 116.817 288.832 116.845 288.826ZM118.321 286.041H118.41C118.675 286.041 118.697 286.197 118.697 286.23C118.771 286.698 117.782 287.873 117.029 288.374C117.088 287.593 117.364 286.853 117.819 286.255C117.954 286.118 118.131 286.042 118.314 286.041H118.321Z" fill="#699FC9"/>
<path d="M95.4288 132.409L94.7942 134.873C94.7056 135.062 94.9122 135.259 95.2001 135.259H121.03C121.259 135.259 121.443 135.136 121.458 134.98L121.687 132.516C121.687 132.343 121.502 132.195 121.259 132.195H95.8421C95.7625 132.189 95.6827 132.205 95.6104 132.242C95.538 132.279 95.4755 132.337 95.4288 132.409Z" fill="#263238"/>
<path d="M98.8378 135.563H98.1515C98.0187 135.563 97.9154 135.489 97.9227 135.39L98.2401 132.105C98.2401 132.015 98.3729 131.933 98.5058 131.933H99.1847C99.3249 131.933 99.4209 132.015 99.4135 132.105L99.0962 135.39C99.0962 135.522 98.9781 135.563 98.8378 135.563Z" fill="#699FC9"/>
<path opacity="0.4" d="M98.8378 135.563H98.1515C98.0187 135.563 97.9154 135.489 97.9227 135.39L98.2401 132.105C98.2401 132.015 98.3729 131.933 98.5058 131.933H99.1847C99.3249 131.933 99.4209 132.015 99.4135 132.105L99.0962 135.39C99.0962 135.522 98.9781 135.563 98.8378 135.563Z" fill="black"/>
<path d="M119.083 135.563H118.404C118.271 135.563 118.168 135.489 118.175 135.39L118.5 132.105C118.5 132.015 118.625 131.933 118.758 131.933H119.437C119.577 131.933 119.681 132.015 119.666 132.105L119.349 135.39C119.341 135.522 119.223 135.563 119.083 135.563Z" fill="#699FC9"/>
<path opacity="0.4" d="M119.083 135.563H118.404C118.271 135.563 118.168 135.489 118.175 135.39L118.5 132.105C118.5 132.015 118.625 131.933 118.758 131.933H119.437C119.577 131.933 119.681 132.015 119.666 132.105L119.349 135.39C119.341 135.522 119.223 135.563 119.083 135.563Z" fill="black"/>
<path d="M108.965 135.563H108.286C108.146 135.563 108.042 135.489 108.057 135.39L108.374 132.105C108.374 132.015 108.5 131.933 108.64 131.933H109.319C109.452 131.933 109.555 132.015 109.548 132.105L109.23 135.39C109.223 135.522 109.098 135.563 108.965 135.563Z" fill="#699FC9"/>
<path opacity="0.4" d="M108.965 135.563H108.286C108.146 135.563 108.042 135.489 108.057 135.39L108.374 132.105C108.374 132.015 108.5 131.933 108.64 131.933H109.319C109.452 131.933 109.555 132.015 109.548 132.105L109.23 135.39C109.223 135.522 109.098 135.563 108.965 135.563Z" fill="black"/>
<path d="M109.474 68.3275L110.588 67.7197C110.588 67.7197 110.145 68.8614 109.474 68.3275Z" fill="#263238"/>
<path d="M94.101 145.452L99.3925 149.969L93.2597 151.472C93.2597 151.472 90.6546 148.187 91.5549 145.477L94.101 145.452Z" fill="#FFC3BD"/>
<path d="M100.692 155.563L95.496 156.507L92.6621 150.577L99.3927 149.969L100.692 155.563Z" fill="#FFC3BD"/>
</svg>
