<svg width="16" height="16" viewBox="0 0 16 16" fill="none" xmlns="http://www.w3.org/2000/svg">
<path d="M11.5388 7.35487L12.8502 10.7738C12.8502 10.7738 13.0063 11.1953 12.8502 11.3514L12.2413 11.9603C12.0852 12.1164 11.8198 12.1164 11.6637 11.9603L9.46246 9.16581L9.43124 9.1502C8.79116 9.63416 8.08864 10.1337 7.44857 10.5396L8.18231 12.1632C8.18231 12.1632 8.27598 12.3974 8.18231 12.4755L7.7608 12.8814C7.66713 12.975 7.52663 12.975 7.44857 12.8814L6.16842 11.2265C5.57518 11.4919 5.13806 11.6012 4.95072 11.4139C4.76338 11.2265 4.85705 10.7738 5.13806 10.1962L3.49884 8.93164C3.40517 8.83797 3.40517 8.69746 3.49884 8.61941L3.77985 8.3384C3.87352 8.24473 4.09208 8.3384 4.09208 8.3384L5.80935 8.99408C6.23087 8.32279 6.73044 7.60465 7.23001 6.94897V6.90213L4.45115 4.68529C4.29503 4.52918 4.29503 4.26378 4.45115 4.10766L4.7946 3.76421C4.95072 3.60809 5.37223 3.76421 5.37223 3.76421L8.94728 4.91946" stroke="#3C3C3C" stroke-width="1.7"/>
<path d="M11.086 7.79175C11.2577 7.63564 11.4138 7.49513 11.5387 7.35463C12.8813 6.01204 13.3028 4.45088 12.6159 3.76397C11.9134 3.06145 10.3679 3.48296 9.02526 4.84117C8.90037 4.96606 8.74425 5.12218 8.58813 5.2939" stroke="#3C3C3C" stroke-width="1.7"/>
</svg>
