<svg width="32" height="32" viewBox="0 0 32 32" fill="none" xmlns="http://www.w3.org/2000/svg">
<path d="M13.4852 14.9275C13.389 14.9179 13.2737 14.9179 13.1679 14.9275C10.8798 14.8506 9.06274 12.9759 9.06274 10.6685C9.06274 8.31309 10.9663 6.3999 13.3314 6.3999C15.6867 6.3999 17.5999 8.31309 17.5999 10.6685C17.5903 12.9759 15.7733 14.8506 13.4852 14.9275Z" stroke="black" stroke-width="1.74" stroke-linecap="round" stroke-linejoin="round"/>
<path opacity="0.7" d="M20.4541 8.32275C22.3192 8.32275 23.819 9.83215 23.819 11.6877C23.819 13.5047 22.3769 14.9853 20.5791 15.0526C20.5022 15.0429 20.4156 15.0429 20.3291 15.0526" stroke="black" stroke-width="1.74" stroke-linecap="round" stroke-linejoin="round"/>
<path d="M8.67829 18.4753C6.3517 20.0328 6.3517 22.5708 8.67829 24.1187C11.3221 25.8877 15.6581 25.8877 18.3019 24.1187C20.6285 22.5612 20.6285 20.0231 18.3019 18.4753C15.6677 16.7159 11.3318 16.7159 8.67829 18.4753Z" stroke="black" stroke-width="1.74" stroke-linecap="round" stroke-linejoin="round"/>
<path opacity="0.7" d="M22.3101 23.7054C23.0023 23.5612 23.656 23.2824 24.1944 22.869C25.6942 21.7442 25.6942 19.8887 24.1944 18.7638C23.6656 18.36 23.0215 18.0908 22.3389 17.937" stroke="black" stroke-width="1.74" stroke-linecap="round" stroke-linejoin="round"/>
</svg>
