<svg width="14" height="14" viewBox="0 0 14 14" fill="none" xmlns="http://www.w3.org/2000/svg">
<path d="M10.2861 3.98686C10.2122 3.90649 10.0872 3.90114 10.0067 3.97493C9.92631 4.04878 9.92096 4.17384 9.9948 4.25428C10.6412 4.95837 10.9971 5.87289 10.9971 6.82937C10.9971 8.92965 9.28844 10.6383 7.18816 10.6383C5.08789 10.6383 3.37917 8.92965 3.37917 6.82937C3.37917 4.7291 5.08786 3.02041 7.18814 3.02041C7.98429 3.02041 8.74682 3.26344 9.39327 3.72324C9.48225 3.78659 9.6057 3.76566 9.66893 3.6767C9.73221 3.58773 9.7114 3.4643 9.6224 3.40105C8.90867 2.89336 8.0669 2.625 7.18814 2.625C4.86986 2.625 2.98376 4.5111 2.98376 6.82937C2.98376 9.14765 4.86986 11.0337 7.18814 11.0337C9.50642 11.0337 11.3925 9.14765 11.3925 6.82937C11.3925 5.7736 10.9996 4.76409 10.2861 3.98686Z" fill="#699FC9" stroke="#699FC9" stroke-width="0.2"/>
<path d="M7.18805 4.10107C5.6837 4.10107 4.45984 5.32496 4.45984 6.82929C4.45984 7.30894 4.58613 7.78074 4.82501 8.19366C4.87969 8.28814 5.00062 8.32044 5.09515 8.26577C5.18965 8.21107 5.22195 8.09014 5.16726 7.99564C4.96311 7.64282 4.8552 7.23952 4.8552 6.82929C4.8552 5.54296 5.9017 4.49646 7.18802 4.49646C8.47435 4.49646 9.52085 5.54296 9.52085 6.82929C9.52085 8.11561 8.47437 9.16211 7.18805 9.16211C6.61309 9.16211 6.06079 8.95117 5.6328 8.56809C5.55139 8.49519 5.42644 8.50219 5.35364 8.58352C5.28082 8.66488 5.28775 8.78986 5.36908 8.86271C5.86964 9.31074 6.51565 9.5575 7.18802 9.5575C8.69237 9.5575 9.91623 8.33361 9.91623 6.82929C9.91623 5.32496 8.6924 4.10107 7.18805 4.10107Z" fill="#699FC9" stroke="#699FC9" stroke-width="0.2"/>
<path d="M2.75979 3.0469C2.65059 3.0469 2.56209 3.13538 2.56209 3.2446V4.72074C2.56209 4.84429 2.46157 4.94481 2.33802 4.94481H2.11395V3.24458C2.11395 3.13538 2.02547 3.04688 1.91625 3.04688C1.80705 3.04688 1.71854 3.13536 1.71854 3.24458V4.94479H1.49448C1.37093 4.94479 1.27041 4.84427 1.27041 4.72072V3.24458C1.27041 3.13538 1.18193 3.04688 1.0727 3.04688C0.963507 3.04688 0.875 3.13536 0.875 3.24458V4.72072C0.875 5.06229 1.15288 5.34017 1.49445 5.34017H1.71852V7.89706H1.49445C1.38525 7.89706 1.29675 7.98554 1.29675 8.09477V9.99265C1.29675 10.3342 1.57462 10.6121 1.9162 10.6121C2.25777 10.6121 2.53565 10.3342 2.53565 9.99265V8.09477C2.53565 7.98557 2.44717 7.89706 2.33795 7.89706H2.11388V5.34019H2.33795C2.67952 5.34019 2.9574 5.06232 2.9574 4.72074V3.24458C2.9575 3.13538 2.86899 3.0469 2.75979 3.0469ZM2.14034 8.29247V9.99268C2.14034 10.1162 2.03982 10.2167 1.91627 10.2167C1.79272 10.2167 1.69221 10.1162 1.69221 9.99268V8.29247H2.14034Z" fill="#699FC9" stroke="#699FC9" stroke-width="0.2"/>
<path d="M13.3765 3.06086C13.3012 3.03092 13.2153 3.05003 13.1597 3.10892C12.9062 3.37774 12.6843 3.6736 12.5002 3.98827C11.8413 5.11502 11.7782 6.2786 11.8412 7.05635C11.8495 7.15899 11.9353 7.23808 12.0383 7.23808H12.2623V9.99265C12.2623 10.3342 12.5402 10.6121 12.8818 10.6121C13.2234 10.6121 13.5012 10.3342 13.5012 9.99265V3.24458C13.5012 3.16359 13.4518 3.09074 13.3765 3.06086ZM12.46 6.84267H12.2236C12.1898 6.12931 12.2837 5.1419 12.8416 4.18787C12.922 4.05041 13.0102 3.91683 13.1058 3.7879V7.89706H12.6577V7.04037C12.6577 6.93118 12.5692 6.84267 12.46 6.84267ZM13.1059 9.99265C13.1059 10.1162 13.0053 10.2167 12.8818 10.2167C12.7582 10.2167 12.6577 10.1162 12.6577 9.99265V8.29245H13.1058V9.99265H13.1059Z" fill="#699FC9" stroke="#699FC9" stroke-width="0.2"/>
<path d="M7.18835 5.26074C6.4526 5.26074 5.93628 6.48347 5.93628 7.14546C5.93628 7.83583 6.49798 8.39753 7.18835 8.39753C7.87873 8.39753 8.44042 7.83583 8.44042 7.14546C8.44042 6.48347 7.9241 5.26074 7.18835 5.26074ZM7.18835 5.65613C7.36687 5.65613 7.54968 5.8344 7.70041 6.07886C7.54435 6.1648 7.37013 6.20968 7.18835 6.20968C7.00658 6.20968 6.83235 6.1648 6.6763 6.07886C6.82702 5.8344 7.00983 5.65613 7.18835 5.65613ZM6.49837 6.43237C6.70922 6.54588 6.94382 6.60507 7.18835 6.60507C7.43289 6.60507 7.66748 6.54583 7.87833 6.43237C7.91569 6.52366 7.9479 6.61666 7.97382 6.70773C7.77177 6.92815 7.49057 7.0532 7.18835 7.0532C6.88613 7.0532 6.60493 6.92815 6.40291 6.70771C6.42883 6.61664 6.46101 6.52366 6.49837 6.43237ZM7.18835 8.00215C6.72508 8.00215 6.34681 7.63248 6.33235 7.17263C6.57822 7.35083 6.87511 7.44859 7.18835 7.44859C7.50162 7.44859 7.79851 7.35081 8.04435 7.17263C8.0299 7.63248 7.65163 8.00215 7.18835 8.00215Z" fill="#699FC9" stroke="#699FC9" stroke-width="0.2"/>
</svg>
