<svg width="14" height="14" viewBox="0 0 14 14" fill="none" xmlns="http://www.w3.org/2000/svg">
<path d="M6.99413 1.16675C3.77413 1.16675 1.16663 3.78008 1.16663 7.00008C1.16663 10.2201 3.77413 12.8334 6.99413 12.8334C10.22 12.8334 12.8333 10.2201 12.8333 7.00008C12.8333 3.78008 10.22 1.16675 6.99413 1.16675ZM6.99996 11.6667C4.42163 11.6667 2.33329 9.57841 2.33329 7.00008C2.33329 4.42175 4.42163 2.33341 6.99996 2.33341C9.57829 2.33341 11.6666 4.42175 11.6666 7.00008C11.6666 9.57841 9.57829 11.6667 6.99996 11.6667ZM6.41663 8.75008H7.58329V9.91675H6.41663V8.75008ZM6.41663 4.08341H7.58329V7.58341H6.41663V4.08341Z" fill="#A5A5A5" fill-opacity="0.67"/>
</svg>
