<svg width="13" height="12" viewBox="0 0 13 12" fill="none" xmlns="http://www.w3.org/2000/svg">
<path d="M6.09836 0C2.73207 0 0 2.688 0 6C0 9.312 2.73207 12 6.09836 12C9.46465 12 12.1967 9.312 12.1967 6C12.1967 2.688 9.46465 0 6.09836 0ZM6.09836 2.4C7.27534 2.4 8.23279 3.342 8.23279 4.5C8.23279 5.658 7.27534 6.6 6.09836 6.6C4.92138 6.6 3.96393 5.658 3.96393 4.5C3.96393 3.342 4.92138 2.4 6.09836 2.4ZM6.09836 10.8C4.86039 10.8 3.39679 10.308 2.35397 9.072C3.42216 8.24743 4.74063 7.79928 6.09836 7.79928C7.45609 7.79928 8.77456 8.24743 9.84275 9.072C8.79993 10.308 7.33633 10.8 6.09836 10.8Z" fill="#699FC9"/>
</svg>
