<svg width="20" height="18" viewBox="0 0 20 18" fill="none" xmlns="http://www.w3.org/2000/svg">
<path d="M11.6276 2.53288C10.9674 2.07643 10.4914 1.59326 10.19 1.24121C9.88857 1.59326 9.41017 2.074 8.74758 2.53288C7.51091 3.38752 6.09484 3.85855 4.52807 3.93867V9.5934C4.52807 9.79977 4.55438 10.0401 4.6094 10.3072C4.6094 10.3072 5.29112 14.663 10.19 16.9137C10.19 16.9137 13.7469 15.5468 15.3089 11.7179C15.6725 10.8754 15.8447 10.1203 15.8447 9.5934V3.93867C14.2779 3.85855 12.8618 3.38752 11.6276 2.53288Z" fill="white"/>
<path d="M12.5727 8.74008L13.6371 6.42381H12.123L11.0586 8.74008H12.5727ZM7.87001 6.42381L6.80556 8.74008H8.31971L9.38415 6.42381H7.87001ZM11.5106 6.42381H9.99651L8.93206 8.74008H10.4462L11.5106 6.42381ZM4.93023 6.42381V8.74008H6.19321L7.25765 6.42381H4.93023ZM15.4455 8.74008V6.42381H14.2495L13.1851 8.74008H15.4455Z" fill="#699FC9"/>
<path d="M10.1885 16.9132C8.2653 16.0683 6.87314 14.7013 5.94983 13.3319C5.4499 13.162 4.9691 12.9799 4.50984 12.7929C4.70359 13.162 4.92126 13.531 5.16285 13.8855C6.0168 15.1456 7.54769 16.8622 9.98994 17.8795C10.0545 17.9062 10.1215 17.9208 10.1885 17.9208C10.2555 17.9208 10.3224 17.9086 10.387 17.8819C12.1643 17.139 13.4584 16.0294 14.3601 14.9927C13.9607 14.9732 13.5493 14.9417 13.1307 14.9004C12.3389 15.6871 11.363 16.3985 10.1885 16.9132ZM19.0915 10.0153C18.9145 9.8551 18.7112 9.69242 18.4816 9.53218C18.0151 9.19955 17.4482 8.86692 16.8 8.54643V3.51569C16.8 3.21948 16.5656 2.97911 16.2785 2.97911C14.7357 2.97183 13.3531 2.55179 12.1667 1.73114C11.2457 1.09501 10.7506 0.422465 10.619 0.230656C10.521 0.0874066 10.3607 0 10.1885 0C10.0186 0 9.85599 0.0849789 9.75791 0.228229C9.62635 0.420038 9.12881 1.09258 8.20789 1.72871C7.01906 2.54936 5.63408 2.9694 4.09362 2.97668C3.80658 2.97911 3.57217 3.21948 3.57217 3.51326V5.76155C3.27556 5.78098 2.99569 5.80768 2.73257 5.8441C2.14174 5.92423 1.63942 6.04562 1.23038 6.20587C0.536701 6.48023 0.13245 6.86385 0.0272016 7.34701C-0.0732629 7.80832 0.113314 8.30363 0.577365 8.82321L0.579757 8.82564C0.589325 8.83535 0.596501 8.84507 0.606069 8.85478C1.03902 9.3258 1.69444 9.80654 2.55556 10.2848C2.61297 10.3164 2.67277 10.3504 2.73257 10.382C3.0531 10.5543 3.39755 10.7243 3.75874 10.887C3.86399 11.29 4.0123 11.7101 4.19648 12.135C4.62226 12.3219 5.07196 12.5016 5.54318 12.674C5.28963 12.2272 5.08392 11.7878 4.92605 11.375C6.24883 11.8873 7.74623 12.3389 9.32257 12.6934C11.0927 13.0916 12.8245 13.3344 14.3721 13.4096C14.1305 13.7617 13.8602 14.1113 13.5564 14.4512C13.9655 14.4852 14.3649 14.5095 14.75 14.5216C14.9223 14.3007 15.0754 14.087 15.2117 13.8855C15.3122 13.7374 15.4078 13.5869 15.5011 13.4339C15.8336 13.4315 16.1518 13.4218 16.4603 13.3999C17.2617 13.3465 17.941 13.2324 18.484 13.06C18.6036 13.0212 18.716 12.9823 18.8213 12.9386C19.0294 12.8536 19.2112 12.7565 19.3642 12.6521C19.2853 12.5161 19.1848 12.385 19.0748 12.2612C18.9169 12.368 18.7184 12.4627 18.484 12.5453C17.9649 12.7298 17.2664 12.8585 16.4292 12.9143C16.2211 12.9289 16.0059 12.9386 15.7834 12.9435C16.4245 11.7586 16.8024 10.5374 16.8024 9.59045V9.08786C17.4722 9.43263 18.0415 9.78711 18.484 10.1343C18.5892 10.2169 18.6849 10.297 18.7758 10.3795C19.1657 10.7316 19.6082 11.2487 19.5078 11.7149C19.491 11.7878 19.4623 11.8557 19.4216 11.9237C19.5436 12.0573 19.6465 12.1908 19.7278 12.3219C19.8522 12.1689 19.9335 12.0014 19.9742 11.8193C20.0938 11.2609 19.7972 10.6539 19.0915 10.0153ZM2.78519 9.8551C2.76845 9.84538 2.74931 9.83567 2.73257 9.82596C1.92168 9.37193 1.30693 8.91062 0.926599 8.4833C0.924206 8.4833 0.924207 8.48573 0.921815 8.48573C0.771118 8.33034 0.673045 8.16038 0.637165 8.09482C0.503212 7.85931 0.450588 7.64322 0.493644 7.44899C0.608461 6.91726 1.42653 6.51908 2.73257 6.33212C2.9933 6.2957 3.27316 6.26657 3.57217 6.24715V9.59288C3.57217 9.81139 3.59369 10.0469 3.63197 10.2921C3.33536 10.1489 3.05071 10.0032 2.78519 9.8551ZM15.8456 9.59288C15.8456 10.3625 15.4748 11.6299 14.6783 12.9362C13.09 12.8803 11.2816 12.6351 9.42781 12.2175C7.72231 11.8339 6.11248 11.3386 4.72512 10.7729C4.59356 10.3164 4.52897 9.91094 4.52897 9.59288V3.93815C6.09574 3.85803 7.51181 3.38701 8.74848 2.53236C9.41107 2.07591 9.88708 1.59274 10.1909 1.24069C10.4923 1.59274 10.9683 2.07348 11.6285 2.53236C12.8627 3.38701 14.2788 3.85803 15.8456 3.93815V9.59288Z" fill="#353E45"/>
<path d="M3.56435 7.34519C2.60516 7.40589 1.81819 7.55642 1.22975 7.78951C1.00012 7.87934 0.801582 7.98374 0.636533 8.09786C0.708294 8.22411 0.806366 8.35279 0.925966 8.48876C1.43307 8.14884 2.34921 7.91819 3.56435 7.83564V7.34519Z" fill="#353E45"/>
<path d="M0.634144 8.09177C0.670024 8.15732 0.770489 8.32728 0.918794 8.48267C0.921186 8.48267 0.921186 8.48024 0.923578 8.48024C0.806369 8.34671 0.708297 8.21802 0.634144 8.09177C0.636536 8.09177 0.636536 8.09177 0.634144 8.09177ZM19.7248 12.3189C19.6411 12.1877 19.5382 12.0542 19.4186 11.9207C19.3205 11.8138 19.2129 11.7046 19.0909 11.5953C18.5455 11.1024 17.749 10.595 16.7707 10.1118C16.7611 10.1774 16.718 10.4687 16.6893 10.6144C17.5696 11.0587 18.2824 11.5176 18.7728 11.9595C18.8732 12.0493 18.9761 12.1513 19.0718 12.2582C19.1818 12.3796 19.2823 12.5131 19.3612 12.6491C19.4832 12.8603 19.5502 13.0837 19.5047 13.2949C19.366 13.9286 18.2154 14.3778 16.4286 14.4967C15.9071 14.5307 15.3426 14.538 14.7494 14.5186C14.3643 14.5064 13.9648 14.4822 13.5558 14.4482C12.2593 14.3389 10.8576 14.1204 9.42718 13.7975C8.04699 13.4867 6.73138 13.1031 5.54494 12.6685C5.07372 12.4961 4.62402 12.3164 4.19824 12.1295C3.69113 11.9061 3.21752 11.673 2.78695 11.4351C1.2154 10.5634 0.359063 9.66266 0.495408 9.02896C0.512152 8.95612 0.540856 8.88571 0.58152 8.82016L0.579128 8.81773C0.5576 8.79588 0.421255 8.65506 0.272951 8.42197C0.148566 8.57493 0.0672378 8.74246 0.0265736 8.92456C-0.0762829 9.39558 0.119862 9.90303 0.607832 10.4323C1.04079 10.9033 1.6962 11.3841 2.55732 11.8624C3.14097 12.1853 3.79878 12.4985 4.51399 12.7899C4.97086 12.9768 5.45165 13.1565 5.95398 13.3289C7.00646 13.6882 8.14267 14.0087 9.32432 14.2734C10.6351 14.5671 11.9244 14.7784 13.1324 14.8973C13.5534 14.9386 13.9648 14.9702 14.3619 14.9896C14.7135 15.0066 15.0532 15.0163 15.3833 15.0163C15.7564 15.0163 16.1176 15.0042 16.4597 14.9823C17.438 14.9168 18.2322 14.7614 18.8206 14.521C19.4832 14.2491 19.8707 13.8727 19.9736 13.4017C20.0477 13.057 19.964 12.6952 19.7248 12.3189Z" fill="#353E45"/>
<path d="M0.585196 8.83144C0.585196 8.83144 0.57707 8.83144 0.57707 8.82272C0.57707 8.82272 0.585196 8.82272 0.585196 8.83144Z" fill="#353E45"/>
</svg>
