<svg width="388" height="262" viewBox="0 0 388 262" fill="none" xmlns="http://www.w3.org/2000/svg">
<path d="M388 230.241H0V230.417H388V230.241Z" fill="#EBEBEB"/>
<path d="M349.123 241.557H323.422V241.732H349.123V241.557Z" fill="#EBEBEB"/>
<path d="M257.027 243.469H250.283V243.645H257.027V243.469Z" fill="#EBEBEB"/>
<path d="M322.644 235.031H307.753V235.207H322.644V235.031Z" fill="#EBEBEB"/>
<path d="M74.2239 236.212H40.7085V236.388H74.2239V236.212Z" fill="#EBEBEB"/>
<path d="M86.0512 236.212H81.1392V236.388H86.0512V236.212Z" fill="#EBEBEB"/>
<path d="M174.717 239.18H102.021V239.355H174.717V239.18Z" fill="#EBEBEB"/>
<path d="M183.912 198.877H34.0746C32.9007 198.875 31.7757 198.451 30.9464 197.698C30.1171 196.946 29.6514 195.925 29.6514 194.861V3.98035C29.6616 2.92269 30.1319 1.9114 30.96 1.16613C31.7882 0.420861 32.9074 0.00181183 34.0746 0H183.912C185.088 0 186.215 0.423062 187.046 1.17612C187.877 1.92917 188.343 2.95053 188.343 4.01551V194.861C188.343 195.926 187.877 196.948 187.046 197.701C186.215 198.454 185.088 198.877 183.912 198.877ZM34.0746 0.140649C32.9522 0.142512 31.8765 0.547872 31.0836 1.26775C30.2907 1.98764 29.8454 2.96322 29.8454 3.98035V194.861C29.8454 195.879 30.2907 196.854 31.0836 197.574C31.8765 198.294 32.9522 198.699 34.0746 198.701H183.912C185.036 198.699 186.112 198.294 186.906 197.574C187.7 196.855 188.147 195.879 188.149 194.861V3.98035C188.147 2.96257 187.7 1.98701 186.906 1.26732C186.112 0.547643 185.036 0.142508 183.912 0.140649H34.0746Z" fill="#EBEBEB"/>
<path d="M351.769 198.877H201.923C200.749 198.875 199.623 198.451 198.792 197.699C197.962 196.946 197.494 195.926 197.492 194.861V3.98035C197.504 2.92205 197.976 1.91076 198.806 1.16569C199.635 0.420615 200.755 0.00179207 201.923 0H351.769C352.935 0.00366002 354.052 0.423527 354.878 1.1686C355.705 1.91367 356.174 2.92391 356.184 3.98035V194.861C356.184 195.924 355.719 196.943 354.892 197.696C354.064 198.449 352.941 198.873 351.769 198.877ZM201.923 0.140649C200.8 0.142508 199.724 0.547643 198.929 1.26732C198.135 1.98701 197.688 2.96257 197.686 3.98035V194.861C197.688 195.879 198.135 196.855 198.929 197.574C199.724 198.294 200.8 198.699 201.923 198.701H351.769C352.892 198.699 353.968 198.294 354.762 197.574C355.557 196.855 356.004 195.879 356.006 194.861V3.98035C356.004 2.96257 355.557 1.98701 354.762 1.26732C353.968 0.547643 352.892 0.142508 351.769 0.140649H201.923Z" fill="#EBEBEB"/>
<path d="M148.416 40.5074C158.239 38.4063 164.322 29.4866 162.004 20.5846C159.686 11.6826 149.843 6.16933 140.02 8.2704C130.197 10.3715 124.113 19.2912 126.432 28.1932C128.75 37.0952 138.593 42.6084 148.416 40.5074Z" fill="#E0E0E0"/>
<path d="M146.715 38.2807C155.188 37.0343 160.942 29.7988 159.567 22.1198C158.192 14.4409 150.207 9.22634 141.734 10.4728C133.261 11.7193 127.507 18.9548 128.882 26.6337C130.257 34.3126 138.242 39.5272 146.715 38.2807Z" fill="#F0F0F0"/>
<path d="M144.949 14.719V24.5644L152.15 20.8724" fill="#F0F0F0"/>
<path d="M144.949 14.719V24.5644L152.15 20.8724" stroke="#E0E0E0" stroke-width="2" stroke-linecap="round" stroke-linejoin="round"/>
<path d="M57.2532 204.137C57.2532 203.856 58.3008 176.233 63.2594 171.865C68.0784 167.646 73.6112 171.711 73.844 171.865L74.3407 171.324C74.2786 171.275 68.0318 166.654 62.7007 171.324C57.517 175.895 56.4927 202.928 56.4927 204.081L57.2532 204.137Z" fill="#E0E0E0"/>
<path d="M56.8342 209.566C56.8342 209.236 60.2176 176.401 46.9868 162.646L46.4048 163.103C59.4183 176.641 56.097 209.173 56.0582 209.517L56.8342 209.566Z" fill="#E0E0E0"/>
<path d="M57.3235 206.092L58.0995 206.043C58.0995 205.677 55.5154 168.722 65.2154 160.635L64.6955 160.114C54.7084 168.434 57.2071 204.559 57.3235 206.092Z" fill="#E0E0E0"/>
<path d="M56.0584 206.05H56.8344C56.8344 205.037 56.5163 181.092 49.0124 177.217C48.2993 176.799 47.4862 176.542 46.641 176.468C45.7959 176.393 44.9433 176.503 44.1546 176.788C39.615 178.49 37.3646 185.804 37.2715 186.12L38.0475 186.303C38.0475 186.233 40.2901 179.003 44.4728 177.435C45.153 177.195 45.8867 177.105 46.6128 177.174C47.339 177.242 48.0366 177.467 48.6476 177.829C55.748 181.514 56.0584 205.825 56.0584 206.05Z" fill="#E0E0E0"/>
<path d="M58.9766 206.092L59.7526 206.05C59.7526 205.86 58.6196 187.133 64.199 180.529C65.5493 178.933 67.0159 178.166 68.5679 178.265C72.2229 178.497 75.2881 183.342 75.3191 183.392L75.9942 183.047C75.8623 182.836 72.6962 177.822 68.6222 177.569C66.8064 177.449 65.107 178.272 63.586 180.1C57.8281 186.908 58.93 205.347 58.9766 206.092Z" fill="#E0E0E0"/>
<path d="M57.7572 208.638C57.9046 206.824 61.4044 164.052 55.2507 156.514L54.6299 156.929C60.6128 164.256 57.02 208.139 56.9579 208.582L57.7572 208.638Z" fill="#E0E0E0"/>
<path d="M42.4777 181.113C42.4777 181.113 46.1714 182.344 45.0695 185.255C43.9676 188.167 32.3121 192.956 32.3121 192.956C32.3121 192.956 27.4233 188.898 31.9163 182.294C36.4094 175.691 42.3768 179.031 42.4777 181.113Z" fill="#EBEBEB"/>
<path d="M58.5177 175.578C58.5177 175.578 54.5911 175.424 54.3661 178.497C54.141 181.57 62.9021 190.051 62.9021 190.051C62.9021 190.051 69.1101 188.012 67.7986 180.353C66.4872 172.695 59.4954 173.701 58.5177 175.578Z" fill="#EBEBEB"/>
<path d="M61.8404 160.888C61.8404 160.888 59.2253 160.635 59.4348 159.193C59.6443 157.751 69.6159 154.024 75.498 160.037C75.498 160.037 71.7344 165.902 66.2869 165.979C60.8394 166.057 61.8404 160.888 61.8404 160.888Z" fill="#EBEBEB"/>
<path d="M56.958 157.379C56.958 157.379 59.3326 158.419 60 157.09C60.6673 155.761 54.374 147.829 45.869 150.114C45.869 150.114 45.644 156.893 50.2224 159.573C54.8008 162.252 56.958 157.379 56.958 157.379Z" fill="#EBEBEB"/>
<path d="M69.3596 179.946C69.3596 179.946 67.5516 178.624 69.5071 177.977C71.4626 177.33 81.0229 177.512 81.1471 186.106C81.1471 186.106 70.0037 187.787 68.6224 184.51C67.2412 181.233 69.3596 179.946 69.3596 179.946Z" fill="#EBEBEB"/>
<path d="M46.6298 160.677C46.6298 160.677 48.4379 159.355 46.4901 158.708C44.5423 158.061 34.9665 158.244 34.8501 166.837C34.8501 166.837 46.0012 168.518 47.3747 165.241C48.7483 161.964 46.6298 160.677 46.6298 160.677Z" fill="#EBEBEB"/>
<path d="M52.5267 167.597C52.5267 167.597 52.6819 165.986 51.2463 166.619C49.8107 167.252 44.8288 172.126 49.997 176.753C49.997 176.753 56.981 172.083 55.7083 169.65C54.4357 167.217 52.5267 167.597 52.5267 167.597Z" fill="#EBEBEB"/>
<path d="M70.9804 169.889C70.9804 169.889 69.894 168.602 71.477 168.448C73.0601 168.293 80.1527 170.002 78.461 176.415C78.461 176.415 69.8242 175.825 69.4517 173.166C69.0792 170.508 70.9804 169.889 70.9804 169.889Z" fill="#EBEBEB"/>
<path d="M41.7875 229.883H71.4307L74.6278 200.473H38.5903L41.7875 229.883Z" fill="#F0F0F0"/>
<path d="M37.0157 203.715H76.2192V197.224H37.0157V203.715Z" fill="#E6E6E6"/>
<path d="M105.791 62.7854H35.4468V66.0625H105.791V62.7854Z" fill="#E0E0E0"/>
<path d="M41.7793 50.7109H38.6831V62.7856H41.7793V50.7109Z" fill="#EBEBEB"/>
<path d="M56.7647 50.7109H53.6685V62.7856H56.7647V50.7109Z" fill="#EBEBEB"/>
<path d="M73.7846 50.4108L70.7334 50.8875L72.9967 62.7866L76.0479 62.31L73.7846 50.4108Z" fill="#EBEBEB"/>
<path d="M45.6211 52.3H42.5249V62.7854H45.6211V52.3Z" fill="#EBEBEB"/>
<path d="M52.7452 52.3H49.6489V62.7854H52.7452V52.3Z" fill="#EBEBEB"/>
<path d="M70.7247 52.3H67.6284V62.7854H70.7247V52.3Z" fill="#EBEBEB"/>
<path d="M60.8438 51.9384L57.8213 52.5471L60.3314 62.7827L63.3539 62.174L60.8438 51.9384Z" fill="#EBEBEB"/>
<path d="M48.3064 50.113H46.7544V62.7855H48.3064V50.113Z" fill="#EBEBEB"/>
<path d="M66.7366 50.113H65.1846V62.7855H66.7366V50.113Z" fill="#EBEBEB"/>
<path d="M99.0419 53.2285H83.9409V62.6731H99.0419V53.2285Z" fill="#EBEBEB"/>
<path d="M35.4476 90.5073L105.792 90.5073V87.2302L35.4476 87.2302V90.5073Z" fill="#E0E0E0"/>
<path d="M99.4594 87.2302H102.556V75.1556H99.4594V87.2302Z" fill="#EBEBEB"/>
<path d="M84.4755 87.2302H87.5718V75.1556H84.4755V87.2302Z" fill="#EBEBEB"/>
<path d="M65.208 86.7577L68.2593 87.2344L70.5226 75.3352L67.4713 74.8586L65.208 86.7577Z" fill="#EBEBEB"/>
<path d="M95.6196 87.2373H98.7158V76.752H95.6196V87.2373Z" fill="#EBEBEB"/>
<path d="M88.4951 87.2373H91.5913V76.752H88.4951V87.2373Z" fill="#EBEBEB"/>
<path d="M70.5078 87.2373H73.604V76.752H70.5078V87.2373Z" fill="#EBEBEB"/>
<path d="M77.9013 86.6198L80.9238 87.2285L83.434 76.9929L80.4115 76.3842L77.9013 86.6198Z" fill="#EBEBEB"/>
<path d="M92.9338 87.2302H94.4858V74.5578H92.9338V87.2302Z" fill="#EBEBEB"/>
<path d="M74.4959 87.2302H76.0479V74.5578H74.4959V87.2302Z" fill="#EBEBEB"/>
<path d="M42.1988 87.1248H57.2998V77.6802H42.1988V87.1248Z" fill="#EBEBEB"/>
<path d="M333.229 39.895H205.616V142.512H333.229V39.895Z" fill="#E6E6E6"/>
<path d="M329.87 42.708H208.814V139.755H329.87V42.708Z" fill="#F0F0F0"/>
<path d="M237.224 42.708L208.814 139.544V94.0447L223.815 42.708H237.224Z" fill="white"/>
<path d="M247.288 42.708L218.63 139.755H214.052L242.717 42.708H247.288Z" fill="white"/>
<path d="M329.869 103.946V119.453L324.073 139.755H319.502L329.869 103.946Z" fill="white"/>
<path d="M251.044 40.9639H249.003V141.921H251.044V40.9639Z" fill="#E6E6E6"/>
<path d="M290.558 40.9639H288.517V141.921H290.558V40.9639Z" fill="#E6E6E6"/>
<path d="M343.583 212.45C343.742 212.146 343.819 211.812 343.807 211.475C343.795 211.139 343.694 210.81 343.514 210.517C343.333 210.223 343.077 209.972 342.768 209.786C342.459 209.6 342.105 209.484 341.736 209.447C342.062 208.581 342.088 207.645 341.811 206.765C341.533 205.885 340.966 205.103 340.184 204.524C339.996 204.367 339.756 204.271 339.501 204.25C339.231 204.276 338.976 204.376 338.772 204.538L334.441 207.351C334.095 207.543 333.803 207.805 333.588 208.118C332.703 209.672 335.916 211.634 334.581 212.942C334.201 213.308 333.596 213.385 333.13 213.645C332.098 214.229 331.974 215.509 331.493 216.521C331.012 217.534 329.343 218.315 328.699 217.379C329.172 216.409 327.745 215.579 326.581 215.452C325.417 215.326 324.206 215.27 323.562 214.285C321.917 215.586 318.223 211.95 318.308 210.48C316.958 210.572 316.035 211.725 315.74 212.872C315.55 214.082 315.503 215.308 315.6 216.528C315.554 218.912 314.708 221.24 314.754 223.617C314.793 225.467 315.585 227.52 317.447 228.265C318.376 228.566 319.365 228.686 320.349 228.617L341.635 228.498C342.147 228.527 342.659 228.45 343.133 228.273C344.095 227.815 344.297 226.669 344.382 225.692C344.765 221.5 345.148 217.311 345.53 213.125L343.583 212.45Z" fill="#E0E0E0"/>
<path d="M344.823 192.062H311.797L312.068 195.086L312.262 197.245L312.767 202.871L313.054 206.099L313.434 210.396L313.597 212.239L313.652 212.787L313.846 214.953L314.109 217.921L314.272 219.763L314.443 221.634L314.637 223.8L314.784 225.438L314.947 227.281L315.017 228.083H345.32L345.39 227.281L345.553 225.445L345.7 223.793L345.894 221.627L346.065 219.763L346.228 217.921L346.492 214.946L346.686 212.787L346.732 212.239L346.895 210.396L347.283 206.099L347.57 202.878L348.067 197.252L348.261 195.093L348.533 192.07L344.823 192.062ZM346.81 194.046L346.174 193.469H346.872L346.81 194.046ZM346.647 195.881L346.585 196.584L343.628 199.264L340.237 196.205L343.271 193.455H343.985L346.647 195.881ZM345.793 205.459L343.628 207.456L340.237 204.383L343.628 201.317L345.956 203.427L345.793 205.459ZM314.365 203.406L316.693 201.296L320.085 204.362L316.709 207.456L314.552 205.494L314.365 203.406ZM342.534 200.283L339.112 203.357L335.721 200.283L339.112 197.21L342.534 200.283ZM337.203 193.469H341.083L339.143 195.227L337.203 193.469ZM338.041 204.348L334.658 207.456L331.267 204.383L334.658 201.317L338.041 204.348ZM326.781 208.413L330.173 205.347L333.556 208.413L330.173 211.486L326.781 208.413ZM329.071 212.478L325.68 215.551L322.296 212.485L325.687 209.411L329.071 212.478ZM334.658 209.411L338.041 212.485L334.658 215.551L331.267 212.478L334.658 209.411ZM330.173 203.357L326.781 200.283L330.173 197.21L333.556 200.283L330.173 203.357ZM329.071 204.348L325.687 207.456L322.296 204.383L325.687 201.317L329.071 204.348ZM321.194 203.357L317.811 200.283L321.194 197.21L324.585 200.283L321.194 203.357ZM321.194 205.347L324.585 208.413L321.194 211.486L317.811 208.413L321.194 205.347ZM324.585 216.549L321.194 219.616L317.811 216.549L321.194 213.476L324.585 216.549ZM325.68 217.541L329.071 220.614L325.687 223.687L322.296 220.614L325.68 217.541ZM326.781 216.549L330.173 213.476L333.556 216.549L330.173 219.616L326.781 216.549ZM334.658 217.541L338.041 220.614L334.658 223.687L331.267 220.614L334.658 217.541ZM339.143 221.606L342.534 224.679L340.338 226.669H337.948L335.752 224.679L339.143 221.606ZM335.752 216.549L339.143 213.476L342.534 216.549L339.112 219.616L335.752 216.549ZM335.752 208.413L339.112 205.347L342.503 208.413L339.112 211.486L335.752 208.413ZM338.041 196.205L334.658 199.278L331.267 196.205L334.301 193.455H335.015L338.041 196.205ZM330.173 195.213L328.233 193.455H332.113L330.173 195.213ZM329.071 196.205L325.687 199.278L322.296 196.205L325.33 193.455H326.044L329.071 196.205ZM323.134 193.455L321.194 195.213L319.262 193.455H323.134ZM317.066 193.455L320.1 196.205L316.709 199.278L313.76 196.598L313.698 195.895L316.352 193.483L317.066 193.455ZM314.164 193.455L313.535 194.025L313.481 193.455H314.164ZM313.954 198.764L315.615 200.269L314.202 201.549L313.954 198.764ZM314.878 209.067L314.746 207.611L315.615 208.399L314.839 209.067H314.878ZM315.041 210.916L316.709 209.397L320.1 212.471L316.709 215.537L315.343 214.299L315.041 210.916ZM315.545 216.599V216.465L315.623 216.535L315.553 216.599H315.545ZM316.135 223.146L315.708 218.434L316.709 217.527L320.1 220.6L316.709 223.666L316.135 223.146ZM316.445 226.662L316.383 225.959L316.709 225.663L317.811 226.662H316.445ZM317.811 224.672L321.194 221.599L324.585 224.672L322.389 226.662H319.999L317.811 224.672ZM324.585 226.662L325.687 225.663L326.789 226.662H324.585ZM328.978 226.662L326.781 224.672L330.173 221.599L333.556 224.672L331.352 226.669L328.978 226.662ZM333.556 226.662L334.658 225.663L335.76 226.662H333.556ZM343.892 226.662H342.526L343.628 225.663L343.954 225.959L343.892 226.662ZM344.21 223.146L343.628 223.666L340.237 220.6L343.628 217.527L344.629 218.434L344.21 223.146ZM344.808 216.458V216.599L344.738 216.535L344.823 216.458H344.808ZM345.002 214.299L343.628 215.537L340.237 212.471L343.628 209.397L345.305 210.916L345.002 214.299ZM345.468 209.074L344.692 208.371L345.568 207.583L345.468 209.074ZM346.391 198.757L346.143 201.57L344.723 200.283L346.391 198.771V198.757Z" fill="#E6E6E6"/>
<path d="M310.958 194.721H349.386C350.088 194.721 350.658 194.204 350.658 193.567V191.957C350.658 191.32 350.088 190.804 349.386 190.804H310.958C310.255 190.804 309.685 191.32 309.685 191.957V193.567C309.685 194.204 310.255 194.721 310.958 194.721Z" fill="#F0F0F0"/>
<path d="M346.437 225.973H313.915C313.212 225.973 312.642 226.489 312.642 227.126V228.737C312.642 229.374 313.212 229.89 313.915 229.89H346.437C347.14 229.89 347.71 229.374 347.71 228.737V227.126C347.71 226.489 347.14 225.973 346.437 225.973Z" fill="#F0F0F0"/>
<path d="M193.999 262C277.095 262 344.457 258.436 344.457 254.039C344.457 249.643 277.095 246.079 193.999 246.079C110.903 246.079 43.54 249.643 43.54 254.039C43.54 258.436 110.903 262 193.999 262Z" fill="#F5F5F5"/>
<path d="M151.849 53.334H137.26C121.694 53.334 109.076 64.7694 109.076 78.8758V110.458C109.076 124.565 121.694 136 137.26 136H151.849C167.415 136 180.033 124.565 180.033 110.458V78.8758C180.033 64.7694 167.415 53.334 151.849 53.334Z" fill="#699FC9"/>
<path opacity="0.8" d="M151.849 53.334H137.26C121.694 53.334 109.076 64.7694 109.076 78.8758V110.458C109.076 124.565 121.694 136 137.26 136H151.849C167.415 136 180.033 124.565 180.033 110.458V78.8758C180.033 64.7694 167.415 53.334 151.849 53.334Z" fill="white"/>
<path d="M154.65 58.0598H137.912C125.179 58.0598 114.857 67.4141 114.857 78.9532V110.381C114.857 121.92 125.179 131.274 137.912 131.274H154.65C167.383 131.274 177.705 121.92 177.705 110.381V78.9532C177.705 67.4141 167.383 58.0598 154.65 58.0598Z" fill="#699FC9"/>
<path opacity="0.3" d="M177.705 78.9532V110.409C177.705 115.95 175.276 121.265 170.952 125.183C166.629 129.101 160.765 131.303 154.65 131.303H137.912C131.797 131.303 125.932 129.101 121.607 125.183C117.282 121.265 114.851 115.951 114.849 110.409V78.9532C114.849 73.4119 117.278 68.0976 121.602 64.1793C125.925 60.2611 131.79 58.0598 137.904 58.0598H154.642C157.671 58.0589 160.669 58.5986 163.468 59.6482C166.266 60.6978 168.808 62.2366 170.95 64.1768C173.091 66.1171 174.79 68.4206 175.949 70.956C177.109 73.4913 177.705 76.2088 177.705 78.9532Z" fill="white"/>
<path d="M177.705 83.1444V90.9715H151.399C150.4 91.0007 149.405 90.8476 148.472 90.5213C147.54 90.195 146.689 89.7021 145.971 89.072C145.253 88.4419 144.682 87.6874 144.292 86.8533C143.902 86.0193 143.701 85.1227 143.701 84.2168C143.701 83.311 143.902 82.4144 144.292 81.5803C144.682 80.7463 145.253 79.9918 145.971 79.3616C146.689 78.7315 147.54 78.2387 148.472 77.9124C149.405 77.5861 150.4 77.433 151.399 77.4622H151.531C151.556 75.8726 152.15 74.3335 153.225 73.077C154.3 71.8204 155.796 70.9147 157.488 70.4963C159.181 70.078 160.977 70.1697 162.607 70.7577C164.237 71.3457 165.611 72.3981 166.523 73.7561C167.087 73.6627 167.658 73.6156 168.23 73.6155C170.684 73.6155 173.036 74.4986 174.771 76.0707C176.506 77.6427 177.48 79.7749 177.48 81.9981C177.478 82.4053 177.445 82.8118 177.38 83.2147L177.705 83.1444Z" fill="#F0F0F0"/>
<path d="M143.049 114.551C143.047 115.58 142.604 116.567 141.814 117.305C141.023 118.043 139.946 118.472 138.812 118.503H116.673C115.471 115.944 114.85 113.191 114.849 110.409V99.2205C115.753 98.6153 116.787 98.1877 117.883 97.9654C118.98 97.7431 120.116 97.7308 121.219 97.9294C122.321 98.1281 123.366 98.5332 124.285 99.1188C125.205 99.7044 125.979 100.458 126.559 101.33C127.122 101.235 127.693 101.185 128.266 101.183C130.72 101.184 133.073 102.069 134.807 103.642C136.542 105.216 137.516 107.348 137.516 109.572C137.517 109.977 137.485 110.381 137.423 110.782C137.829 110.674 138.249 110.62 138.672 110.62C139.827 110.618 140.936 111.031 141.756 111.767C142.576 112.504 143.041 113.505 143.049 114.551Z" fill="#F0F0F0"/>
<path d="M226.335 213.476H330.179C334.358 213.476 337.745 210.407 337.745 206.62V26.3998C337.745 22.613 334.358 19.5432 330.179 19.5432H226.335C222.156 19.5432 218.769 22.613 218.769 26.3998L218.769 206.62C218.769 210.407 222.156 213.476 226.335 213.476Z" fill="#699FC9"/>
<path opacity="0.2" d="M226.335 213.476H330.179C334.358 213.476 337.745 210.407 337.745 206.62V26.3998C337.745 22.613 334.358 19.5432 330.179 19.5432H226.335C222.156 19.5432 218.769 22.613 218.769 26.3998L218.769 206.62C218.769 210.407 222.156 213.476 226.335 213.476Z" fill="black"/>
<path d="M221.284 213.476H325.128C329.307 213.476 332.694 210.407 332.694 206.62V26.3998C332.694 22.613 329.307 19.5432 325.128 19.5432H221.284C217.105 19.5432 213.718 22.613 213.718 26.3998L213.718 206.62C213.718 210.407 217.105 213.476 221.284 213.476Z" fill="#699FC9"/>
<path d="M217.963 26.0201V206.613C217.937 206.938 217.989 207.264 218.115 207.57C218.241 207.875 218.438 208.152 218.693 208.382C218.948 208.612 219.254 208.79 219.592 208.903C219.929 209.017 220.289 209.063 220.648 209.039H325.998C327.511 209.039 328.248 208.195 328.248 206.831V25.8232C328.248 24.6418 327.681 23.7979 326.378 23.7979H300.04C299.682 23.7834 299.327 23.8695 299.024 24.0445C298.721 24.2194 298.486 24.4746 298.349 24.7754L297.254 27.1102C297.113 27.4064 296.875 27.6566 296.573 27.8274C296.271 27.9983 295.919 28.0817 295.563 28.0666H250.718C250.358 28.0769 250.003 27.9875 249.701 27.8103C249.399 27.6331 249.163 27.3766 249.026 27.075L247.932 24.7543C247.793 24.4562 247.556 24.2043 247.253 24.0331C246.951 23.8619 246.597 23.7797 246.24 23.7979H220.283C219.965 23.79 219.648 23.843 219.354 23.9535C219.059 24.064 218.794 24.2295 218.575 24.4392C218.356 24.6489 218.188 24.8981 218.083 25.1705C217.977 25.4429 217.937 25.7324 217.963 26.0201Z" fill="#263238"/>
<path opacity="0.6" d="M275.682 25.2255C276.522 25.2255 277.203 24.6084 277.203 23.8471C277.203 23.0859 276.522 22.4688 275.682 22.4688C274.842 22.4688 274.161 23.0859 274.161 23.8471C274.161 24.6084 274.842 25.2255 275.682 25.2255Z" fill="white"/>
<path opacity="0.6" d="M271.08 23.8471C271.08 24.0226 271.137 24.1942 271.245 24.3401C271.353 24.4859 271.506 24.5995 271.685 24.6663C271.864 24.7332 272.061 24.7503 272.251 24.7156C272.441 24.6808 272.615 24.5957 272.752 24.4711C272.888 24.3465 272.98 24.1879 273.017 24.0156C273.054 23.8432 273.034 23.6648 272.958 23.5031C272.883 23.3413 272.757 23.2034 272.595 23.1069C272.433 23.0104 272.243 22.9596 272.05 22.961C271.922 22.961 271.795 22.9839 271.677 23.0285C271.558 23.0732 271.451 23.1385 271.361 23.2209C271.271 23.3033 271.2 23.401 271.151 23.5085C271.103 23.616 271.079 23.731 271.08 23.8471Z" fill="white"/>
<path opacity="0.6" d="M275.798 201.198V204.545H269.97V201.198H275.798ZM275.876 199.981H269.893C269.557 199.981 269.236 200.102 268.998 200.317C268.761 200.532 268.628 200.823 268.628 201.127V204.644C268.628 204.948 268.761 205.239 268.998 205.454C269.236 205.669 269.557 205.79 269.893 205.79H275.876C276.211 205.79 276.533 205.669 276.77 205.454C277.007 205.239 277.141 204.948 277.141 204.644V201.127C277.141 200.823 277.007 200.532 276.77 200.317C276.533 200.102 276.211 199.981 275.876 199.981Z" fill="white"/>
<path opacity="0.6" d="M316.133 29.2268H314.76V30.8794H316.133V29.2268Z" fill="white"/>
<path opacity="0.6" d="M318.368 28.6782H316.995V30.8864H318.368V28.6782Z" fill="white"/>
<path opacity="0.6" d="M320.596 28.1228H319.222V30.8865H320.596V28.1228Z" fill="white"/>
<path opacity="0.6" d="M322.831 27.5742H321.457V30.8865H322.831V27.5742Z" fill="white"/>
<path opacity="0.6" d="M229.959 30.2817H230.774V28.6291H229.959V30.2817Z" fill="white"/>
<path opacity="0.6" d="M229.407 28.0244H222.936V30.8866H229.407V28.0244Z" fill="white"/>
<path d="M328.247 35.9006H217.961V195.734H328.247V35.9006Z" fill="#699FC9"/>
<path opacity="0.4" d="M328.247 35.9006H217.961V195.734H328.247V35.9006Z" fill="white"/>
<path d="M232.14 56.8152C237.257 56.8152 241.405 53.0558 241.405 48.4184C241.405 43.7811 237.257 40.0217 232.14 40.0217C227.023 40.0217 222.875 43.7811 222.875 48.4184C222.875 53.0558 227.023 56.8152 232.14 56.8152Z" fill="#699FC9"/>
<path opacity="0.6" d="M260.61 45.4013H247.418C247.162 45.4013 246.908 45.3554 246.671 45.2663C246.434 45.1771 246.219 45.0465 246.038 44.8818C245.857 44.7172 245.714 44.5218 245.616 44.3068C245.519 44.0918 245.469 43.8615 245.47 43.6292C245.47 43.161 245.675 42.712 246.041 42.381C246.406 42.05 246.901 41.864 247.418 41.864H260.61C261.127 41.864 261.622 42.05 261.987 42.381C262.353 42.712 262.558 43.161 262.558 43.6292C262.559 43.8615 262.509 44.0918 262.412 44.3068C262.314 44.5218 262.171 44.7172 261.99 44.8818C261.809 45.0465 261.594 45.1771 261.357 45.2663C261.12 45.3554 260.866 45.4013 260.61 45.4013Z" fill="white"/>
<path opacity="0.6" d="M286.257 50.704H246.34C246.111 50.704 245.892 50.6217 245.731 50.4753C245.569 50.3289 245.479 50.1304 245.479 49.9234C245.479 49.7157 245.569 49.5164 245.73 49.3689C245.892 49.2214 246.111 49.1376 246.34 49.1357H286.257C286.371 49.1367 286.484 49.1579 286.589 49.1984C286.694 49.2388 286.79 49.2976 286.87 49.3714C286.95 49.4452 287.013 49.5325 287.055 49.6284C287.098 49.7244 287.12 49.827 287.119 49.9304C287.117 50.1362 287.025 50.333 286.864 50.4778C286.702 50.6227 286.484 50.704 286.257 50.704Z" fill="white"/>
<path opacity="0.6" d="M274.284 54.9725H246.348C246.119 54.9707 245.899 54.8869 245.738 54.7394C245.577 54.5918 245.486 54.3926 245.486 54.1849C245.486 54.0824 245.509 53.9809 245.552 53.8862C245.595 53.7915 245.659 53.7054 245.739 53.6329C245.819 53.5604 245.914 53.5029 246.018 53.4637C246.123 53.4245 246.235 53.4043 246.348 53.4043H274.284C274.397 53.4043 274.509 53.4245 274.613 53.4637C274.718 53.5029 274.813 53.5604 274.893 53.6329C274.973 53.7054 275.036 53.7915 275.079 53.8862C275.123 53.9809 275.145 54.0824 275.145 54.1849C275.146 54.288 275.125 54.3903 275.082 54.4858C275.039 54.5813 274.976 54.6682 274.896 54.7414C274.815 54.8146 274.72 54.8728 274.615 54.9124C274.51 54.9521 274.397 54.9725 274.284 54.9725Z" fill="white"/>
<path opacity="0.6" d="M328.247 62.5886H217.961V147.273H328.247V62.5886Z" fill="white"/>
<path d="M288.725 128.138C288.727 127.228 289.127 126.357 289.837 125.713C290.546 125.07 291.508 124.708 292.512 124.706C292.88 124.708 293.246 124.758 293.598 124.854C293.542 124.504 293.514 124.152 293.513 123.799C293.515 121.873 294.36 120.026 295.863 118.664C297.366 117.302 299.404 116.536 301.529 116.534C302.026 116.534 302.523 116.576 303.011 116.661C303.791 115.47 304.98 114.544 306.397 114.024C307.813 113.504 309.379 113.42 310.853 113.784C312.328 114.148 313.63 114.94 314.559 116.039C315.489 117.138 315.996 118.483 316.002 119.868H316.118C317.83 119.868 319.472 120.484 320.683 121.582C321.894 122.679 322.574 124.167 322.574 125.719C322.574 127.271 321.894 128.759 320.683 129.856C319.472 130.953 317.83 131.57 316.118 131.57H292.403C291.417 131.546 290.481 131.174 289.793 130.532C289.106 129.891 288.723 129.032 288.725 128.138Z" fill="#F0F0F0"/>
<path d="M226.955 111.949C226.953 111.547 227.055 111.149 227.253 110.789C227.452 110.428 227.741 110.115 228.097 109.875C228.454 109.635 228.868 109.474 229.306 109.405C229.744 109.337 230.193 109.363 230.618 109.481C230.578 109.217 230.557 108.952 230.556 108.686C230.556 107.239 231.19 105.851 232.319 104.827C233.449 103.804 234.98 103.229 236.578 103.229C236.95 103.23 237.322 103.263 237.687 103.327C238.28 102.445 239.174 101.76 240.234 101.378C241.293 100.995 242.462 100.935 243.562 101.207C244.663 101.478 245.636 102.066 246.336 102.882C247.036 103.699 247.424 104.699 247.442 105.733H247.542C248.829 105.733 250.062 106.196 250.972 107.02C251.881 107.844 252.392 108.962 252.392 110.128C252.392 111.294 251.881 112.411 250.972 113.236C250.062 114.06 248.829 114.523 247.542 114.523H229.694C228.959 114.498 228.264 114.216 227.753 113.736C227.243 113.256 226.957 112.616 226.955 111.949Z" fill="#F0F0F0"/>
<path d="M274.836 88.2289C274.836 87.8559 274.999 87.4981 275.291 87.2344C275.582 86.9706 275.976 86.8224 276.388 86.8224C276.538 86.8228 276.686 86.8418 276.83 86.8787C276.822 86.7358 276.822 86.5926 276.83 86.4497C276.83 85.6589 277.177 84.9005 277.794 84.3413C278.411 83.7821 279.248 83.4679 280.12 83.4679C280.324 83.4664 280.526 83.4828 280.726 83.5172C281.048 83.0318 281.536 82.655 282.116 82.444C282.697 82.2331 283.337 82.1994 283.94 82.3482C284.543 82.497 285.076 82.82 285.458 83.2684C285.84 83.7167 286.05 84.2658 286.057 84.8322H286.111C286.789 84.8655 287.427 85.133 287.894 85.5797C288.361 86.0265 288.622 86.6184 288.622 87.2338C288.622 87.8492 288.361 88.4411 287.894 88.8878C287.427 89.3346 286.789 89.6021 286.111 89.6354H276.341C275.938 89.6244 275.555 89.4714 275.274 89.2088C274.993 88.9462 274.836 88.5947 274.836 88.2289Z" fill="#F0F0F0"/>
<path d="M252.386 137.934C252.385 137.694 252.436 137.457 252.537 137.235C252.638 137.013 252.785 136.811 252.972 136.642C253.159 136.472 253.381 136.337 253.625 136.245C253.87 136.153 254.131 136.106 254.396 136.106C254.593 136.106 254.789 136.132 254.978 136.183C254.947 135.997 254.931 135.809 254.932 135.62C254.932 135.113 255.042 134.61 255.257 134.141C255.471 133.672 255.786 133.246 256.182 132.888C256.579 132.529 257.049 132.245 257.567 132.051C258.085 131.858 258.639 131.759 259.2 131.76C259.46 131.76 259.719 131.781 259.976 131.823C260.394 131.194 261.028 130.706 261.78 130.433C262.533 130.16 263.363 130.116 264.145 130.31C264.927 130.503 265.618 130.922 266.114 131.504C266.609 132.085 266.881 132.797 266.89 133.532H266.944C267.856 133.532 268.73 133.86 269.375 134.444C270.02 135.028 270.382 135.821 270.382 136.647C270.382 137.473 270.02 138.266 269.375 138.85C268.73 139.434 267.856 139.762 266.944 139.762H254.342C253.817 139.75 253.318 139.551 252.953 139.209C252.587 138.868 252.384 138.41 252.386 137.934Z" fill="#F0F0F0"/>
<path d="M305.882 97.582L237.765 120.648L239.317 124.418C239.317 124.418 252.432 125.641 263.373 121.921L314.682 104.551C316.234 104.031 319.804 101.64 319.191 100.268C318.291 98.243 312.866 98.7705 312.866 98.7705C312.866 98.7705 309.514 96.3443 305.882 97.582Z" fill="#699FC9"/>
<path d="M242.538 122.828L231.744 115.747C231.467 115.567 231.147 115.452 230.81 115.412C230.473 115.372 230.13 115.407 229.812 115.515L228.539 115.944C228.476 115.964 228.419 115.998 228.374 116.042C228.328 116.087 228.294 116.14 228.275 116.198C228.256 116.256 228.253 116.318 228.265 116.377C228.277 116.437 228.304 116.493 228.345 116.542L235.127 124.566L233.273 125.198C233.169 125.229 233.075 125.278 232.994 125.343C232.913 125.409 232.848 125.489 232.804 125.578C232.759 125.667 232.736 125.764 232.735 125.862C232.734 125.961 232.756 126.058 232.799 126.148C232.832 126.241 232.887 126.327 232.959 126.4C233.031 126.474 233.119 126.532 233.218 126.573C233.317 126.613 233.424 126.634 233.532 126.635C233.64 126.636 233.747 126.616 233.847 126.577L242.429 123.672L242.538 122.828Z" fill="#699FC9"/>
<path d="M288.725 107.385L250.251 87.3921C249.988 87.2531 249.694 87.169 249.391 87.1459C249.087 87.1228 248.782 87.1613 248.497 87.2585L245.44 88.2923C245.339 88.3263 245.248 88.382 245.176 88.4547C245.104 88.5274 245.052 88.6148 245.026 88.7095C244.999 88.8042 244.998 88.9034 245.023 88.9985C245.048 89.0936 245.098 89.1819 245.168 89.2557L268.541 113.222L288.725 107.385Z" fill="#699FC9"/>
<path d="M276.489 118.714L292.102 113.426L291.124 131.38C291.097 131.857 290.917 132.318 290.605 132.704C290.294 133.09 289.865 133.385 289.37 133.553L287.562 134.165C287.395 134.22 287.212 134.221 287.044 134.169C286.876 134.116 286.733 134.013 286.639 133.876L276.489 118.714Z" fill="#699FC9"/>
<path opacity="0.6" d="M239.317 160.424H226.125C225.869 160.424 225.615 160.378 225.378 160.289C225.142 160.2 224.926 160.069 224.745 159.904C224.565 159.74 224.421 159.544 224.324 159.329C224.226 159.114 224.177 158.884 224.178 158.652C224.178 158.183 224.383 157.735 224.748 157.403C225.113 157.072 225.609 156.886 226.125 156.886H239.317C239.574 156.886 239.828 156.931 240.065 157.019C240.302 157.107 240.518 157.237 240.7 157.401C240.881 157.565 241.026 157.76 241.124 157.975C241.222 158.189 241.273 158.419 241.273 158.652C241.273 159.122 241.067 159.572 240.7 159.905C240.334 160.237 239.836 160.424 239.317 160.424Z" fill="white"/>
<path opacity="0.6" d="M318.089 165.726H225.039C224.811 165.726 224.592 165.644 224.43 165.498C224.268 165.351 224.178 165.153 224.178 164.946C224.178 164.738 224.268 164.539 224.43 164.391C224.591 164.244 224.81 164.16 225.039 164.158H318.081C318.311 164.16 318.53 164.244 318.691 164.391C318.852 164.539 318.943 164.738 318.943 164.946C318.943 165.151 318.853 165.349 318.693 165.495C318.533 165.641 318.316 165.724 318.089 165.726Z" fill="white"/>
<path opacity="0.6" d="M306.116 170.452H225.039C224.81 170.45 224.591 170.366 224.43 170.219C224.268 170.071 224.178 169.872 224.178 169.664C224.178 169.457 224.268 169.259 224.43 169.112C224.592 168.966 224.811 168.884 225.039 168.884H306.116C306.345 168.884 306.565 168.966 306.727 169.112C306.89 169.258 306.983 169.457 306.985 169.664C306.985 169.873 306.893 170.074 306.73 170.221C306.567 170.369 306.346 170.452 306.116 170.452Z" fill="white"/>
<path opacity="0.6" d="M232.023 175.171H225.039C224.815 175.169 224.6 175.088 224.44 174.945C224.281 174.802 224.19 174.608 224.186 174.404C224.186 174.197 224.276 173.997 224.437 173.85C224.599 173.702 224.818 173.619 225.047 173.617H232.031C232.257 173.622 232.472 173.708 232.63 173.855C232.788 174.002 232.877 174.199 232.877 174.404C232.871 174.607 232.779 174.8 232.62 174.943C232.461 175.086 232.247 175.167 232.023 175.171Z" fill="white"/>
<path opacity="0.6" d="M312.843 179.897H225.039C224.81 179.895 224.591 179.811 224.43 179.663C224.268 179.516 224.178 179.317 224.178 179.109C224.178 178.902 224.268 178.703 224.43 178.557C224.592 178.411 224.811 178.328 225.039 178.328H312.843C313.072 178.328 313.291 178.411 313.453 178.557C313.614 178.703 313.705 178.902 313.705 179.109C313.705 179.317 313.614 179.516 313.453 179.663C313.292 179.811 313.073 179.895 312.843 179.897Z" fill="white"/>
<path opacity="0.6" d="M264.289 184.615H225.039C224.811 184.615 224.592 184.533 224.43 184.387C224.268 184.24 224.178 184.042 224.178 183.835C224.178 183.628 224.268 183.429 224.43 183.283C224.592 183.136 224.811 183.054 225.039 183.054H264.281C264.51 183.054 264.729 183.136 264.89 183.283C265.052 183.429 265.143 183.628 265.143 183.835C265.143 184.041 265.053 184.238 264.893 184.384C264.733 184.53 264.516 184.614 264.289 184.615Z" fill="white"/>
<path d="M288.625 78.2779H257.771C257.098 78.2779 256.432 78.1579 255.811 77.9246C255.19 77.6914 254.625 77.3495 254.15 76.9185C253.674 76.4875 253.297 75.9758 253.039 75.4127C252.782 74.8496 252.649 74.246 252.649 73.6365C252.651 72.4061 253.192 71.2266 254.152 70.3566C255.112 69.4866 256.413 68.997 257.771 68.9951H288.625C289.982 68.997 291.284 69.4866 292.244 70.3566C293.204 71.2266 293.744 72.4061 293.746 73.6365C293.746 74.8675 293.207 76.0481 292.246 76.9185C291.286 77.7889 289.983 78.2779 288.625 78.2779Z" fill="#699FC9"/>
<path d="M262.938 74.783C262.944 74.9585 262.901 75.1325 262.814 75.2893C262.728 75.4366 262.606 75.5641 262.457 75.662C262.301 75.7619 262.128 75.8379 261.945 75.8871C261.738 75.9383 261.524 75.9643 261.309 75.9644H258.872V71.3863H261.573C261.74 71.3844 261.906 71.4207 262.054 71.4918C262.192 71.557 262.314 71.648 262.411 71.759C262.514 71.8688 262.593 71.9953 262.643 72.1317C262.698 72.267 262.727 72.4097 262.729 72.5537C262.731 72.7738 262.666 72.9902 262.543 73.1796C262.421 73.3763 262.23 73.53 261.999 73.6156C262.273 73.6826 262.515 73.8282 262.69 74.0305C262.861 74.2502 262.948 74.5144 262.938 74.783ZM259.834 72.1458V73.2991H261.138C261.217 73.3014 261.296 73.2888 261.369 73.2622C261.443 73.2355 261.509 73.1954 261.565 73.1444C261.624 73.0887 261.67 73.0224 261.699 72.9498C261.729 72.8771 261.741 72.7997 261.736 72.7225C261.743 72.5693 261.687 72.4192 261.58 72.3005C261.529 72.2516 261.468 72.2127 261.4 72.1861C261.332 72.1595 261.259 72.1458 261.185 72.1458H259.834ZM261.93 74.6142C261.93 74.5349 261.914 74.4562 261.883 74.3821C261.856 74.3099 261.814 74.2431 261.759 74.1852C261.706 74.1312 261.643 74.0859 261.573 74.0516C261.501 74.0171 261.421 74.0001 261.34 74.0024H259.834V75.2049H261.285C261.373 75.2059 261.46 75.1915 261.542 75.1627C261.619 75.1355 261.688 75.0921 261.743 75.0361C261.8 74.9812 261.845 74.9167 261.875 74.8463C261.921 74.7757 261.948 74.6961 261.953 74.6142H261.93Z" fill="white"/>
<path d="M265.865 75.9925C265.516 75.9981 265.171 75.9307 264.856 75.7956C264.561 75.672 264.297 75.4949 264.08 75.2752C263.864 75.0577 263.695 74.8047 263.583 74.5298C263.462 74.2572 263.402 73.9656 263.405 73.6718C263.404 73.3729 263.467 73.0767 263.591 72.7998C263.714 72.5252 263.89 72.2727 264.111 72.0544C264.331 71.8416 264.595 71.6697 264.887 71.548C265.196 71.4203 265.533 71.3555 265.873 71.3582C266.219 71.3532 266.561 71.4206 266.874 71.5551C267.166 71.6886 267.429 71.8697 267.65 72.0895C267.859 72.3117 268.027 72.5636 268.146 72.835C268.262 73.1065 268.323 73.3948 268.325 73.6859C268.327 73.9849 268.263 74.2812 268.139 74.5579C268.016 74.8184 267.842 75.0566 267.626 75.2612C267.406 75.4739 267.143 75.6459 266.85 75.7675C266.544 75.9074 266.208 75.9842 265.865 75.9925ZM264.398 73.6718C264.396 73.8678 264.43 74.0627 264.499 74.2485C264.56 74.4252 264.658 74.5898 264.786 74.7337C264.909 74.878 265.065 74.9957 265.244 75.0783C265.441 75.1618 265.655 75.2051 265.873 75.2051C266.09 75.2051 266.304 75.1618 266.501 75.0783C266.678 74.9892 266.833 74.8698 266.959 74.7267C267.086 74.5794 267.183 74.4127 267.246 74.2344C267.308 74.0521 267.339 73.8625 267.339 73.6718C267.341 73.4782 267.307 73.2856 267.238 73.1022C267.175 72.923 267.075 72.756 266.943 72.6099C266.818 72.4697 266.663 72.3548 266.486 72.2724C266.295 72.1868 266.085 72.1434 265.873 72.1458C265.652 72.1441 265.434 72.1899 265.236 72.2794C265.058 72.3628 264.902 72.4804 264.778 72.624C264.654 72.773 264.557 72.9393 264.491 73.1163C264.43 73.2963 264.399 73.4835 264.398 73.6718Z" fill="white"/>
<path d="M271.234 75.9925C270.888 75.9983 270.545 75.9309 270.233 75.7956C269.938 75.672 269.674 75.4949 269.457 75.2752C269.238 75.0581 269.067 74.8051 268.952 74.5298C268.835 74.2562 268.775 73.9653 268.774 73.6718C268.772 73.3721 268.838 73.0753 268.968 72.7998C269.088 72.5256 269.262 72.2731 269.48 72.0544C269.702 71.8438 269.965 71.6722 270.256 71.548C270.565 71.4203 270.902 71.3555 271.242 71.3582C271.588 71.3532 271.93 71.4206 272.243 71.5551C272.671 71.7558 273.032 72.0579 273.286 72.4294C273.54 72.8008 273.678 73.2278 273.686 73.6648C273.688 73.9638 273.625 74.2601 273.5 74.5368C273.377 74.7973 273.204 75.0355 272.988 75.2401C272.768 75.4534 272.505 75.6254 272.212 75.7464C271.909 75.8913 271.576 75.9753 271.234 75.9925ZM269.775 73.6718C269.774 73.8672 269.806 74.0615 269.868 74.2485C269.932 74.4256 270.032 74.5902 270.163 74.7337C270.284 74.8796 270.441 74.9976 270.621 75.0783C270.816 75.1617 271.03 75.2049 271.246 75.2049C271.462 75.2049 271.675 75.1617 271.87 75.0783C272.049 74.99 272.208 74.8705 272.336 74.7267C272.461 74.5791 272.555 74.4123 272.615 74.2344C272.683 74.0533 272.717 73.8631 272.716 73.6718C272.714 73.4785 272.68 73.2864 272.615 73.1022C272.548 72.9242 272.449 72.7577 272.32 72.6099C272.194 72.4679 272.035 72.3526 271.855 72.2724C271.665 72.1852 271.454 72.1417 271.242 72.1458C271.023 72.1442 270.808 72.19 270.613 72.2794C270.434 72.3646 270.275 72.4818 270.148 72.624C270.023 72.7716 269.928 72.9384 269.868 73.1163C269.807 73.2963 269.776 73.4835 269.775 73.6718Z" fill="white"/>
<path d="M274.456 75.9502V71.3791H275.48V73.5521L277.598 71.3721H278.677L276.745 73.4044L278.793 75.9502H277.653L276.101 73.967L275.457 74.5789V75.9853L274.456 75.9502Z" fill="white"/>
<path d="M282.719 75.1836V75.9502H279.211V71.3721H282.649V72.1527H280.189V73.2568H282.315V73.96H280.189V75.1555L282.719 75.1836Z" fill="white"/>
<path d="M283.488 75.9503V71.3722H285.319C285.691 71.3664 286.061 71.4286 286.406 71.555C286.699 71.6649 286.964 71.8304 287.182 72.0403C287.389 72.243 287.547 72.4824 287.647 72.7435C287.757 73.0258 287.812 73.3232 287.81 73.6226C287.814 73.9462 287.754 74.2678 287.632 74.5719C287.525 74.842 287.354 75.0877 287.132 75.2918C286.909 75.4958 286.64 75.6534 286.343 75.7534C286.018 75.8699 285.669 75.9272 285.319 75.9222L283.488 75.9503ZM286.817 73.6507C286.82 73.4455 286.786 73.2411 286.716 73.0459C286.658 72.8722 286.56 72.7116 286.429 72.5747C286.299 72.4405 286.137 72.3347 285.955 72.2653C285.754 72.1876 285.538 72.1493 285.319 72.1528H284.466V75.1697H285.319C285.541 75.172 285.76 75.1312 285.963 75.0502C286.143 74.9776 286.302 74.8695 286.429 74.7337C286.559 74.5934 286.657 74.4307 286.716 74.2555C286.784 74.0647 286.818 73.8653 286.817 73.6648V73.6507Z" fill="white"/>
<path d="M76.8249 238.899L99.1814 236.908V208.434H108.043V236.901L130.493 238.899C131.569 238.996 132.566 239.452 133.292 240.179C134.017 240.905 134.419 241.85 134.42 242.83V245.868H72.8828V242.83C72.8836 241.848 73.2877 240.901 74.0164 240.174C74.7452 239.448 75.7463 238.993 76.8249 238.899Z" fill="#263238"/>
<path opacity="0.2" d="M76.8249 238.899L99.1814 236.908V208.434H108.043V236.901L130.493 238.899C131.569 238.996 132.566 239.452 133.292 240.179C134.017 240.905 134.419 241.85 134.42 242.83V245.868H72.8828V242.83C72.8836 241.848 73.2877 240.901 74.0164 240.174C74.7452 239.448 75.7463 238.993 76.8249 238.899Z" fill="white"/>
<path d="M132.037 254.897C135.238 254.897 137.834 252.545 137.834 249.644C137.834 246.743 135.238 244.391 132.037 244.391C128.836 244.391 126.24 246.743 126.24 249.644C126.24 252.545 128.836 254.897 132.037 254.897Z" fill="#263238"/>
<path d="M75.2508 254.897C78.4523 254.897 81.0475 252.545 81.0475 249.644C81.0475 246.743 78.4523 244.391 75.2508 244.391C72.0494 244.391 69.4541 246.743 69.4541 249.644C69.4541 252.545 72.0494 254.897 75.2508 254.897Z" fill="#263238"/>
<path d="M106.313 214.573H100.881C100.031 214.573 99.2162 214.267 98.6152 213.723C98.0141 213.178 97.6765 212.439 97.6765 211.669V189.214H109.557V211.648C109.56 212.034 109.478 212.417 109.316 212.774C109.154 213.131 108.915 213.455 108.613 213.728C108.311 214 107.952 214.215 107.557 214.36C107.162 214.506 106.739 214.578 106.313 214.573Z" fill="#263238"/>
<path opacity="0.3" d="M106.313 214.573H100.881C100.031 214.573 99.2162 214.267 98.6152 213.723C98.0141 213.178 97.6765 212.439 97.6765 211.669V189.214H109.557V211.648C109.56 212.034 109.478 212.417 109.316 212.774C109.154 213.131 108.915 213.455 108.613 213.728C108.311 214 107.952 214.215 107.557 214.36C107.162 214.506 106.739 214.578 106.313 214.573Z" fill="white"/>
<path d="M97.1166 121.309C97.2486 140.761 99.4446 180.543 114.887 189.193H72.0053C71.2487 189.193 70.5058 189.011 69.8527 188.665C69.1996 188.319 68.6596 187.822 68.2882 187.224C64.4936 181.127 54.0564 160.557 55.8257 120.944C55.9539 118.145 57.2718 115.499 59.5036 113.56C61.7353 111.622 64.7079 110.54 67.7994 110.543H85.1352C88.2961 110.541 91.3296 111.672 93.5741 113.689C95.8186 115.705 97.0921 118.445 97.1166 121.309Z" fill="#263238"/>
<path d="M101.774 121.309C101.906 140.761 104.102 180.543 119.544 189.193H74.2801C74.2801 189.193 58.3255 169.193 60.4828 120.979C60.611 118.18 61.9289 115.534 64.1607 113.595C66.3924 111.657 69.3651 110.575 72.4565 110.578H89.7923C92.9466 110.576 95.9743 111.702 98.2177 113.711C100.461 115.721 101.739 118.451 101.774 121.309Z" fill="#263238"/>
<path opacity="0.3" d="M101.774 121.309C101.906 140.761 104.102 180.543 119.544 189.193H74.2801C74.2801 189.193 58.3255 169.193 60.4828 120.979C60.611 118.18 61.9289 115.534 64.1607 113.595C66.3924 111.657 69.3651 110.575 72.4565 110.578H89.7923C92.9466 110.576 95.9743 111.702 98.2177 113.711C100.461 115.721 101.739 118.451 101.774 121.309Z" fill="white"/>
<path d="M78.3771 183.884H130.369C131.398 183.884 132.385 184.254 133.113 184.914C133.84 185.573 134.249 186.467 134.249 187.4V192.105H74.4971V187.4C74.4971 186.467 74.9059 185.573 75.6335 184.914C76.3611 184.254 77.348 183.884 78.3771 183.884Z" fill="#263238"/>
<path d="M135.15 187.991H73.6052C72.7437 187.991 72.0454 188.624 72.0454 189.404V190.684C72.0454 191.465 72.7437 192.098 73.6052 192.098H135.15C136.011 192.098 136.709 191.465 136.709 190.684V189.404C136.709 188.624 136.011 187.991 135.15 187.991Z" fill="#263238"/>
<path opacity="0.6" d="M135.15 187.991H73.6052C72.7437 187.991 72.0454 188.624 72.0454 189.404V190.684C72.0454 191.465 72.7437 192.098 73.6052 192.098H135.15C136.011 192.098 136.709 191.465 136.709 190.684V189.404C136.709 188.624 136.011 187.991 135.15 187.991Z" fill="white"/>
<path d="M155.891 254.89H160.64L169.184 147.125H162.875L155.891 254.89Z" fill="#263238"/>
<path opacity="0.4" d="M155.883 254.89H160.64L168.765 152.477L169.184 147.294H162.875L162.534 152.477L155.883 254.89Z" fill="white"/>
<path opacity="0.2" d="M162.534 152.217H168.765L169.185 147.294H162.876L162.534 152.217Z" fill="black"/>
<path d="M169.681 227.021L164.296 226.549C164.296 226.549 157.972 210.916 151.663 196.922C146.572 185.67 141.497 175.424 139.767 175.36C139.025 175.412 138.295 175.552 137.594 175.775C127.964 178.328 92.8729 191.514 83.9411 183.279C74.0394 174.137 88.3566 152.167 88.3566 152.167C88.3566 152.167 112.172 149.087 113.965 153.961C114.406 155.397 114.743 156.858 114.973 158.335C115.245 159.826 115.431 161.078 115.431 161.078C116.168 160.909 140.077 155.318 149.498 161.078C159.081 166.943 169.681 227.021 169.681 227.021Z" fill="#E4897B"/>
<path d="M178.016 235.27C177.238 234.948 176.402 234.755 175.548 234.7C175.548 234.7 172.599 233.132 169.682 227.021H166.399C165.843 227.027 165.303 227.188 164.851 227.481C164.399 227.774 164.056 228.185 163.869 228.659C163.816 228.793 163.784 228.932 163.776 229.074C163.817 229.781 163.902 230.486 164.032 231.184C164.513 233.561 165.153 235.91 165.949 238.216L166.508 238.09L165.499 233.652C165.158 232.14 166.911 233.596 167.718 235.122C168.525 236.648 169.775 238.174 173.407 237.422C177.636 236.515 179.335 235.959 178.016 235.27Z" fill="#2E353A"/>
<path d="M169.084 225.424C169.084 225.424 173.189 233.202 175.548 234.7C175.548 234.7 172.382 236.416 169.084 232.59C164.824 227.668 163.776 229.074 163.776 229.074C163.865 228.225 164.039 227.384 164.296 226.563C164.933 224.96 169.084 225.424 169.084 225.424Z" fill="#E4897B"/>
<path d="M132.828 253.8C132.16 253.32 131.399 252.956 130.586 252.724C130.586 252.724 128.134 250.565 126.9 244.004L123.71 243.301C123.17 243.186 122.603 243.225 122.088 243.413C121.573 243.6 121.134 243.927 120.831 244.349C120.746 244.466 120.678 244.594 120.63 244.728C120.474 245.425 120.368 246.129 120.311 246.838C120.162 249.242 120.175 251.651 120.35 254.053H120.925L121.103 249.517C121.173 247.977 122.484 249.771 122.88 251.423C123.276 253.076 124.075 254.834 127.8 254.883C132.138 254.925 133.938 254.757 132.828 253.8Z" fill="#2E353A"/>
<path d="M126.737 242.316C126.737 242.316 128.685 250.755 130.617 252.724C130.617 252.724 127.094 253.702 124.89 249.299C122.035 243.596 120.661 244.707 120.661 244.707C120.969 243.902 121.356 243.123 121.817 242.379C122.826 240.973 126.737 242.316 126.737 242.316Z" fill="#E4897B"/>
<path opacity="0.1" d="M126.737 242.316C126.737 242.316 128.685 250.755 130.617 252.724C130.617 252.724 127.094 253.702 124.89 249.299C122.035 243.596 120.661 244.707 120.661 244.707C120.969 243.902 121.356 243.123 121.817 242.379C122.826 240.973 126.737 242.316 126.737 242.316Z" fill="black"/>
<path opacity="0.2" d="M151.663 196.908C146.573 185.656 141.498 175.41 139.767 175.347C139.026 175.398 138.295 175.538 137.594 175.761L137.664 173.195C142.074 173.526 146.194 175.316 149.242 178.223C152.571 181.507 152.23 191.099 151.663 196.908Z" fill="black"/>
<path d="M101.043 185.473C101.043 185.473 128.033 182.906 130.85 185.114C133.798 187.428 126.675 192.098 121.786 242.379L126.9 244.004C126.9 244.004 147.184 189.728 146.99 182.519C146.796 175.311 137.678 173.201 137.678 173.201C137.678 173.201 119.885 182.519 101.043 185.473Z" fill="#E4897B"/>
<path opacity="0.1" d="M146.99 182.519C147.184 189.728 126.9 244.004 126.9 244.004L121.786 242.379C126.675 192.098 133.798 187.428 130.85 185.114C130.213 184.615 128.312 184.362 125.767 184.271C120.269 184.188 114.769 184.369 109.292 184.812C104.636 185.135 101.043 185.473 101.043 185.473C103.426 185.1 105.793 184.622 108.113 184.067C118.404 181.524 128.324 177.879 137.663 173.208C137.663 173.208 146.796 175.311 146.99 182.519Z" fill="black"/>
<path opacity="0.2" d="M137.663 173.208C137.291 173.497 129.787 179.313 125.767 184.271C120.269 184.188 114.77 184.369 109.293 184.812L108.113 184.074C118.405 181.529 128.325 177.881 137.663 173.208Z" fill="black"/>
<path d="M132.696 158.588L119.737 191.078C119.737 191.078 88.5186 190.375 82.3804 184.685C76.2423 178.996 78.3918 169.517 83.1564 162.843C87.9211 156.169 111.868 154.917 111.868 154.917L116.967 160.747C116.967 160.747 125.573 158.588 132.696 158.588Z" fill="#263238"/>
<path opacity="0.1" d="M132.696 158.588L119.737 191.078C119.737 191.078 88.5186 190.375 82.3804 184.685C76.2423 178.996 78.3918 169.517 83.1564 162.843C87.9211 156.169 111.868 154.917 111.868 154.917L114.848 158.37L116.804 160.606L116.928 160.747C116.928 160.747 125.573 158.588 132.696 158.588Z" fill="white"/>
<path opacity="0.3" d="M116.805 160.606L101.502 163.708C101.502 163.708 109.092 159.91 114.85 158.37L116.805 160.606Z" fill="black"/>
<path d="M113.965 153.961L116.929 160.747L109.72 162.154L105.895 158.539L97.3587 166.085L77.9199 166.929L88.3183 152.16L87.3871 140.648L86.3085 127.786L85.4083 117.055C85.4083 117.055 95.2325 113.433 103.443 113.82C111.653 114.206 118.187 115.156 118.187 115.156C123.285 126.26 113.965 153.961 113.965 153.961Z" fill="#407BFF"/>
<path opacity="0.2" d="M113.965 153.961L116.929 160.747L109.72 162.154L105.895 158.539L97.3587 166.085L77.9199 166.929L88.3183 152.16L87.3871 140.648L86.3085 127.786L85.4083 117.055C85.4083 117.055 95.2325 113.433 103.443 113.82C111.653 114.206 118.187 115.156 118.187 115.156C123.285 126.26 113.965 153.961 113.965 153.961Z" fill="#699FC9"/>
<path d="M65.3092 113.349C65.3507 113.422 65.3742 113.503 65.3779 113.585C65.3817 113.667 65.3657 113.75 65.331 113.826C65.2964 113.902 65.2438 113.971 65.1771 114.027C65.1103 114.083 65.031 114.125 64.9445 114.15L58.2476 116.26C58.0602 116.316 57.8568 116.31 57.6744 116.241C57.4921 116.173 57.343 116.047 57.2543 115.887L51.1394 104.396C51.0952 104.319 51.0689 104.234 51.0622 104.147C51.0556 104.06 51.0686 103.972 51.1006 103.89C51.1326 103.808 51.1828 103.732 51.2482 103.668C51.3136 103.604 51.3928 103.553 51.4808 103.517L58.1777 101.408C58.3803 101.369 58.5914 101.393 58.7772 101.475C58.963 101.558 59.1126 101.695 59.2021 101.865L65.3092 113.349Z" fill="#263238"/>
<path opacity="0.5" d="M58.4252 102.005L64.6332 113.616C64.6805 113.68 64.7101 113.754 64.7196 113.831C64.7291 113.907 64.7182 113.985 64.6879 114.057C64.6575 114.13 64.6085 114.194 64.545 114.246C64.4815 114.297 64.4053 114.335 64.3228 114.354L58.6502 116.154C58.27 116.274 57.494 116.302 57.3233 115.979L51.1153 104.326C50.9445 103.995 51.4877 103.517 51.8913 103.398L57.5638 101.597C57.7376 101.557 57.9215 101.577 58.0804 101.652C58.2393 101.728 58.362 101.853 58.4252 102.005Z" fill="white"/>
<path d="M63.4001 126.401L58.8761 118.194C58.8761 118.194 62.0809 111.815 61.1032 110.915C60.1254 110.015 59.0312 106.872 57.2232 106.618C55.4151 106.365 53.0405 113.981 53.0405 114.628C53.0405 115.275 54.7322 119.15 54.7322 119.15L58.7208 130.402L63.4001 126.401Z" fill="#E4897B"/>
<path d="M126.644 109.003L123.269 112.343L120.654 109.284C120.654 109.284 120.196 110.325 119.49 110.381C118.784 110.437 114.438 112.491 113.654 111.696C113.343 111.269 113.124 110.791 113.01 110.289C112.717 109.226 112.491 108.148 112.335 107.062C112.335 107.062 119.66 103.236 120.506 103.834C120.599 103.897 120.739 104.009 120.918 104.15C122.423 105.36 126.644 109.003 126.644 109.003Z" fill="#E4897B"/>
<path opacity="0.2" d="M120.918 104.15C120.444 106.26 118.776 109.46 113.01 110.289C112.717 109.226 112.491 108.148 112.335 107.062C112.335 107.062 119.66 103.236 120.506 103.834C120.599 103.897 120.739 104.009 120.918 104.15Z" fill="black"/>
<path d="M140.993 129.319C138.665 134.045 129.834 132.329 123.766 130.466C121.721 129.838 119.714 129.115 117.752 128.3L117.899 124.003L118.202 115.135L125.139 119.164L130.052 122.02L121.058 110.409L125.326 106.64C125.326 106.64 144.679 121.907 140.993 129.319Z" fill="#407BFF"/>
<path opacity="0.2" d="M140.993 129.319C138.665 134.045 129.834 132.329 123.766 130.466C121.721 129.838 119.714 129.115 117.752 128.3L117.899 124.003L118.202 115.135L125.139 119.164L130.052 122.02L121.058 110.409L125.326 106.64C125.326 106.64 144.679 121.907 140.993 129.319Z" fill="#699FC9"/>
<path opacity="0.2" d="M123.766 130.466C121.721 129.838 119.714 129.115 117.752 128.3L117.899 124.003L119.451 120.662C119.451 120.662 122.811 125.508 123.766 130.466Z" fill="black"/>
<path opacity="0.2" d="M132.697 126.401C132.697 126.401 125.907 124.347 125.162 119.164L130.074 122.019L132.697 126.401Z" fill="black"/>
<path opacity="0.6" d="M97.3891 138.046H100.447C100.785 138.046 101.06 137.798 101.06 137.491V132.259C101.06 131.952 100.785 131.703 100.447 131.703H97.3891C97.0505 131.703 96.776 131.952 96.776 132.259V137.491C96.776 137.798 97.0505 138.046 97.3891 138.046Z" fill="white"/>
<path opacity="0.2" d="M97.3263 136.422H100.803V132.111H97.3263V136.422Z" fill="black"/>
<path d="M99.3679 130.17H98.5996V132.709H99.3679V130.17Z" fill="#263238"/>
<path opacity="0.2" d="M87.3872 140.648L86.3086 127.786L88.6366 125.859C88.6366 125.859 91.1896 133.517 87.3872 140.648Z" fill="black"/>
<path opacity="0.4" d="M95.8687 117.033C95.8687 117.033 104.956 136.478 105.631 143.609C105.631 143.609 111.614 126.661 110.9 118.292L95.8687 117.033Z" fill="white"/>
<path d="M91.1108 117.913C91.1108 117.913 93.532 110.261 102.751 110.958C111.97 111.654 115.516 119.495 115.516 119.495L111.201 117.498L106.313 130.416L97.4042 117.631L91.1108 117.913Z" fill="#407BFF"/>
<path opacity="0.6" d="M91.1108 117.913C91.1108 117.913 93.532 110.261 102.751 110.958C111.97 111.654 115.516 119.495 115.516 119.495L111.201 117.498L106.313 130.416L97.4042 117.631L91.1108 117.913Z" fill="white"/>
<path d="M98.7395 89.164C98.7395 89.164 98.3049 85.6478 93.1911 85.4017C88.0773 85.1556 83.7782 88.4116 86.8434 94.0023C89.9086 99.5931 90.0095 105.852 85.8191 106.619C85.8191 106.619 94.0447 110.071 95.5424 98.3343L98.7395 89.164Z" fill="#263238"/>
<path d="M112.52 87.5537C112.52 87.5537 107.748 82.2583 98.5524 88.257C89.3568 94.2556 96.5659 106.893 103.744 106.541C110.922 106.19 112.52 87.5537 112.52 87.5537Z" fill="#263238"/>
<path d="M108.734 112.68C108.78 113.588 109.028 114.478 109.464 115.297L105.692 125.142L96.7529 114.396C99.9423 114.024 101.805 110.458 102.759 107.807C103.085 106.886 103.344 105.946 103.535 104.994V104.903L103.737 105.008L110.938 108.686C110.212 109.114 109.624 109.709 109.237 110.412C108.85 111.114 108.676 111.897 108.734 112.68Z" fill="#E4897B"/>
<path opacity="0.2" d="M110.97 108.686C110.233 109.108 109.635 109.701 109.238 110.404C108.841 111.106 108.659 111.893 108.712 112.681C107.377 112.324 106.148 111.702 105.114 110.858C104.08 110.015 103.267 108.972 102.736 107.807C103.062 106.886 103.321 105.946 103.512 104.994H103.737L110.97 108.686Z" fill="black"/>
<path d="M104.397 87.3356C104.397 87.3356 109.829 83.1161 116.099 85.9291C122.369 88.7421 122.307 97.2302 118.093 100.128C113.88 103.025 104.397 87.3356 104.397 87.3356Z" fill="#263238"/>
<path d="M108.23 89.1007C114.811 88.51 117.278 91.5128 118.435 97.617C119.878 105.24 118.598 110.873 110.186 109.966C98.7631 108.749 97.2965 90.0852 108.23 89.1007Z" fill="#E4897B"/>
<path d="M114.143 97.6663C114.765 98.5099 115.497 99.2821 116.324 99.9659C116.159 100.23 115.916 100.447 115.623 100.594C115.33 100.74 114.997 100.81 114.663 100.796L114.143 97.6663Z" fill="#DE5753"/>
<path d="M110.061 97.5395C110.123 98.0248 109.882 98.4538 109.525 98.4959C109.168 98.5381 108.819 98.1725 108.749 97.6802C108.68 97.1879 108.92 96.766 109.277 96.7238C109.634 96.6816 109.991 97.0473 110.061 97.5395Z" fill="#263238"/>
<path d="M109.139 96.7661L110.256 96.2175C110.256 96.2175 109.798 97.181 109.139 96.7661Z" fill="#263238"/>
<path d="M116.751 96.6888C116.821 97.1811 116.58 97.61 116.223 97.6452C115.866 97.6804 115.517 97.3217 115.447 96.8365C115.377 96.3512 115.618 95.9152 115.983 95.8801C116.347 95.8449 116.681 96.2036 116.751 96.6888Z" fill="#263238"/>
<path d="M115.834 95.9152L116.952 95.3667C116.952 95.3667 116.486 96.3442 115.834 95.9152Z" fill="#263238"/>
<path d="M109.541 93.4257C109.015 93.416 108.493 93.5155 108.015 93.7166C107.538 93.9177 107.117 94.2151 106.786 94.586" stroke="#263238" stroke-width="0.72468" stroke-linecap="round" stroke-linejoin="round"/>
<path d="M114.299 92.7436C114.737 92.601 115.206 92.5497 115.669 92.5936C116.133 92.6374 116.579 92.7752 116.976 92.9968" stroke="#263238" stroke-width="0.72468" stroke-linecap="round" stroke-linejoin="round"/>
<path d="M102.131 99.7971C102.131 99.7971 104.676 94.6212 103.792 90.8799C103.792 90.8799 116.309 84.8813 118.264 96.8223C118.264 96.8223 118.373 86.0487 107.035 86.8293C95.6981 87.6099 97.382 102.61 103.714 106.555C103.714 106.555 100.564 103.039 102.131 99.7971Z" fill="#263238"/>
<path d="M103.349 100.965C103.205 100.281 102.771 99.6766 102.139 99.2817C101.507 98.8868 100.729 98.7334 99.9732 98.8548C97.9556 99.2416 97.3969 103.123 102.573 103.581C103.318 103.644 103.659 102.962 103.349 100.965Z" fill="#E4897B"/>
<path d="M115.524 103.13C115.259 103.819 115.052 104.524 114.903 105.24H114.476C112.544 105.184 111.667 104.579 111.287 103.918C111.104 103.596 111.011 103.239 111.015 102.877C111.009 102.673 111.035 102.47 111.093 102.272C112.271 102.788 113.556 103.071 114.864 103.102C115.268 103.13 115.524 103.13 115.524 103.13Z" fill="#263238"/>
<path d="M114.85 103.102L114.648 103.721C112.825 103.658 111.544 103.398 111.001 102.877C110.994 102.673 111.021 102.47 111.079 102.272C112.257 102.788 113.542 103.071 114.85 103.102Z" fill="white"/>
<path d="M114.476 105.24C112.544 105.184 111.667 104.579 111.287 103.918C112.019 103.959 112.739 104.114 113.413 104.375C113.859 104.555 114.231 104.858 114.476 105.24Z" fill="#DE5753"/>
<path d="M119.008 94.7337C119.008 94.7337 117.557 94.2555 114.864 95.1204C114.466 95.0109 114.047 94.9762 113.633 95.0186C113.22 95.0609 112.82 95.1793 112.459 95.3666C110.766 95.3732 109.089 95.6665 107.515 96.2316L102.371 98.0037V98.5101L107.616 97.2864C108.051 98.4538 109.223 100.24 110.992 99.9095C113.32 99.4735 113.204 97.2653 113.025 96.2316C113.522 95.7112 114.461 95.6338 114.647 96.0347C114.841 96.9489 115.485 99.0586 117.953 98.932C120.42 98.8054 119.008 94.7337 119.008 94.7337Z" fill="#407BFF"/>
<path opacity="0.2" d="M119.008 94.7337C119.008 94.7337 117.557 94.2555 114.864 95.1204C114.466 95.0109 114.047 94.9762 113.633 95.0186C113.22 95.0609 112.82 95.1793 112.459 95.3666C110.766 95.3732 109.089 95.6665 107.515 96.2316L102.371 98.0037V98.5101L107.616 97.2864C108.051 98.4538 109.223 100.24 110.992 99.9095C113.32 99.4735 113.204 97.2653 113.025 96.2316C113.522 95.7112 114.461 95.6338 114.647 96.0347C114.841 96.9489 115.485 99.0586 117.953 98.932C120.42 98.8054 119.008 94.7337 119.008 94.7337Z" fill="black"/>
<g opacity="0.3">
<path d="M118.125 95.0292L117.093 98.4962C117.093 98.4962 118.552 98.9463 118.94 97.8844C119.14 96.9377 119.106 95.9623 118.839 95.0292C118.603 94.9909 118.361 94.9909 118.125 95.0292Z" fill="white"/>
<path d="M117.791 95.001L116.759 98.5172C116.759 98.5172 116.107 98.3343 116.1 98.1093L116.953 95.1205C116.953 95.1205 117.551 95.0221 117.791 95.001Z" fill="white"/>
<path d="M111.545 95.8871L110.513 99.3541C110.513 99.3541 111.972 99.7971 112.367 98.7353C112.563 97.7902 112.526 96.8177 112.259 95.8871C112.023 95.8488 111.781 95.8488 111.545 95.8871Z" fill="white"/>
<path d="M111.211 95.8521L110.186 99.3683C110.186 99.3683 109.527 99.1854 109.519 98.9604L110.373 95.9716C110.373 95.9716 110.97 95.8731 111.211 95.8521Z" fill="white"/>
</g>
<path d="M107.998 88.8687C107.998 88.8687 109.55 95.5002 104.397 98.3343" stroke="#263238" stroke-width="0.5" stroke-linecap="round" stroke-linejoin="round"/>
<path d="M108.136 89.5648C108.136 89.5648 106.584 99.6142 99.7245 100.113C92.8646 100.613 99.3675 89.3961 102.052 87.223C103.294 86.2244 107.616 84.8531 108.136 89.5648Z" fill="#263238"/>
<path d="M85.4075 117.033C82.4587 117.406 73.0459 134.748 70.7955 134.755C68.5451 134.762 61.4835 121.26 61.4835 121.26L55.6479 125.177C55.6479 125.177 62.6319 146.823 70.5316 145.81C79.0676 144.713 88.3796 132.076 88.3796 132.076C88.7289 129.307 88.7289 126.511 88.3796 123.742C87.9835 121.326 86.9654 119.027 85.4075 117.033Z" fill="#407BFF"/>
<path opacity="0.2" d="M85.4075 117.033C82.4587 117.406 73.0459 134.748 70.7955 134.755C68.5451 134.762 61.4835 121.26 61.4835 121.26L55.6479 125.177C55.6479 125.177 62.6319 146.823 70.5316 145.81C79.0676 144.713 88.3796 132.076 88.3796 132.076C88.7289 129.307 88.7289 126.511 88.3796 123.742C87.9835 121.326 86.9654 119.027 85.4075 117.033Z" fill="#699FC9"/>
<path d="M206.052 110.156H189.88V133.166H206.052V110.156Z" fill="white"/>
<path opacity="0.2" d="M206.052 110.156H189.88V133.166H206.052V110.156Z" fill="black"/>
<path d="M201.747 110.156H185.575V133.166H201.747V110.156Z" fill="white"/>
<path opacity="0.1" d="M201.747 110.156H185.575V133.166H201.747V110.156Z" fill="black"/>
<path d="M207.278 111.379V141.977H184.867V119.178L196.499 111.379H207.278Z" fill="#263238"/>
<path opacity="0.2" d="M207.279 111.379H200.473V141.977H207.279V111.379Z" fill="black"/>
<path opacity="0.4" d="M206.58 116.183H201.513V118.327H206.58V116.183Z" fill="white"/>
<path opacity="0.4" d="M206.58 119.699H201.513V126.64H206.58V119.699Z" fill="white"/>
<path opacity="0.4" d="M206.58 128.524H201.513V130.325H206.58V128.524Z" fill="white"/>
<path d="M194.412 109.453H178.24V132.463H194.412V109.453Z" fill="white"/>
<path opacity="0.2" d="M194.412 109.453H178.24V132.463H194.412V109.453Z" fill="black"/>
<path d="M190.105 109.453H173.933V132.463H190.105V109.453Z" fill="white"/>
<path opacity="0.1" d="M190.105 109.453H173.933V132.463H190.105V109.453Z" fill="black"/>
<path d="M195.638 111.379V141.977H173.227V119.178L184.859 111.379H195.638Z" fill="#407BFF"/>
<path opacity="0.2" d="M195.639 111.379H188.833V141.977H195.639V111.379Z" fill="black"/>
<path opacity="0.4" d="M194.94 116.183H189.873V118.327H194.94V116.183Z" fill="white"/>
<path opacity="0.4" d="M194.94 119.699H189.873V126.64H194.94V119.699Z" fill="white"/>
<path opacity="0.4" d="M194.94 128.524H189.873V130.325H194.94V128.524Z" fill="white"/>
<path d="M158.251 254.89H163L163.784 147.125H157.475L158.251 254.89Z" fill="#263238"/>
<path opacity="0.5" d="M157.467 147.294L157.591 164.685L158.243 254.89H163L163.652 164.685L163.776 147.294H157.467Z" fill="white"/>
<path opacity="0.2" d="M157.467 147.294L157.591 164.875H163.652L163.776 147.294H157.467Z" fill="black"/>
<path d="M107.779 254.89H112.528L121.072 147.125H114.763L107.779 254.89Z" fill="#263238"/>
<path opacity="0.5" d="M107.771 254.89H112.528L120.653 152.477L121.072 147.294H114.763L114.422 152.477L107.771 254.89Z" fill="white"/>
<path opacity="0.2" d="M114.422 152.217H120.654L121.073 147.294H114.764L114.422 152.217Z" fill="black"/>
<path d="M210.273 254.89H215.03L208.038 147.125H201.729L210.273 254.89Z" fill="#263238"/>
<path opacity="0.5" d="M201.729 147.294L202.149 152.477L210.273 254.89H215.022L208.38 152.477L208.038 147.294H201.729Z" fill="white"/>
<path opacity="0.2" d="M208.038 147.294H201.729L202.149 152.217H208.38L208.038 147.294Z" fill="black"/>
<path d="M211.361 149.826H111.443C111.223 149.826 111.005 149.786 110.802 149.71C110.598 149.634 110.414 149.522 110.258 149.381C110.102 149.24 109.979 149.072 109.895 148.888C109.81 148.704 109.767 148.506 109.767 148.307V144.46H213.037V148.335C213.029 148.733 212.849 149.112 212.535 149.391C212.222 149.67 211.8 149.826 211.361 149.826Z" fill="#407BFF"/>
<path opacity="0.6" d="M211.361 149.826H111.443C111.223 149.826 111.005 149.786 110.802 149.71C110.598 149.634 110.414 149.522 110.258 149.381C110.102 149.24 109.979 149.072 109.895 148.888C109.81 148.704 109.767 148.506 109.767 148.307V144.46H213.037V148.335C213.029 148.733 212.849 149.112 212.535 149.391C212.222 149.67 211.8 149.826 211.361 149.826Z" fill="white"/>
<path opacity="0.2" d="M109.767 147.125H213.037V144.425H109.767V147.125Z" fill="black"/>
<path d="M106.818 145.128H215.985C216.206 145.128 216.424 145.089 216.627 145.012C216.83 144.936 217.015 144.824 217.171 144.683C217.326 144.542 217.45 144.375 217.534 144.19C217.618 144.006 217.662 143.809 217.662 143.609C217.662 143.41 217.618 143.212 217.534 143.028C217.45 142.844 217.326 142.676 217.171 142.535C217.015 142.394 216.83 142.282 216.627 142.206C216.424 142.129 216.206 142.09 215.985 142.09H106.818C106.598 142.09 106.38 142.129 106.176 142.206C105.973 142.282 105.788 142.394 105.633 142.535C105.477 142.676 105.353 142.844 105.269 143.028C105.185 143.212 105.142 143.41 105.142 143.609C105.142 143.809 105.185 144.006 105.269 144.19C105.353 144.375 105.477 144.542 105.633 144.683C105.788 144.824 105.973 144.936 106.176 145.012C106.38 145.089 106.598 145.128 106.818 145.128Z" fill="#407BFF"/>
<path opacity="0.6" d="M106.818 145.128H215.985C216.206 145.128 216.424 145.089 216.627 145.012C216.83 144.936 217.015 144.824 217.171 144.683C217.326 144.542 217.45 144.375 217.534 144.19C217.618 144.006 217.662 143.809 217.662 143.609C217.662 143.41 217.618 143.212 217.534 143.028C217.45 142.844 217.326 142.676 217.171 142.535C217.015 142.394 216.83 142.282 216.627 142.206C216.424 142.129 216.206 142.09 215.985 142.09H106.818C106.598 142.09 106.38 142.129 106.176 142.206C105.973 142.282 105.788 142.394 105.633 142.535C105.477 142.676 105.353 142.844 105.269 143.028C105.185 143.212 105.142 143.41 105.142 143.609C105.142 143.809 105.185 144.006 105.269 144.19C105.353 144.375 105.477 144.542 105.633 144.683C105.788 144.824 105.973 144.936 106.176 145.012C106.38 145.089 106.598 145.128 106.818 145.128Z" fill="white"/>
<path d="M183.517 139.242V141.106C183.517 141.661 182.461 142.055 181.848 142.055H133.899C133.286 142.055 132.301 141.661 132.301 141.106V139.242H183.517Z" fill="#263238"/>
<path opacity="0.6" d="M183.517 139.242V141.106C183.517 141.661 182.461 142.055 181.848 142.055H133.899C133.286 142.055 132.301 141.661 132.301 141.106V139.242H183.517Z" fill="white"/>
<path opacity="0.2" d="M183.517 139.242V141.106C183.517 141.661 182.461 142.055 181.848 142.055H150.226C149.605 142.055 148.597 141.661 148.597 141.106V139.242H183.517Z" fill="black"/>
<path d="M191.207 116.358L185.465 139.903C185.366 140.287 185.133 140.632 184.8 140.885C184.467 141.139 184.052 141.288 183.618 141.31H152.461C152.262 141.292 152.069 141.235 151.897 141.142C151.725 141.049 151.577 140.923 151.465 140.772C151.353 140.622 151.28 140.451 151.249 140.271C151.219 140.092 151.233 139.908 151.29 139.734L156.993 116.443C157.118 116.095 157.369 115.795 157.706 115.594C158.043 115.392 158.446 115.299 158.848 115.332H190.027C190.897 115.332 191.393 115.599 191.207 116.358Z" fill="#263238"/>
<path opacity="0.6" d="M191.207 116.358L185.465 139.903C185.366 140.287 185.133 140.632 184.8 140.885C184.467 141.139 184.052 141.288 183.618 141.31H152.461C152.262 141.292 152.069 141.235 151.897 141.142C151.725 141.049 151.577 140.923 151.465 140.772C151.353 140.622 151.28 140.451 151.249 140.271C151.219 140.092 151.233 139.908 151.29 139.734L156.993 116.443C157.118 116.095 157.369 115.795 157.706 115.594C158.043 115.392 158.446 115.299 158.848 115.332H190.027C190.897 115.332 191.393 115.599 191.207 116.358Z" fill="white"/>
<path opacity="0.4" d="M191.207 116.358L185.465 139.903C185.366 140.287 185.133 140.632 184.8 140.885C184.467 141.139 184.052 141.288 183.618 141.309H153.525C153.324 141.293 153.131 141.236 152.958 141.144C152.785 141.052 152.636 140.925 152.523 140.775C152.411 140.624 152.336 140.453 152.305 140.273C152.274 140.093 152.288 139.909 152.345 139.734L158.056 116.443C158.173 116.087 158.42 115.778 158.758 115.568C159.096 115.358 159.503 115.26 159.911 115.289H190.028C190.897 115.332 191.393 115.599 191.207 116.358Z" fill="white"/>
<path opacity="0.2" d="M172.863 131.45C174.314 131.45 175.804 130.043 176.184 128.299C176.564 126.555 175.688 125.142 174.229 125.142C173.963 125.147 173.7 125.195 173.453 125.282C173.318 125.904 173.024 126.489 172.594 126.988C172.164 127.488 171.61 127.889 170.977 128.159C170.974 128.206 170.974 128.253 170.977 128.299C170.527 130.036 171.404 131.45 172.863 131.45Z" fill="black"/>
<path d="M77.8577 189.362C77.446 189.362 77.0513 189.214 76.7602 188.95C76.4692 188.686 76.3057 188.329 76.3057 187.956C76.6316 171.908 82.4205 161.45 84.6865 157.955C84.796 157.789 84.9422 157.645 85.1161 157.532C85.2899 157.419 85.4876 157.34 85.6967 157.3C85.9058 157.26 86.1218 157.259 86.3312 157.298C86.5406 157.337 86.7389 157.415 86.9136 157.526L88.1241 158.293L86.8515 157.484L86.9213 157.526C87.2416 157.726 87.4672 158.028 87.5535 158.372C87.6397 158.716 87.5803 159.077 87.3869 159.383C85.3383 162.59 79.7433 172.709 79.4174 187.991C79.4073 188.359 79.2382 188.709 78.9466 188.965C78.655 189.221 78.264 189.364 77.8577 189.362Z" fill="#263238"/>
<g opacity="0.2">
<path d="M77.8577 189.362C77.446 189.362 77.0513 189.214 76.7602 188.95C76.4692 188.686 76.3057 188.329 76.3057 187.956C76.6316 171.908 82.4205 161.45 84.6865 157.955C84.796 157.789 84.9422 157.645 85.1161 157.532C85.2899 157.419 85.4876 157.34 85.6967 157.3C85.9058 157.26 86.1218 157.259 86.3312 157.298C86.5406 157.337 86.7389 157.415 86.9136 157.526L88.1241 158.293L86.8515 157.484L86.9213 157.526C87.2416 157.726 87.4672 158.028 87.5535 158.372C87.6397 158.716 87.5803 159.077 87.3869 159.383C85.3383 162.59 79.7433 172.709 79.4174 187.991C79.4073 188.359 79.2382 188.709 78.9466 188.965C78.655 189.221 78.264 189.364 77.8577 189.362Z" fill="white"/>
</g>
<path d="M97.5909 159.692H54.6082C54.2723 159.692 53.9397 159.632 53.6294 159.515C53.3192 159.399 53.0374 159.228 52.8002 159.012C52.563 158.796 52.3751 158.541 52.2473 158.259C52.1194 157.978 52.0542 157.676 52.0552 157.371C52.0542 157.067 52.1194 156.765 52.2473 156.484C52.3751 156.202 52.563 155.946 52.8002 155.731C53.0374 155.515 53.3192 155.344 53.6294 155.228C53.9397 155.111 54.2723 155.051 54.6082 155.051H97.5909C97.9268 155.051 98.2594 155.111 98.5697 155.228C98.8799 155.344 99.1617 155.515 99.3989 155.731C99.6361 155.946 99.824 156.202 99.9518 156.484C100.08 156.765 100.145 157.067 100.144 157.371C100.145 157.676 100.08 157.978 99.9518 158.259C99.824 158.541 99.6361 158.796 99.3989 159.012C99.1617 159.228 98.8799 159.399 98.5697 159.515C98.2594 159.632 97.9268 159.692 97.5909 159.692Z" fill="#263238"/>
<path opacity="0.6" d="M97.5909 159.692H54.6082C54.2723 159.692 53.9397 159.632 53.6294 159.515C53.3192 159.399 53.0374 159.228 52.8002 159.012C52.563 158.796 52.3751 158.541 52.2473 158.259C52.1194 157.978 52.0542 157.676 52.0552 157.371C52.0542 157.067 52.1194 156.765 52.2473 156.484C52.3751 156.202 52.563 155.946 52.8002 155.731C53.0374 155.515 53.3192 155.344 53.6294 155.228C53.9397 155.111 54.2723 155.051 54.6082 155.051H97.5909C97.9268 155.051 98.2594 155.111 98.5697 155.228C98.8799 155.344 99.1617 155.515 99.3989 155.731C99.6361 155.946 99.824 156.202 99.9518 156.484C100.08 156.765 100.145 157.067 100.144 157.371C100.145 157.676 100.08 157.978 99.9518 158.259C99.824 158.541 99.6361 158.796 99.3989 159.012C99.1617 159.228 98.8799 159.399 98.5697 159.515C98.2594 159.632 97.9268 159.692 97.5909 159.692Z" fill="white"/>
</svg>
