<svg width="32" height="32" viewBox="0 0 32 32" fill="none" xmlns="http://www.w3.org/2000/svg">
<path d="M16 18.8569V21.7141" stroke="black" stroke-width="1.82857" stroke-linecap="round"/>
<path d="M25.1769 16.9122L24.9115 18.7572C24.4472 21.9834 24.2151 23.5965 23.0961 24.5601C21.9769 25.5237 20.3357 25.5237 17.0533 25.5237H14.9465C11.664 25.5237 10.0228 25.5237 8.90372 24.5601C7.7846 23.5965 7.5525 21.9834 7.0883 18.7572L6.8228 16.9122C6.46143 14.4006 6.28075 13.1449 6.79547 12.0713C7.3102 10.9976 8.40578 10.345 10.5969 9.0397L11.9158 8.25405C13.9056 7.06873 14.9005 6.47607 15.9999 6.47607C17.0992 6.47607 18.0942 7.06873 20.0839 8.25405L21.4028 9.0397C23.594 10.345 24.6896 10.9976 25.2043 12.0713" stroke="black" stroke-width="1.82857" stroke-linecap="round"/>
</svg>
