<svg width="34" height="8" viewBox="0 0 34 8" fill="none" xmlns="http://www.w3.org/2000/svg">
<g clip-path="url(#clip0_18_1237)">
<path d="M13.0309 1.37085C11.6127 1.37085 10.3393 1.94144 10.3393 2.9885C10.3393 4.19438 12.5886 4.27673 12.5886 4.87673C12.5886 5.12967 12.2074 5.35909 11.5669 5.35909C10.6519 5.35909 9.96569 5.04144 9.96569 5.04144L9.67594 6.10026C9.67594 6.10026 10.4613 6.37085 11.5135 6.37085C13.069 6.37085 14.289 5.77673 14.289 4.70614C14.289 3.43556 12.032 3.3532 12.032 2.79438C12.032 2.59438 12.3446 2.37673 12.9851 2.37673C13.7095 2.37673 14.3042 2.60614 14.3042 2.60614L14.594 1.58261C14.5864 1.58261 13.9382 1.37085 13.0309 1.37085ZM0.0381243 1.44732L0 1.60026C0 1.60026 0.594739 1.68261 1.1361 1.8532C1.82997 2.04732 1.87571 2.15908 1.99771 2.50614L3.27106 6.2885H4.97903L7.59436 1.44732H5.89401L4.20892 4.74144L3.52268 1.94732C3.46169 1.62967 3.14144 1.44732 2.74495 1.44732H0.0381243ZM8.28059 1.44732L6.94624 6.2885H8.57034L9.89707 1.44732H8.28059ZM17.3237 1.44732C16.9348 1.44732 16.7289 1.60614 16.5764 1.8885L14.1975 6.2885H15.8978L16.2257 5.5532H18.2997L18.4979 6.2885H20L18.6961 1.44732H17.3237ZM17.5448 2.75908L18.048 4.57673H16.6984L17.5448 2.75908Z" fill="#699FC9"/>
</g>
<g clip-path="url(#clip1_18_1237)">
<path d="M29.6223 0.828125H26.3777V6.91415H29.6223V0.828125Z" fill="#FF5F00"/>
<path d="M26.5816 3.86967C26.5816 2.68687 27.1069 1.55784 27.9928 0.826655C26.3859 -0.495926 24.058 -0.205603 22.7911 1.48257C21.5241 3.15999 21.8022 5.5901 23.4194 6.91268C24.7687 8.0202 26.6537 8.0202 28.0031 6.91268C27.1069 6.18149 26.5816 5.05246 26.5816 3.86967Z" fill="#EB001B"/>
<path d="M34 3.87113C34 6.01092 32.3416 7.7421 30.2918 7.7421C29.4575 7.7421 28.6541 7.45178 28.0051 6.91414C29.612 5.59156 29.8901 3.16145 28.6232 1.47328C28.4377 1.23672 28.2317 1.01092 28.0051 0.82812C29.612 -0.494461 31.9502 -0.204139 33.2068 1.48403C33.7219 2.16145 34 3.00016 34 3.87113Z" fill="#F79E1B"/>
<path d="M33.6497 6.26895V6.13991H33.7012V6.11841H33.5776V6.13991H33.6291V6.26895H33.6497ZM33.8866 6.26895V6.11841H33.8454L33.8042 6.22594L33.763 6.11841H33.7218V6.26895H33.7527V6.15067L33.7939 6.24744H33.8248L33.866 6.15067V6.26895H33.8866Z" fill="#F79E1B"/>
</g>
<defs>
<clipPath id="clip0_18_1237">
<rect width="20" height="5" fill="white" transform="translate(0 1.37085)"/>
</clipPath>
<clipPath id="clip1_18_1237">
<rect width="12" height="7.74194" fill="white" transform="translate(22)"/>
</clipPath>
</defs>
</svg>
