<svg width="12" height="12" viewBox="0 0 12 12" fill="none" xmlns="http://www.w3.org/2000/svg">
<path d="M7.37233 4.01279L7.98558 4.62604L1.9464 10.6652H1.33315V10.052L7.37233 4.01279ZM9.77201 0C9.60536 0 9.43205 0.0666576 9.3054 0.193307L8.08557 1.41314L10.5852 3.9128L11.8051 2.69297C11.8669 2.6313 11.9159 2.55805 11.9493 2.47741C11.9828 2.39678 12 2.31033 12 2.22303C12 2.13573 11.9828 2.04929 11.9493 1.96865C11.9159 1.88801 11.8669 1.81476 11.8051 1.7531L10.2453 0.193307C10.112 0.0599918 9.94532 0 9.77201 0ZM7.37233 2.12638L0 9.49871V11.9984H2.49966L9.87199 4.62604L7.37233 2.12638Z" fill="black"/>
</svg>
