<svg width="24" height="24" viewBox="0 0 24 24" fill="none" xmlns="http://www.w3.org/2000/svg">
<g opacity="0.5">
<path d="M7.02451 7.30896C7.27152 7.09094 7.29502 6.71396 7.07701 6.46694C6.85899 6.21993 6.48201 6.19642 6.23499 6.41444C4.79107 7.68885 3.87894 9.55533 3.87894 11.6341C3.87894 11.9636 4.14603 12.2307 4.47549 12.2307C4.80495 12.2307 5.07204 11.9636 5.07204 11.6341C5.07204 9.91183 5.82631 8.3665 7.02451 7.30896Z" fill="#3C3C3C"/>
<path d="M15.4424 6.41444C15.1955 6.19642 14.8185 6.21993 14.6004 6.46694C14.3824 6.71396 14.406 7.09094 14.6529 7.30896C15.8511 8.3665 16.6054 9.91183 16.6054 11.6341C16.6054 11.9636 16.8725 12.2307 17.202 12.2307C17.5314 12.2307 17.7985 11.9636 17.7985 11.6341C17.7985 9.55533 16.8863 7.68885 15.4424 6.41444Z" fill="#3C3C3C"/>
<path d="M9.39657 17.2192C9.07754 17.137 8.75231 17.3291 8.67019 17.6482C8.58807 17.9673 8.78015 18.2925 9.09922 18.3746C9.65587 18.5178 10.2388 18.5939 10.8387 18.5939C11.4386 18.5939 12.0216 18.5178 12.5782 18.3746C12.8973 18.2925 13.0894 17.9673 13.0072 17.6482C12.9251 17.3291 12.5999 17.137 12.2809 17.2192C11.8206 17.3376 11.3374 17.4008 10.8387 17.4008C10.34 17.4008 9.85687 17.3376 9.39657 17.2192Z" fill="#3C3C3C"/>
</g>
<path d="M8.45251 6.06639C8.45251 7.38425 9.52082 8.4526 10.8387 8.4526C12.1566 8.4526 13.2249 7.38425 13.2249 6.06639C13.2249 4.74852 12.1566 3.68018 10.8387 3.68018C9.52082 3.68018 8.45251 4.74852 8.45251 6.06639Z" fill="#3C3C3C"/>
<path d="M3.28238 15.6113C3.28238 16.9292 4.35073 17.9975 5.66859 17.9975C6.98646 17.9975 8.05481 16.9292 8.05481 15.6113C8.05481 14.2934 6.98646 13.2251 5.66859 13.2251C4.35073 13.2251 3.28238 14.2934 3.28238 15.6113Z" fill="#3C3C3C"/>
<path d="M16.0088 17.9975C14.6909 17.9975 13.6226 16.9292 13.6226 15.6113C13.6226 14.2934 14.6909 13.2251 16.0088 13.2251C17.3267 13.2251 18.395 14.2934 18.395 15.6113C18.395 16.9292 17.3267 17.9975 16.0088 17.9975Z" fill="#3C3C3C"/>
</svg>
