<svg width="16" height="16" viewBox="0 0 16 16" fill="none" xmlns="http://www.w3.org/2000/svg">
<g clip-path="url(#clip0_1483_4245)">
<path d="M8 0C12.4183 0 16 3.58172 16 8C16 12.4183 12.4183 16 8 16C3.58172 16 0 12.4183 0 8C0 3.58172 3.58172 0 8 0ZM8 1.11628C4.19823 1.11628 1.11628 4.19823 1.11628 8C1.11628 11.8018 4.19823 14.8837 8 14.8837C11.8018 14.8837 14.8837 11.8018 14.8837 8C14.8837 4.19823 11.8018 1.11628 8 1.11628ZM11.9374 5.26607C12.1619 5.46692 12.1811 5.81175 11.9802 6.03627L8.05293 10.4266C7.83926 10.6654 7.46667 10.6695 7.24786 10.4353L4.57526 7.57521C4.36959 7.3551 4.38129 7.00994 4.60139 6.80426C4.8215 6.59859 5.16666 6.61029 5.37234 6.83039L7.63762 9.2546L11.1672 5.30895C11.368 5.08442 11.7128 5.06523 11.9374 5.26607Z" fill="#699FC9"/>
</g>
<defs>
<clipPath id="clip0_1483_4245">
<rect width="16" height="16" fill="white"/>
</clipPath>
</defs>
</svg>
