<svg width="32" height="32" viewBox="0 0 32 32" fill="none" xmlns="http://www.w3.org/2000/svg">
<path d="M23.2381 13.3418C21.5143 13.3418 20.8095 12.1228 21.6667 10.6275C22.1619 9.76086 21.8667 8.6561 21 8.16086L19.3524 7.218C18.6 6.77038 17.6286 7.03705 17.181 7.78943L17.0762 7.97038C16.219 9.46562 14.8095 9.46562 13.9429 7.97038L13.8381 7.78943C13.4095 7.03705 12.4381 6.77038 11.6857 7.218L10.0381 8.16086C9.17143 8.6561 8.87619 9.77038 9.37143 10.637C10.2381 12.1228 9.53333 13.3418 7.80952 13.3418C6.81905 13.3418 6 14.1513 6 15.1513V16.8275C6 17.818 6.80952 18.637 7.80952 18.637C9.53333 18.637 10.2381 19.8561 9.37143 21.3513C8.87619 22.218 9.17143 23.3228 10.0381 23.818L11.6857 24.7609C12.4381 25.2085 13.4095 24.9418 13.8571 24.1894L13.9619 24.0085C14.819 22.5132 16.2286 22.5132 17.0952 24.0085L17.2 24.1894C17.6476 24.9418 18.619 25.2085 19.3714 24.7609L21.019 23.818C21.8857 23.3228 22.181 22.2085 21.6857 21.3513C20.819 19.8561 21.5238 18.637 23.2476 18.637C24.2381 18.637 25.0571 17.8275 25.0571 16.8275V15.1513C25.0476 14.1609 24.2381 13.3418 23.2381 13.3418ZM15.5238 19.0847C13.819 19.0847 12.4286 17.6942 12.4286 15.9894C12.4286 14.2847 13.819 12.8942 15.5238 12.8942C17.2286 12.8942 18.619 14.2847 18.619 15.9894C18.619 17.6942 17.2286 19.0847 15.5238 19.0847Z" stroke="black" stroke-width="1.6"/>
</svg>
