<svg width="16" height="17" viewBox="0 0 16 17" fill="none" xmlns="http://www.w3.org/2000/svg">
<g clip-path="url(#clip0_1483_3927)">
<path d="M14.4 6.39981V3.9998C14.4 3.11615 13.6837 2.3998 12.8 2.3998H3.19998C2.31632 2.3998 1.59998 3.11615 1.59998 3.9998V6.39981M14.4 6.39981V13.5998C14.4 14.4835 13.6837 15.1998 12.8 15.1998H3.19998C2.31632 15.1998 1.59998 14.4835 1.59998 13.5998V6.39981M14.4 6.39981H1.59998M4.79998 0.799805V3.9998M11.2 0.799805V3.9998" stroke="#699FC9" stroke-width="1.67" stroke-linecap="round"/>
<path d="M5.19995 8H3.59995C3.37904 8 3.19995 8.17909 3.19995 8.4V10C3.19995 10.2209 3.37904 10.4 3.59995 10.4H5.19995C5.42086 10.4 5.59995 10.2209 5.59995 10V8.4C5.59995 8.17909 5.42086 8 5.19995 8Z" fill="#699FC9"/>
<path d="M8.79999 8H7.19999C6.97907 8 6.79999 8.17909 6.79999 8.4V10C6.79999 10.2209 6.97907 10.4 7.19999 10.4H8.79999C9.0209 10.4 9.19999 10.2209 9.19999 10V8.4C9.19999 8.17909 9.0209 8 8.79999 8Z" fill="#699FC9"/>
<path d="M12.4 8H10.8C10.579 8 10.4 8.17909 10.4 8.4V10C10.4 10.2209 10.579 10.4 10.8 10.4H12.4C12.6209 10.4 12.8 10.2209 12.8 10V8.4C12.8 8.17909 12.6209 8 12.4 8Z" fill="#699FC9"/>
</g>
<defs>
<clipPath id="clip0_1483_3927">
<rect width="16" height="16.8" fill="white"/>
</clipPath>
</defs>
</svg>
