<svg width="21" height="30" viewBox="0 0 21 30" fill="none" xmlns="http://www.w3.org/2000/svg">
<path d="M10.5 0C4.69499 0 0 4.69499 0 10.5C0 18.375 10.5 29.9999 10.5 29.9999C10.5 29.9999 20.9999 18.375 20.9999 10.5C20.9999 4.69499 16.305 0 10.5 0ZM2.99999 10.5C2.99999 6.35998 6.35998 2.99999 10.5 2.99999C14.64 2.99999 17.9999 6.35998 17.9999 10.5C17.9999 14.82 13.68 21.2849 10.5 25.3199C7.37998 21.3149 2.99999 14.775 2.99999 10.5Z" fill="#3C3C3C"/>
<path d="M10.5 14.25C12.571 14.25 14.25 12.571 14.25 10.5C14.25 8.42891 12.571 6.74998 10.5 6.74998C8.4289 6.74998 6.74997 8.42891 6.74997 10.5C6.74997 12.571 8.4289 14.25 10.5 14.25Z" fill="#3C3C3C"/>
</svg>
