<svg width="16" height="15" viewBox="0 0 16 15" fill="none" xmlns="http://www.w3.org/2000/svg">
<path d="M7.36196 0.361099C7.51835 -0.120206 8.19927 -0.120207 8.35565 0.361098L9.85272 4.96861C9.92266 5.18385 10.1232 5.32959 10.3496 5.32959H15.1942C15.7003 5.32959 15.9107 5.97718 15.5013 6.27464L11.5819 9.12224C11.3988 9.25527 11.3222 9.49107 11.3921 9.70631L12.8892 14.3138C13.0456 14.7951 12.4947 15.1954 12.0853 14.8979L8.16588 12.0503C7.98278 11.9173 7.73484 11.9173 7.55174 12.0503L3.63236 14.8979C3.22294 15.1954 2.67206 14.7951 2.82845 14.3138L4.32552 9.70631C4.39546 9.49107 4.31884 9.25527 4.13574 9.12224L0.216361 6.27464C-0.193062 5.97718 0.0173532 5.32959 0.523427 5.32959H5.36805C5.59437 5.32959 5.79496 5.18385 5.86489 4.96861L7.36196 0.361099Z" fill="#FFE033"/>
</svg>
