<svg width="16" height="16" viewBox="0 0 16 16" fill="none" xmlns="http://www.w3.org/2000/svg">
<g clip-path="url(#clip0_1483_4283)">
<path fill-rule="evenodd" clip-rule="evenodd" d="M14.6198 14.8802C14.6198 15.0117 14.513 15.1197 14.3802 15.1197H1.55339C1.42188 15.1197 1.31381 15.013 1.31381 14.8802V7.60671C1.04558 7.70958 0.796882 7.71088 0.588549 7.64187C0.425789 7.58718 0.28907 7.48953 0.18881 7.36192C0.0885491 7.23562 0.024747 7.08067 0.00521578 6.9114C-0.02343 6.64708 0.055997 6.3476 0.279955 6.06765C0.291674 6.05333 0.304695 6.04031 0.319018 6.02859L7.81902 0.94135C7.90365 0.863225 8.03386 0.855412 8.12761 0.928329L15.6406 6.00515C15.651 6.01296 15.6602 6.02208 15.6693 6.03119C15.9714 6.35671 16.0469 6.71739 15.974 7.02338C15.9375 7.17312 15.8659 7.30984 15.7669 7.42052C15.668 7.5325 15.5417 7.61843 15.3971 7.67052C15.168 7.75385 14.8971 7.74994 14.6211 7.61974C14.6198 9.65099 14.6198 12.8502 14.6198 14.8802ZM5.90235 5.61192H10.0964V8.43614H5.90235V5.61192ZM7.32813 6.37885C7.44923 6.37885 7.54818 6.47781 7.54818 6.5989C7.54818 6.72 7.44923 6.81895 7.32813 6.81895C7.20704 6.81895 7.10808 6.72 7.10808 6.5989C7.10808 6.47651 7.20574 6.37885 7.32813 6.37885ZM8.25391 7.32286L8.7487 6.56244L9.21615 7.74474H6.92449V7.5976L7.10808 7.58849L7.29167 7.13927L7.43751 7.46088H7.71225L7.95053 6.8463L8.25391 7.32286ZM6.15496 5.90229H9.84636V8.14578H6.15496V5.90229ZM7.9336 10.6028C7.93881 10.6041 7.94532 10.6028 7.95053 10.5976C8.23178 10.3775 8.64454 10.47 8.83334 10.9309H8.82943C8.45704 11.2473 8.19011 11.5911 8.09376 11.9752H7.55469L7.9336 10.6028ZM9.8112 11.4817C9.85678 11.8723 9.45574 12.2096 9.10287 12.1028C9.05339 12.1887 9.01563 12.2968 8.98568 12.427C8.91928 12.7304 8.93881 12.638 8.96746 12.9322C9.00652 13.3242 8.96485 13.5911 8.71225 13.7057V13.8567H3.61068V13.7057C3.41407 13.6354 3.32943 13.4427 3.35938 13.1262C3.42449 12.5299 3.38412 12.3437 3.23438 12.1184C2.97136 12.1275 2.78126 12.065 2.66277 11.9322C2.42058 11.6627 2.4948 11.2682 2.79688 11.0794C2.85938 11.0403 2.9323 11.0104 3.01693 10.9921C3.66537 10.8554 4.02344 11.5195 4.19532 12.0429L5.89714 12.0885C6.01303 12.1041 6.08725 12.1562 6.13673 12.2265C6.1823 12.1575 6.24871 12.1054 6.35027 12.082C6.88022 12.0585 7.25912 12.1288 7.64584 12.1288H8.09636C8.18881 12.1288 8.23699 12.0885 8.25261 12.0143C8.36719 11.6653 8.77344 10.9648 9.19923 10.9778C9.46094 10.9869 9.7461 11.1666 9.8112 11.4817ZM3.53386 10.8893C3.70574 10.5065 3.97397 10.4114 4.33985 10.539L4.73178 11.8867H4.3086C4.11199 11.4856 3.98178 11.0781 3.53386 10.8893ZM4.50522 10.5494C4.51042 10.5468 4.51433 10.5429 4.51693 10.5364C4.66147 10.2031 5.0599 10.1093 5.38542 10.2525C5.38542 10.2512 5.38673 10.2512 5.38673 10.2512L5.47527 11.9674H4.91147L4.50522 10.5494ZM5.5599 10.2161C5.66537 9.77729 6.66537 9.86713 6.75782 10.1692C6.77084 10.1679 6.65365 11.789 6.64584 11.9687H6.4974C6.26303 11.9687 6.056 11.9687 5.82423 11.9687H5.63673L5.56381 10.2161H5.5599ZM6.88803 10.2903C6.89063 10.2903 6.89454 10.289 6.89844 10.2877C7.26042 10.095 7.76433 10.2356 7.81251 10.4869L7.78777 10.496L7.39063 11.9674H6.80339L6.88803 10.2903ZM12.0872 11.0221V13.4114H12.569C12.6432 13.4114 12.7031 13.4986 12.7031 13.5729C12.7031 13.6471 12.6432 13.7343 12.569 13.7343H11.2344C11.1602 13.7343 11.1003 13.6471 11.1003 13.5729C11.1003 13.4986 11.1602 13.4114 11.2344 13.4114H11.7162V11.0221H12.0872ZM11.2096 9.21218H12.5899L12.9948 10.8098H10.8073L11.2096 9.21218ZM14.0182 14.5169V7.33979C14.0182 7.32416 14.0195 7.30854 14.0221 7.29421L8.02344 3.29812L1.90886 7.29552C1.91407 7.31505 1.91667 7.33588 1.91667 7.35671V14.5169C5.95053 14.5169 9.98438 14.5169 14.0182 14.5169Z" fill="#699FC9"/>
</g>
<defs>
<clipPath id="clip0_1483_4283">
<rect width="16" height="16" fill="white"/>
</clipPath>
</defs>
</svg>
