<svg width="20" height="18" viewBox="0 0 20 18" fill="none" xmlns="http://www.w3.org/2000/svg">
<path d="M8.19078 14.7865V13.598H6.13451C5.29056 13.5367 4.48832 13.2535 3.83505 12.7862C3.18178 12.3189 2.70865 11.6898 2.47893 10.9831L2.28473 10.666H1.88491C1.71761 10.647 1.56367 10.5767 1.4508 10.468C1.34794 10.3551 1.29164 10.2157 1.29087 10.0718C1.29127 9.96756 1.32275 9.86523 1.38226 9.77464C1.44158 9.68351 1.52849 9.60815 1.63359 9.55672L1.97629 9.38835V8.25922C1.99033 8.17607 2.02522 8.09668 2.07852 8.02651C2.13181 7.95635 2.2022 7.89712 2.28473 7.85313C2.34796 7.799 2.4229 7.75626 2.50524 7.72741C2.58759 7.69847 2.6757 7.68404 2.76453 7.68476H9.6187C9.7096 7.68198 9.8002 7.69542 9.8848 7.72436C9.9694 7.75322 10.0462 7.79685 10.1105 7.85268C10.1748 7.90841 10.2252 7.97499 10.2585 8.04838C10.2918 8.12177 10.3073 8.20026 10.3041 8.27902V11.2505H7.44822C7.38341 11.0992 7.27294 10.9658 7.12836 10.8642C6.98928 10.7595 6.81907 10.6909 6.63715 10.666C6.45151 10.6467 6.26322 10.6671 6.08881 10.7255C5.9169 10.7856 5.76691 10.8849 5.65472 11.0127C5.54545 11.14 5.47829 11.2907 5.46052 11.4486C5.43558 11.6072 5.46332 11.7686 5.54048 11.9141C5.61575 12.0631 5.73864 12.1902 5.89461 12.2806C6.04556 12.3739 6.22362 12.4289 6.40867 12.4391H11.6293C11.9919 12.4365 12.3389 12.3104 12.5953 12.0881C12.8517 11.8657 12.9971 11.5649 13.0001 11.2505V10.0619C13.0003 9.90484 12.964 9.74928 12.8934 9.60466C12.8227 9.45994 12.7191 9.32912 12.5889 9.21998C12.4641 9.10913 12.3148 9.02123 12.1499 8.96164C11.985 8.90206 11.8079 8.87204 11.6293 8.87329V7.68476C11.5648 6.46007 10.9584 5.30407 9.936 4.45717C8.91369 3.61029 7.55417 3.1377 6.14022 3.1377C4.72628 3.1377 3.36675 3.61029 2.34441 4.45717C1.32207 5.30407 0.715607 6.46007 0.651146 7.68476V8.84363C0.261663 9.15385 0.0279103 9.58414 0 10.0421C0.00247002 10.4 0.138761 10.7475 0.388404 11.0325C0.625826 11.3091 0.95149 11.5191 1.32514 11.6367C1.68438 12.5117 2.33127 13.2762 3.18595 13.8359C4.04063 14.3956 5.06567 14.7261 6.13451 14.7865H8.19078Z" fill="#699FC9"/>
<path d="M13.9999 0H5.99987C5.46943 0 4.96072 0.188809 4.58564 0.524903C4.21056 0.860989 3.99985 1.31682 3.99985 1.79212H12.9999V6.27243H18V16.1291H3.99985C3.99985 16.6044 4.21056 17.0602 4.58564 17.3963C4.96072 17.7324 5.46943 17.9212 5.99987 17.9212H18C18.5304 17.9212 19.0391 17.7324 19.4142 17.3963C19.7893 17.0602 20 16.6044 20 16.1291V5.37636L13.9999 0Z" fill="#423B3B"/>
</svg>
