<svg width="14" height="14" viewBox="0 0 14 14" fill="none" xmlns="http://www.w3.org/2000/svg">
<path d="M4.08337 11.1668H9.91671C10.2482 11.1668 10.5662 11.0351 10.8006 10.8007C11.035 10.5663 11.1667 10.2484 11.1667 9.91683V5.75016C11.1667 5.41864 11.035 5.1007 10.8006 4.86628C10.5662 4.63186 10.2482 4.50016 9.91671 4.50016H9.08337V3.66683C9.08337 3.44582 8.99558 3.23385 8.8393 3.07757C8.68302 2.92129 8.47105 2.8335 8.25004 2.8335H5.75004C5.52903 2.8335 5.31707 2.92129 5.16079 3.07757C5.0045 3.23385 4.91671 3.44582 4.91671 3.66683V4.50016H4.08337C3.75185 4.50016 3.43391 4.63186 3.19949 4.86628C2.96507 5.1007 2.83337 5.41864 2.83337 5.75016V9.91683C2.83337 10.2484 2.96507 10.5663 3.19949 10.8007C3.43391 11.0351 3.75185 11.1668 4.08337 11.1668ZM9.50004 5.3335H9.91671C10.0272 5.3335 10.1332 5.37739 10.2113 5.45554C10.2895 5.53368 10.3334 5.63966 10.3334 5.75016V9.91683C10.3334 10.0273 10.2895 10.1333 10.2113 10.2115C10.1332 10.2896 10.0272 10.3335 9.91671 10.3335H9.50004V5.3335ZM5.75004 3.66683H8.25004V4.50016H5.75004V3.66683ZM5.33337 5.3335H8.66671V10.3335H5.33337V5.3335ZM3.66671 5.75016C3.66671 5.63966 3.71061 5.53368 3.78875 5.45554C3.86689 5.37739 3.97287 5.3335 4.08337 5.3335H4.50004V10.3335H4.08337C3.97287 10.3335 3.86689 10.2896 3.78875 10.2115C3.71061 10.1333 3.66671 10.0273 3.66671 9.91683V5.75016Z" fill="#699FC9"/>
</svg>
