<svg width="15" height="15" viewBox="0 0 15 15" fill="none" xmlns="http://www.w3.org/2000/svg">
<path d="M12.4847 3.42156H11.5784M11.5784 3.42156H10.6721M11.5784 3.42156V2.51525M11.5784 3.42156V4.32787M7.50002 1.60894H1.609C1.18176 1.60894 0.968138 1.60894 0.835418 1.74167C0.702689 1.87439 0.702689 2.08801 0.702689 2.51525V4.29599C0.702689 4.53342 0.702689 4.65214 0.756306 4.75233C0.809933 4.85252 0.908712 4.91837 1.10627 5.05008L3.8465 6.87687C4.63674 7.40371 5.03187 7.66717 5.2463 8.06794C5.46082 8.46862 5.46082 8.94353 5.46082 9.89326V14.2973L8.63291 12.7112V9.89326C8.63291 8.94353 8.63291 8.46862 8.84744 8.06794C8.9687 7.84119 9.14788 7.65838 9.42376 7.44694M14.2974 3.42156C14.2974 4.92318 13.0801 6.14049 11.5784 6.14049C10.0768 6.14049 8.85949 4.92318 8.85949 3.42156C8.85949 1.91994 10.0768 0.702625 11.5784 0.702625C13.0801 0.702625 14.2974 1.91994 14.2974 3.42156Z" stroke="#699FC9" stroke-width="1.35211" stroke-linecap="round" stroke-linejoin="round"/>
</svg>
